<svg width="125" height="112" viewBox="0 0 125 112" fill="none" xmlns="http://www.w3.org/2000/svg">
<g clip-path="url(#clip0_4_94)">
<path d="M21.8323 111.933C25.7228 112.034 29.63 111.849 33.5205 111.665C44.3869 111.162 55.2702 110.675 66.1366 110.172C67.8303 110.089 70.0103 109.552 70.1612 107.825C70.2954 106.282 68.5849 105.326 67.1428 104.89C61.9611 103.347 56.4943 103.129 51.0946 102.978C43.146 102.744 35.1974 102.559 27.2488 102.459C22.2851 102.391 17.1873 102.375 12.5254 104.203C9.99325 105.192 6.20338 109.25 10.1945 111.111C11.3012 111.631 13.5651 111.329 14.7557 111.447C17.1034 111.698 19.4511 111.883 21.8323 111.933Z" fill="url(#paint0_linear_4_94)"/>
<path d="M21.8313 111.933C25.7218 112.034 29.629 111.849 33.5195 111.665C44.386 111.162 55.2692 110.675 66.1357 110.172C67.8294 110.089 70.0093 109.552 70.1603 107.825C70.2944 106.282 68.5839 105.326 67.1418 104.89C61.9601 103.347 56.4934 103.129 51.0937 102.978C43.145 102.744 35.1964 102.559 27.2478 102.459C22.2841 102.391 17.1863 102.375 12.5244 104.203C9.99228 105.192 6.2024 109.25 10.1935 111.111C11.3003 111.631 13.5641 111.329 14.7547 111.447C17.1024 111.698 19.4501 111.883 21.8313 111.933Z" fill="url(#paint1_linear_4_94)"/>
<path d="M93.1928 108.53C95.7249 108.598 98.2571 108.48 100.789 108.363C107.866 108.044 114.926 107.742 122.002 107.424C123.109 107.373 124.534 107.038 124.618 105.931C124.702 104.942 123.595 104.321 122.656 104.053C119.286 103.064 115.731 102.93 112.226 102.812C107.061 102.661 101.896 102.544 96.7143 102.477C93.4778 102.426 90.1743 102.426 87.139 103.584C85.4956 104.221 83.0306 106.82 85.6298 107.994C86.3509 108.329 87.8098 108.145 88.5979 108.212C90.1239 108.363 91.65 108.48 93.1928 108.53Z" fill="url(#paint2_linear_4_94)"/>
<path d="M93.1903 108.53C95.7225 108.598 98.2546 108.48 100.787 108.363C107.863 108.044 114.923 107.742 122 107.424C123.107 107.373 124.532 107.038 124.616 105.931C124.7 104.942 123.593 104.321 122.654 104.053C119.283 103.064 115.728 102.93 112.223 102.812C107.058 102.661 101.894 102.544 96.7118 102.477C93.4753 102.426 90.1718 102.426 87.1366 103.584C85.4932 104.221 83.0281 106.82 85.6274 107.994C86.3484 108.329 87.8074 108.145 88.5955 108.212C90.1215 108.363 91.6475 108.48 93.1903 108.53Z" fill="url(#paint3_linear_4_94)"/>
<path d="M104.134 4.26138C106.129 6.34077 106.397 9.49338 106.548 12.3777C106.8 17.1066 107.051 21.8523 107.303 26.5812C103.966 25.3403 102.004 21.9362 100.696 18.6326C99.086 14.5242 98.0799 10.03 99.0189 5.7203C99.2034 4.8483 99.522 3.926 100.26 3.40615C101.45 2.56769 103.144 3.22169 104.134 4.26138Z" fill="#E8D9A9"/>
<path d="M91.5744 76.7383C91.9433 81.7187 92.1278 86.6992 92.1278 91.6964C92.1278 93.4236 92.0942 95.2012 91.7756 96.8781C91.9936 97.3812 92.111 97.901 92.111 98.4712V98.5215C92.111 99.578 91.6918 100.601 90.9372 101.339C90.4341 101.842 89.8472 102.177 89.1764 102.362C89.1429 102.378 89.1261 102.378 89.0926 102.395C89.0758 102.395 89.0591 102.395 89.0423 102.412C88.3212 103.435 87.7007 104.475 87.5498 105.766C89.4112 105.011 91.2223 104.089 92.9663 102.999C93.6371 102.58 94.291 102.127 94.7941 101.473C95.7164 100.265 95.9512 98.5718 96.1524 96.9787L99.3554 71.7578L91.5744 76.7383Z" fill="#F2E4D7"/>
<path d="M87.7031 105.998C87.4516 106.116 87.2001 106.216 86.9318 106.266C86.6802 106.3 86.3952 106.283 86.1604 106.199C85.2549 105.881 84.8356 104.724 85.0871 103.785C85.3555 102.862 86.1436 102.158 87.0156 101.739C87.8876 101.32 88.8434 101.135 89.7825 100.884C90.2017 100.766 90.6378 100.632 90.9564 100.33C91.4762 99.827 91.5098 99.0054 91.4762 98.2675C91.4259 97.3117 91.3253 96.3726 91.1576 95.4335C92.8681 95.3329 94.5618 95.2491 96.2722 95.1484C96.1046 97.1943 95.9368 99.2234 95.7691 101.269C95.7356 101.571 95.7188 101.89 95.5679 102.175C95.3164 102.644 94.8133 102.879 94.327 103.097C92.1302 104.07 89.9167 105.042 87.7031 105.998Z" fill="#AA4A4D"/>
<path d="M99.3786 76.2032C99.7307 80.9824 100.318 89.1491 100.318 93.9451C100.318 95.6052 100.284 97.3157 99.9655 98.9255C100.167 99.4118 100.284 99.9149 100.284 100.451V100.502C100.284 101.508 99.8817 102.497 99.1606 103.218C98.6743 103.688 98.1209 104.023 97.4669 104.208C97.4502 104.225 97.4166 104.225 97.3998 104.241C97.3831 104.241 97.3663 104.241 97.3663 104.258C96.6788 105.231 96.0751 106.237 95.9409 107.478C97.7352 106.757 99.4625 105.868 101.139 104.812C101.777 104.409 102.414 103.99 102.9 103.353C103.789 102.196 104.024 100.569 104.208 99.0429L107.294 74.8281L99.3786 76.2032Z" fill="#F2E4D7"/>
<path d="M96.0886 107.679C95.8539 107.78 95.6023 107.897 95.3508 107.931C95.0993 107.964 94.8477 107.948 94.6129 107.864C93.7409 107.545 93.3385 106.438 93.59 105.55C93.8416 104.661 94.6129 103.99 95.4514 103.588C96.2899 103.185 97.2122 103.001 98.101 102.766C98.5034 102.649 98.9226 102.514 99.2245 102.229C99.7276 101.743 99.7611 100.955 99.7276 100.251C99.6773 99.345 99.5767 98.4395 99.409 97.5339C101.052 97.4501 102.679 97.3495 104.322 97.2656C104.155 99.2276 104.004 101.19 103.836 103.135C103.819 103.437 103.786 103.739 103.652 104.007C103.417 104.46 102.914 104.694 102.461 104.896C100.331 105.818 98.2016 106.757 96.0886 107.679Z" fill="#AA4A4D"/>
<path d="M89.528 26.5963C90.0478 26.395 90.6348 26.5795 91.1714 26.7304C92.9825 27.2838 94.9109 27.5186 96.8394 27.4683C98.0468 27.4347 99.338 27.2838 100.394 27.7869C101.434 28.29 101.988 29.2961 102.323 30.2687C103.027 32.2643 103.178 34.3772 103.614 36.4398C104.067 38.4856 104.822 40.4812 105.593 42.46C108.175 49.0335 110.993 55.5232 114.045 61.9458C116.476 67.0437 119.059 72.0912 121.943 77.0046C117.751 79.3523 112.82 80.6938 107.84 80.828C107.236 80.8447 106.616 80.8447 106.046 80.6603C105.123 80.3752 104.453 79.6709 103.648 79.1846C100.948 77.5747 97.3089 78.5138 94.0892 79.0169C91.5067 79.4193 88.874 79.5032 86.258 79.5535C85.0842 79.5703 83.7426 79.5367 82.9377 78.7989C81.8812 77.8263 82.3172 76.2667 82.7365 74.9755C84.7152 68.6703 84.0948 61.9961 84.1115 55.4561C84.1283 46.0989 85.5034 36.7249 88.656 27.7869C88.7901 27.3173 89.0081 26.7975 89.528 26.5963Z" fill="#FCEE9F"/>
<path d="M91.7234 4.1716C90.1806 3.5176 88.6043 2.98099 86.9945 2.56176C86.5082 2.4276 85.9883 2.32698 85.5188 2.47791C84.6468 2.74621 84.2611 3.76914 84.0766 4.65791C83.0704 9.43714 84.1102 14.4008 85.1499 19.1801C85.3679 20.1527 85.5858 21.1421 86.0889 21.9973C87.4975 24.3618 90.6166 24.9822 93.35 25.217C94.0543 25.2841 94.7586 25.3176 95.4294 25.1164C96.4859 24.781 97.2237 23.8419 97.7603 22.8693C99.1186 20.4378 99.6049 17.587 99.7055 14.7865C99.8397 11.3153 99.2695 7.47514 96.6871 5.14422C94.9263 3.55114 92.5451 2.93068 90.2477 2.36052C88.8726 2.00837 87.2125 1.7233 86.1895 2.69591L91.7234 4.1716Z" fill="#F2E4D7"/>
<path d="M96.8731 1.22365C93.6702 0.16719 90.0983 0.0162691 86.9793 1.29073C83.8602 2.56519 81.328 5.43273 80.892 8.76981C80.8417 9.1555 80.8417 9.5915 81.0932 9.87658C81.3448 10.1617 81.764 10.1952 82.1497 10.2287C85.0172 10.4132 87.9016 10.6144 90.7691 10.7989C90.8697 9.1052 91.7417 7.46182 93.0832 6.42212C94.3409 11.587 95.6825 16.9197 98.8183 21.2126C101.166 18.5798 103.061 15.4104 103.48 11.9057C103.916 8.40089 102.642 4.5775 99.7406 2.5652C98.8854 1.97827 97.896 1.55904 96.8731 1.22365Z" fill="#E8D9A9"/>
<path d="M100.593 4.59477C101.281 4.76246 101.985 4.93016 102.555 5.34939C103.126 5.76862 103.511 6.50646 103.31 7.17723C103.042 8.09954 101.784 8.41815 100.912 7.99892C100.04 7.57969 99.5202 6.69092 99.1345 5.81892C98.6649 4.72893 98.3295 3.5383 98.5475 2.38123C98.7655 1.22415 99.6711 0.134154 100.845 0C100.761 1.12354 100.442 2.2303 99.9058 3.21969C100.627 2.76692 101.398 2.29739 102.254 2.29739C103.109 2.31416 103.998 3.03523 103.847 3.87369C102.874 4.44384 101.717 4.71215 100.593 4.59477Z" fill="#AA3959"/>
<path d="M95.4011 39.8941C95.2669 38.1836 93.5565 36.5402 91.9299 37.0936C90.689 37.5129 90.1188 38.9047 89.5989 40.0953C86.9829 46.1155 82.0193 51.0289 76.0494 53.7287C74.8588 53.3765 73.6682 53.0076 72.4608 52.6555C72.3937 53.4436 72.6955 54.215 73.1986 54.8187C72.662 54.9864 72.1254 55.1373 71.5888 55.2715C71.1193 55.3889 70.5994 55.523 70.3814 55.959C70.1299 56.4621 70.4988 57.1161 71.0019 57.3676C71.5217 57.6024 72.1254 57.5521 72.6956 57.4682C81.0131 56.3112 88.6431 51.3978 93.59 44.6062C94.5962 43.1976 95.5352 41.6045 95.4011 39.8941Z" fill="#F2E4D7"/>
<path d="M63.925 51.9713C64.1598 52.7427 64.6964 53.3967 65.2833 53.9668C66.1889 54.8388 67.2621 55.5599 68.503 55.7444C69.9117 55.9624 71.3705 55.4257 72.4438 54.5034C73.517 53.5644 74.2213 52.2731 74.6238 50.9148C75.1269 49.2044 75.0933 47.1082 73.7685 45.9176C73.2152 45.4145 72.4941 45.1294 71.773 44.9114C69.9619 44.358 67.8322 44.1736 66.323 45.3307C65.3169 46.102 64.7802 47.3262 64.3442 48.5168C63.9418 49.6236 63.5896 50.8477 63.925 51.9713Z" fill="#98B99D"/>
<path d="M69.9937 45.7658C69.4571 47.8787 66.7572 48.8513 64.8288 49.0861C64.5102 49.1196 64.4934 49.5891 64.8288 49.5891C67.2771 49.6562 70.044 48.4153 70.9495 46.0173C71.1675 45.4471 70.1446 45.1453 69.9937 45.7658Z" fill="#F4F4F4"/>
<path d="M73.018 50.9313C70.6032 50.7468 68.5071 52.0548 67.6686 54.3354C67.5848 54.587 67.9873 54.7547 68.0879 54.5199C68.876 52.7591 70.9554 51.602 72.8671 52.0884C73.672 52.2728 73.8732 50.9816 73.018 50.9313Z" fill="#F4F4F4"/>
<path d="M38.868 94.3228C39.2033 95.0941 39.6561 95.8152 40.2095 96.4525C41.0479 96.1506 41.8193 95.6811 42.4733 95.0606C41.8864 93.5849 41.0647 92.1931 40.025 90.9857C39.3207 90.9521 38.7003 91.5726 38.5493 92.2602C38.3816 92.9645 38.5829 93.6855 38.868 94.3228Z" fill="#2F3F47"/>
<path d="M26.8958 99.1235C27.0803 98.8216 27.2815 98.5365 27.4827 98.2515C29.864 94.8305 35.3978 101.203 31.5409 103.836C28.9585 105.596 25.1183 103.701 26.2754 100.398C26.4263 99.9452 26.6443 99.5259 26.8958 99.1235Z" fill="#272525"/>
<path d="M29.9852 102.81C30.2367 102.743 30.5553 102.592 30.9074 102.357C34.8817 99.8588 38.6548 97.5447 41.5056 93.7213C42.8304 91.9437 39.2082 88.9253 37.3468 89.0259C35.0159 89.1433 32.3161 92.8661 31.0751 94.543C30.2702 95.633 27.0841 103.632 29.9852 102.81Z" fill="#EAF1F2"/>
<path d="M39.6531 104.687C40.2735 105.207 41.0281 105.509 41.7995 105.744C43.2417 106.18 44.818 106.364 46.2098 105.811C47.6017 105.258 48.7085 103.782 48.4569 102.306C48.088 100.177 45.4049 99.2039 44.7006 97.1748C44.2982 96.0178 44.5665 94.5588 43.6945 93.6868C43.3088 93.3179 42.7889 93.1335 42.2691 93.0328C41.2629 92.8148 40.2065 92.8149 39.2003 93.0161C38.6134 94.8104 38.2109 96.6718 38.0097 98.5499C37.7749 100.747 37.9426 103.279 39.6531 104.687Z" fill="#EAF1F2"/>
<path opacity="0.2" d="M42.4862 96.9915C42.5869 96.8909 42.6707 96.7567 42.7378 96.6226C42.8384 96.4381 42.9055 96.2537 42.9055 96.0524C42.9055 95.8847 42.8552 95.7338 42.8049 95.5829C42.7881 95.5326 42.7713 95.4655 42.7546 95.4152C42.721 95.3313 42.7043 95.2475 42.654 95.1637C42.5366 94.9624 42.3018 94.8618 42.0838 94.778C41.9329 94.7109 41.7652 94.6606 41.5975 94.6438C41.2118 94.6103 40.8429 94.845 40.6416 95.1637C40.4404 95.4823 40.4236 95.9015 40.5075 96.2704C40.6249 96.74 40.9602 97.176 41.4298 97.2934C41.7987 97.394 42.2179 97.2766 42.4862 96.9915Z" fill="#272525"/>
<path d="M42.2182 96.8899C42.3188 96.7893 42.4026 96.6552 42.4697 96.521C42.5703 96.3365 42.6374 96.1521 42.6374 95.9509C42.6374 95.7832 42.5871 95.6322 42.5368 95.4813C42.52 95.431 42.5033 95.3639 42.4865 95.3136C42.453 95.2298 42.4362 95.1459 42.3859 95.0621C42.2685 94.8609 42.0337 94.7603 41.8157 94.6764C41.6648 94.6093 41.4971 94.559 41.3294 94.5423C40.9437 94.5087 40.5748 94.7435 40.3736 95.0621C40.1723 95.3807 40.1556 95.7999 40.2394 96.1689C40.3568 96.6384 40.6922 97.0744 41.1617 97.1918C41.5306 97.2924 41.9666 97.175 42.2182 96.8899Z" fill="#83959E"/>
<path opacity="0.2" d="M41.6023 96.1714C41.6861 96.0876 41.7196 95.9702 41.7532 95.8528C41.77 95.8193 41.77 95.7689 41.77 95.7354C41.77 95.6683 41.7196 95.618 41.6861 95.5845C41.5519 95.4503 41.3339 95.4 41.1495 95.4671C40.965 95.5342 40.8477 95.7354 40.8812 95.9199C40.965 96.054 41.0657 96.1714 41.1998 96.2217C41.3172 96.272 41.4849 96.272 41.6023 96.1714Z" fill="black"/>
<path d="M2.68169 98.6028C3.85554 99.2232 5.06291 99.8437 6.38768 99.9946C7.79629 100.146 9.20491 99.7431 10.58 99.4412C11.2508 99.2903 11.8377 99.2735 12.5084 99.2735C13.0283 99.2735 13.5146 99.2065 13.917 99.6425C14.1686 99.9108 14.286 100.296 14.3363 100.665C14.4034 101.135 14.5375 102.141 14.1015 102.46C13.6655 102.778 12.5252 102.762 12.0054 102.829C10.5297 103.03 9.03718 103.114 7.56149 102.946C5.34795 102.711 3.15119 101.89 1.54134 100.33C1.27304 100.078 1.02149 99.7934 0.904104 99.4412C0.786719 99.0891 0.853821 98.6531 1.1389 98.4351C1.5749 98.0997 2.19538 98.3512 2.68169 98.6028Z" fill="#2F3F47"/>
<path d="M44.4125 75.2428C44.446 75.5447 44.4796 75.8633 44.5131 76.1651C44.8317 79.8376 37.4701 78.6302 38.6104 74.6559C39.3817 71.9896 43.0542 71.1344 44.1442 74.0187C44.2616 74.4211 44.3454 74.8404 44.4125 75.2428Z" fill="#272525"/>
<path d="M38.7966 89.1969C38.6457 89.918 38.5954 90.6726 38.6624 91.4272C39.4171 91.6452 40.222 91.6955 41.0101 91.5781C41.3623 90.2198 41.4629 88.7945 41.3287 87.3858C40.8424 87.0001 40.0878 87.1343 39.6183 87.5368C39.1488 87.9728 38.914 88.5932 38.7966 89.1969Z" fill="#2F3F47"/>
<path d="M40.2363 74.4911C40.1022 74.6923 39.9848 74.9606 39.8674 75.3128C38.5762 79.2535 37.3185 82.9595 37.5365 87.1518C37.6371 89.0971 41.8126 89.1138 43.02 87.9903C44.5292 86.5817 44.2777 82.5403 44.1603 80.6957C44.0932 79.5218 41.7288 72.2943 40.2363 74.4911Z" fill="#EAF1F2"/>
<path d="M38.5103 100.098C39.0637 100.534 39.7512 100.785 40.4388 100.953C41.73 101.288 43.1219 101.406 44.346 100.869C45.5534 100.333 46.4757 98.991 46.2074 97.6998C45.8049 95.8384 43.407 95.067 42.7194 93.2895C42.3337 92.2833 42.5182 90.9753 41.7133 90.2542C41.3611 89.9356 40.8915 89.8015 40.4388 89.7176C39.5332 89.5667 38.6109 89.6002 37.7222 89.8182C37.2526 91.4281 36.9676 93.0715 36.8502 94.7484C36.7328 96.6768 36.9676 98.9072 38.5103 100.098Z" fill="#EAF1F2"/>
<path opacity="0.2" d="M40.7525 93.203C40.8364 93.1024 40.9035 92.985 40.9538 92.8676C41.0376 92.6999 41.0879 92.5322 41.0879 92.3478C41.0879 92.2136 41.0376 92.0627 40.9873 91.9453C40.9706 91.895 40.9538 91.8447 40.937 91.7944C40.9035 91.7273 40.8867 91.6435 40.8364 91.5764C40.719 91.4087 40.5178 91.3248 40.3165 91.2578C40.1824 91.2075 40.0315 91.1572 39.8806 91.1572C39.5452 91.1404 39.2265 91.3584 39.0588 91.6602C38.8911 91.9621 38.8912 92.3142 38.975 92.6329C39.0924 93.0353 39.411 93.4042 39.8303 93.5048C40.1656 93.5887 40.5345 93.4713 40.7525 93.203Z" fill="#272525"/>
<path d="M40.5187 93.1171C40.6025 93.0165 40.6696 92.8991 40.7199 92.7817C40.8037 92.614 40.854 92.4463 40.854 92.2618C40.854 92.1277 40.8037 91.9768 40.7534 91.8594C40.7366 91.8091 40.7199 91.7588 40.7031 91.7085C40.6696 91.6414 40.6528 91.5575 40.6025 91.4904C40.4851 91.3228 40.2839 91.2389 40.0826 91.1718C39.9485 91.1215 39.7975 91.0712 39.6466 91.0712C39.3112 91.0544 38.9926 91.2725 38.8249 91.5743C38.6573 91.8761 38.6573 92.2283 38.7411 92.5469C38.8585 92.9494 39.1771 93.3183 39.5963 93.4189C39.9317 93.5028 40.3007 93.3854 40.5187 93.1171Z" fill="#83959E"/>
<path opacity="0.2" d="M39.951 92.4984C40.018 92.4146 40.0515 92.314 40.0683 92.2133C40.0683 92.1798 40.0851 92.1463 40.0683 92.0959C40.0515 92.0456 40.018 91.9953 39.9845 91.9618C39.8503 91.8444 39.6659 91.8109 39.5149 91.8779C39.364 91.945 39.2634 92.1295 39.2801 92.2972C39.364 92.3978 39.4479 92.4984 39.582 92.5487C39.6994 92.6158 39.8503 92.599 39.951 92.4984Z" fill="black"/>
<path d="M19.3027 106.868C20.0909 107.237 20.9126 107.556 21.7343 107.824C25.7924 109.149 29.4984 108.88 31.4101 105.007C31.9635 103.9 32.7684 102.944 33.4895 101.888C35.0323 99.6406 36.3067 97.2258 37.3632 94.7105C39.5097 89.6294 40.8177 84.2465 42.0921 78.8971C42.4443 77.3711 42.8132 75.8283 42.7964 74.252C42.7796 71.9546 41.4381 68.4163 39.3587 67.0077C38.1346 66.186 36.6589 65.8171 35.2167 65.4649C34.5627 65.314 33.8752 65.1463 33.2212 65.1966C32.5169 65.2469 31.8629 65.532 31.2927 65.9009C28.3581 67.6785 26.9998 71.0155 25.5744 74.0508C23.5957 78.2598 21.1641 82.2677 18.4642 86.0911C16.7538 88.5058 14.9259 90.8703 13.8527 93.6037C12.7795 96.3371 12.528 99.5568 13.9869 102.24C15.0937 104.336 17.0724 105.828 19.3027 106.868Z" fill="#E2ECED"/>
<path d="M40.0599 69.2253C39.9592 68.6719 39.5735 68.2191 39.1711 67.8334C37.8799 66.559 36.2532 65.6367 34.5092 65.1336C34.2912 65.0665 34.0565 65.0162 33.8217 65.0497C33.1677 65.1336 32.8156 65.8211 32.5808 66.4248C32.0777 67.6825 31.5579 68.9402 31.0548 70.1979C30.7026 71.0531 30.3505 71.9587 30.4678 72.8642C31.1722 72.8139 31.8933 72.7636 32.5808 72.6127C33.2683 72.4617 33.9391 72.2102 34.6266 72.076C35.3813 71.9419 36.1694 71.9587 36.9408 71.8748C37.7122 71.8077 38.5003 71.64 39.1376 71.204C39.758 70.768 40.2108 69.9799 40.0599 69.2253Z" fill="#2F3F47"/>
<path opacity="0.37" d="M43.937 74.7734C44.0376 75.1087 44.1047 75.4609 44.1885 75.7963C45.0941 79.8712 36.6423 79.6029 37.3299 74.9914C37.7826 71.8891 41.7905 70.3798 43.4339 73.4654C43.6519 73.8678 43.8196 74.3038 43.937 74.7734Z" fill="#272525"/>
<path d="M39.0396 91.9122C38.9725 92.7507 39.0396 93.6059 39.224 94.4276C40.1128 94.5618 41.0184 94.4947 41.8736 94.2599C42.0581 92.6836 41.9742 91.0738 41.6221 89.5143C41.0184 89.1453 40.1799 89.4136 39.7271 89.9502C39.2576 90.4701 39.0899 91.2079 39.0396 91.9122Z" fill="#2F3F47"/>
<path d="M39.1584 74.5206C39.041 74.7554 38.9403 75.0908 38.8565 75.51C38.0012 80.1215 37.1293 84.4648 38.0013 89.1434C38.4037 91.3234 43.0823 90.7029 44.2729 89.2775C45.7654 87.4832 44.8766 82.9723 44.4742 80.9264C44.2226 79.6017 40.4999 71.8375 39.1584 74.5206Z" fill="#EAF1F2"/>
<path d="M41.0363 103.531C41.7239 103.933 42.5288 104.101 43.3337 104.202C44.8262 104.386 46.4193 104.302 47.6937 103.514C48.9682 102.726 49.8066 101.099 49.3036 99.674C48.5825 97.645 45.7652 97.1419 44.7255 95.247C44.1386 94.1737 44.1554 92.6813 43.1492 91.977C42.7132 91.6751 42.1599 91.5913 41.64 91.5745C40.6171 91.541 39.5774 91.7087 38.6048 92.0776C38.3197 93.939 38.2359 95.8507 38.37 97.7288C38.5042 99.9591 39.1079 102.424 41.0363 103.531Z" fill="#EAF1F2"/>
<path opacity="0.2" d="M42.5142 95.4712C42.598 95.3538 42.6483 95.2029 42.6986 95.0688C42.7657 94.8676 42.7993 94.6663 42.7657 94.4651C42.7322 94.3142 42.6651 94.1632 42.5812 94.0291C42.5477 93.9788 42.5309 93.9285 42.4974 93.8782C42.4471 93.7943 42.4136 93.7273 42.3465 93.6602C42.1956 93.4925 41.944 93.4254 41.7093 93.3751C41.5416 93.3415 41.3739 93.308 41.2062 93.3248C40.8205 93.3583 40.5019 93.6434 40.3677 94.0123C40.2336 94.3645 40.2671 94.7669 40.418 95.1191C40.6193 95.5551 41.0217 95.924 41.508 95.9743C41.9105 95.9911 42.313 95.7898 42.5142 95.4712Z" fill="#272525"/>
<path d="M42.2471 95.4009C42.331 95.2835 42.3812 95.1326 42.4315 94.9984C42.4986 94.7972 42.5322 94.596 42.4986 94.3948C42.4651 94.2438 42.398 94.0929 42.3141 93.9588C42.2806 93.9085 42.2639 93.8582 42.2303 93.8078C42.18 93.724 42.1465 93.6569 42.0794 93.5898C41.9285 93.4221 41.6769 93.3551 41.4422 93.3048C41.2745 93.2712 41.1068 93.2377 40.9391 93.2545C40.5534 93.288 40.2348 93.5731 40.1006 93.942C39.9665 94.2942 40 94.6966 40.151 95.0488C40.3522 95.4848 40.7546 95.8537 41.2409 95.904C41.6434 95.9208 42.0459 95.7363 42.2471 95.4009Z" fill="#83959E"/>
<path opacity="0.2" d="M41.5068 94.7974C41.5738 94.6968 41.5906 94.5794 41.5906 94.4453C41.5906 94.4117 41.5906 94.3614 41.5738 94.3279C41.557 94.2776 41.5068 94.2273 41.4565 94.1937C41.3055 94.0931 41.0707 94.0764 40.9198 94.177C40.7521 94.2776 40.6683 94.4956 40.7186 94.6801C40.8192 94.7974 40.9366 94.8813 41.0875 94.9316C41.2385 94.9484 41.4061 94.9148 41.5068 94.7974Z" fill="black"/>
<path d="M30.6368 64.09C30.8715 64.9788 31.1399 65.8843 31.71 66.6054C33.1354 68.3997 35.8352 68.2991 38.1158 68.0475C40.6983 67.7457 43.2808 67.4606 45.88 67.1588C48.7308 66.8402 51.7996 66.4209 53.879 64.4422C55.5559 62.8491 56.2937 60.1492 55.1702 58.1369C54.5833 57.0637 53.5603 56.3091 52.5542 55.6383C49.2171 53.4248 45.4943 51.8317 41.5871 50.9094C38.0152 50.0709 33.7391 50.0541 31.3243 52.8043C30.0331 54.28 29.53 56.3426 29.5636 58.3046C29.5971 60.2666 30.1169 62.1783 30.6368 64.09Z" fill="#EAF1F2"/>
<path d="M50.9621 58.1036C51.3813 57.6509 51.7503 57.1646 52.0521 56.6112C52.2533 56.2255 52.4043 55.7559 52.2031 55.3702C52.0689 55.1187 51.8174 54.9846 51.5658 54.8504C48.1114 52.9555 44.4221 51.4798 40.6323 50.4233C40.0956 50.2724 39.5423 50.1383 39.0056 50.2556C37.6473 50.5575 37.53 53.0561 37.1946 54.1461C36.9263 55.0181 36.5741 55.8901 36.1549 56.695C35.7357 57.5335 34.7966 58.4055 34.5115 59.2607C34.0084 60.7364 36.7083 62.7655 37.8486 63.4866C38.5362 63.9058 39.2907 64.2579 40.0789 64.325C41.454 64.4256 42.7284 63.671 43.9023 62.9499C45.0929 62.2121 46.2667 61.491 47.4574 60.7532C48.6815 59.965 49.9727 59.1601 50.9621 58.1036Z" fill="#2F3F47"/>
<path opacity="0.25" d="M27.4543 68.7385C27.7394 68.7385 28.0413 68.705 28.3096 68.6043C28.6785 68.4534 28.9635 68.1683 29.2151 67.8833C30.7075 66.2063 31.6802 64.0767 32.0156 61.8631C32.2168 60.5048 32.1832 59.0794 32.6695 57.805C32.9043 57.1677 33.29 56.5137 33.1559 55.8597C32.9882 55.0716 32.1329 54.5853 31.328 54.6188C30.5231 54.6524 29.7853 55.0716 29.148 55.5411C25.9116 57.9391 24.0502 62.0643 24.4023 66.089C24.4526 66.6591 24.5532 67.246 24.8718 67.7156C25.4252 68.4702 26.4817 68.7385 27.4543 68.7385Z" fill="#272525"/>
<path d="M26.447 68.8401C26.7321 68.8401 27.0339 68.8065 27.3022 68.7059C27.6712 68.555 27.9563 68.2699 28.2078 67.9848C29.7003 66.3079 30.6728 64.1782 31.0082 61.9647C31.2095 60.6064 31.176 59.181 31.6623 57.9065C31.897 57.2693 32.2827 56.6153 32.1485 55.9613C31.9808 55.1732 31.1256 54.6868 30.3207 54.7204C29.5158 54.7539 28.7779 55.1732 28.1407 55.6427C24.9042 58.0407 23.0428 62.1659 23.395 66.1905C23.4453 66.7607 23.5459 67.3476 23.8645 67.8172C24.4179 68.5718 25.4744 68.8569 26.447 68.8401Z" fill="#EAF1F2"/>
<path opacity="0.2" d="M36.7376 61.311C36.855 61.2439 36.9723 61.16 37.0729 61.0762C37.2071 60.9588 37.3413 60.8079 37.4083 60.6402C37.4586 60.506 37.4587 60.3551 37.4754 60.2042C37.4754 60.1539 37.4754 60.1036 37.4754 60.0533C37.4754 59.9694 37.4754 59.8856 37.4586 59.8185C37.4251 59.6005 37.2574 59.4496 37.0897 59.2987C36.9723 59.1981 36.8549 59.0974 36.7208 59.0304C36.4022 58.8794 36.0165 58.9633 35.7314 59.1645C35.4631 59.3825 35.2954 59.7179 35.2619 60.07C35.2116 60.506 35.3625 60.9924 35.7146 61.2439C36.0165 61.4284 36.419 61.4619 36.7376 61.311Z" fill="#272525"/>
<path d="M36.5559 61.1402C36.6733 61.0732 36.7907 60.9893 36.8913 60.9055C37.0255 60.7881 37.1596 60.6372 37.2267 60.4695C37.277 60.3353 37.277 60.1844 37.2938 60.0335C37.2938 59.9832 37.2938 59.9329 37.2938 59.8825C37.2938 59.7987 37.2938 59.7149 37.277 59.631C37.2435 59.413 37.0758 59.2621 36.9081 59.1112C36.7907 59.0106 36.6733 58.9099 36.5391 58.8429C36.2205 58.6919 35.8348 58.7758 35.5498 58.977C35.2815 59.195 35.1138 59.5304 35.0802 59.8825C35.0299 60.3185 35.1809 60.8049 35.533 61.0564C35.8349 61.2576 36.2373 61.2912 36.5559 61.1402Z" fill="#83959E"/>
<path opacity="0.2" d="M36.2546 60.3026C36.3552 60.2691 36.4223 60.1685 36.4893 60.0679C36.5061 60.0343 36.5229 60.0008 36.5396 59.9673C36.5564 59.9169 36.5397 59.8499 36.5061 59.7996C36.439 59.6319 36.2546 59.5312 36.0869 59.5312C35.9192 59.5312 35.7347 59.6654 35.7012 59.8331C35.7347 59.9673 35.785 60.1014 35.8689 60.202C35.9863 60.3026 36.1372 60.3529 36.2546 60.3026Z" fill="black"/>
<path d="M38.9192 97.059C39.1205 97.8806 39.4559 98.6688 39.8751 99.3899C40.7471 99.239 41.6023 98.9036 42.3402 98.3837C42.0216 96.8242 41.4346 95.3149 40.5962 93.9566C39.9086 93.8057 39.2043 94.3088 38.936 94.9628C38.6677 95.6336 38.7516 96.3714 38.9192 97.059Z" fill="#2F3F47"/>
<path d="M36.9243 109.185C37.4441 109.789 38.1484 110.225 38.8527 110.577C40.1943 111.248 41.737 111.701 43.196 111.382C44.6717 111.064 45.9964 109.806 45.9964 108.297C45.9964 106.15 43.4978 104.725 43.1624 102.612C42.9612 101.405 43.4811 100.013 42.76 99.0065C42.4582 98.5705 41.955 98.319 41.4687 98.1178C40.5129 97.7321 39.4732 97.5644 38.4503 97.5979C37.5615 99.2749 36.8572 101.036 36.3541 102.847C35.7504 104.993 35.4989 107.509 36.9243 109.185Z" fill="#EAF1F2"/>
<path opacity="0.2" d="M41.0133 102.074C41.1307 101.99 41.2313 101.873 41.3152 101.755C41.4325 101.588 41.5499 101.42 41.5835 101.219C41.617 101.068 41.5835 100.9 41.5667 100.732C41.5499 100.682 41.5499 100.615 41.5332 100.565C41.5164 100.481 41.4996 100.38 41.4661 100.313C41.3822 100.095 41.1642 99.9611 40.963 99.8269C40.8121 99.7431 40.6612 99.6592 40.4935 99.6089C40.1246 99.5251 39.7221 99.676 39.4705 99.9778C39.219 100.263 39.1352 100.665 39.152 101.034C39.1855 101.521 39.4538 101.99 39.8898 102.191C40.2587 102.359 40.7115 102.309 41.0133 102.074Z" fill="#272525"/>
<path d="M40.7821 101.926C40.8995 101.842 41.0001 101.724 41.0839 101.607C41.2013 101.439 41.3187 101.272 41.3523 101.07C41.3858 100.919 41.3522 100.752 41.3187 100.584C41.3019 100.534 41.3019 100.467 41.2852 100.416C41.2684 100.332 41.2516 100.232 41.2181 100.165C41.1342 99.9468 40.9163 99.8126 40.715 99.6785C40.5641 99.5946 40.4132 99.5108 40.2455 99.4605C39.8766 99.3766 39.4741 99.5275 39.2225 99.8294C38.971 100.114 38.8871 100.517 38.9039 100.886C38.9375 101.372 39.2058 101.842 39.6418 102.043C40.0442 102.211 40.4803 102.16 40.7821 101.926Z" fill="#83959E"/>
<path opacity="0.2" d="M40.2759 101.1C40.3765 101.033 40.4268 100.916 40.4771 100.798C40.4939 100.765 40.5107 100.714 40.5107 100.681C40.5107 100.614 40.4772 100.564 40.4436 100.513C40.3262 100.362 40.125 100.278 39.9406 100.312C39.7561 100.346 39.6051 100.53 39.5884 100.714C39.6555 100.849 39.7225 100.983 39.8567 101.067C39.9741 101.167 40.1585 101.184 40.2759 101.1Z" fill="black"/>
<path opacity="0.37" d="M24.5841 99.5565C24.8524 99.3385 25.1375 99.1205 25.4226 98.9193C28.7764 96.4207 31.9961 104.235 27.5019 105.51C24.4835 106.365 21.465 103.346 23.5947 100.563C23.8798 100.194 24.2152 99.8583 24.5841 99.5565Z" fill="#272525"/>
<path d="M26.3271 104.034C26.5954 104.051 26.9308 104.001 27.3501 103.9C31.9113 102.794 36.221 101.787 40.145 99.0875C41.9561 97.8298 39.4742 93.8052 37.6966 93.3189C35.4496 92.6984 31.71 95.3648 29.9996 96.5554C28.876 97.3268 23.3254 103.9 26.3271 104.034Z" fill="#EAF1F2"/>
</g>
<defs>
<linearGradient id="paint0_linear_4_94" x1="8.58126" y1="106.077" x2="70.0908" y2="109.106" gradientUnits="userSpaceOnUse">
<stop stop-color="#4D4D4D"/>
<stop offset="1"/>
</linearGradient>
<linearGradient id="paint1_linear_4_94" x1="8.58028" y1="106.077" x2="70.0898" y2="109.106" gradientUnits="userSpaceOnUse">
<stop/>
<stop offset="1"/>
</linearGradient>
<linearGradient id="paint2_linear_4_94" x1="84.5833" y1="104.767" x2="124.585" y2="106.739" gradientUnits="userSpaceOnUse">
<stop stop-color="#4D4D4D"/>
<stop offset="1"/>
</linearGradient>
<linearGradient id="paint3_linear_4_94" x1="84.5809" y1="104.767" x2="124.583" y2="106.739" gradientUnits="userSpaceOnUse">
<stop/>
<stop offset="1"/>
</linearGradient>
<clipPath id="clip0_4_94">
<rect width="125" height="112" fill="white"/>
</clipPath>
</defs>
</svg>
