<svg width="182" height="190" viewBox="0 0 182 190" fill="none" xmlns="http://www.w3.org/2000/svg">
<g clip-path="url(#clip0_7_38)">
<path d="M128.6 186.051C132.892 186.202 137.185 186.118 141.478 186.034C153.452 185.816 165.442 185.598 177.415 185.38C179.276 185.346 181.691 184.944 181.825 183.519C181.942 182.244 180.048 181.439 178.454 181.054C172.719 179.695 166.683 179.427 160.729 179.192C151.959 178.857 143.189 178.572 134.418 178.354C128.935 178.219 123.317 178.119 118.219 179.528C115.436 180.299 111.327 183.569 115.754 185.162C116.978 185.598 119.46 185.397 120.785 185.514C123.367 185.766 125.984 185.967 128.6 186.051Z" fill="url(#paint0_linear_7_38)"/>
<path d="M128.593 186.051C132.886 186.202 137.179 186.118 141.472 186.034C153.445 185.816 165.435 185.598 177.408 185.38C179.269 185.346 181.684 184.944 181.818 183.519C181.936 182.244 180.041 181.439 178.448 181.054C172.713 179.695 166.676 179.427 160.723 179.192C151.952 178.857 143.182 178.572 134.412 178.354C128.928 178.219 123.311 178.119 118.213 179.528C115.429 180.299 111.32 183.569 115.747 185.162C116.972 185.598 119.453 185.397 120.778 185.514C123.361 185.766 125.977 185.967 128.593 186.051Z" fill="url(#paint1_linear_7_38)"/>
<path d="M150.578 177.586C150.595 177.67 150.612 177.753 150.679 177.821C150.762 177.921 150.913 177.921 151.047 177.921C151.987 177.904 152.942 177.837 153.865 177.67C154.267 177.603 154.753 177.435 154.837 177.032C154.871 176.848 154.804 176.647 154.737 176.479C154.334 175.423 153.932 174.366 153.529 173.31C153.513 173.276 153.496 173.226 153.462 173.209C153.412 173.175 153.345 173.159 153.294 173.159C152.624 173.142 151.953 173.209 151.282 173.343C150.863 173.427 150.075 173.477 149.874 173.93C149.672 174.366 150.008 175.104 150.108 175.54C150.276 176.211 150.427 176.898 150.578 177.586Z" fill="#F9E9DE"/>
<path d="M127.701 177.583C128.607 177.633 129.512 177.684 130.401 177.751C130.485 177.751 130.585 177.751 130.652 177.701C130.736 177.633 130.736 177.533 130.753 177.432C130.803 176.258 130.77 175.085 130.669 173.911C130.669 173.827 130.652 173.726 130.602 173.659C130.535 173.575 130.418 173.542 130.3 173.508C129.781 173.391 129.261 173.273 128.724 173.273C128.305 173.273 127.819 173.34 127.45 173.558C127.064 173.793 127.131 173.944 127.198 174.347C127.383 175.42 127.5 176.493 127.701 177.583Z" fill="#F9E9DE"/>
<path d="M148.851 173.931C150.712 174.333 152.691 174.098 154.401 173.277C152.473 166.787 151.903 164.875 149.991 158.385C149.387 156.34 148.767 154.26 148.515 152.147C148.213 149.531 148.465 146.882 148.716 144.266C149.689 134.104 152.171 100.431 153.144 90.2857C153.227 89.4304 153.311 88.5584 153.043 87.7367C152.288 85.4058 145.53 85.0033 143.082 84.8021C142.545 84.7518 138.538 84.735 138.102 85.0369C137.599 85.389 133.624 84.6679 133.54 85.2716C132.366 93.237 136.794 109.989 136.861 118.525C136.877 121.359 138.018 139.503 138.236 142.337C138.621 147.318 140.164 152.583 142.244 157.145C145.43 164.154 145.849 165.747 148.851 173.931Z" fill="#ED8043"/>
<path d="M135.066 86.2215C134.462 85.7352 128.442 85.2824 127.671 85.2656L118.079 85.4166C117.861 100.911 120.946 143.455 123.914 158.665C125.189 165.221 126.648 167.435 126.665 174.109C128.073 174.109 129.465 174.109 130.874 174.109C131.343 153.215 136.575 109.749 137.062 88.8543C137.078 87.8146 135.888 86.8923 135.066 86.2215Z" fill="#ED8043"/>
<path d="M129.832 37.5774C128.474 33.0665 123.343 32.4292 122.454 38.2481C121.649 43.5137 117.775 54.5814 115.562 59.7463C114.505 62.2282 112.443 64.1399 109.558 65.2131C103.823 67.3428 98.2559 69.8582 92.4202 71.7364C92.437 71.7699 92.437 71.7866 92.437 71.8202C91.4644 72.2059 90.4078 72.4071 89.3513 72.4071C87.9762 72.4071 86.5005 72.0885 85.3266 72.7425C85.3937 72.8934 85.4608 73.0443 85.5447 73.212C85.8297 73.2623 86.098 73.3126 86.3831 73.3461C85.7123 73.4971 85.0585 73.7486 84.4548 74.084C83.8679 74.4194 83.2976 74.9896 83.4821 75.5933C83.6833 76.1969 84.4882 76.3646 85.159 76.3814C87.9762 76.4652 90.7097 75.61 93.376 74.671C100.771 73.1953 105.852 70.6463 113.298 69.1874C114.74 68.9023 116.249 68.6005 117.507 67.8459C118.731 67.108 119.586 66.0347 120.341 64.9615C125.355 57.8178 132.029 44.8049 129.832 37.5774Z" fill="#F9E9DE"/>
<path d="M141.121 28.2396C142.161 27.1496 142.966 25.6069 143.402 23.6952C144.206 20.1569 144.626 16.4341 143.771 12.9629C142.781 8.97182 139.276 4.64532 134.849 5.01424C129.668 5.43347 128.88 12.2083 128.494 16.736C128.175 20.3246 128.812 24.1144 130.925 26.8813C134.112 31.0066 138.404 31.1239 141.121 28.2396Z" fill="#F9E9DE"/>
<path d="M120.345 177.016C121.166 177.033 122.005 177.084 122.827 177.218C123.799 177.352 124.772 177.587 125.744 177.486C126.18 177.436 126.6 177.335 127.036 177.268C127.706 177.167 128.377 177.184 129.048 177.184C129.668 177.201 130.289 177.201 130.909 177.218C131.077 177.218 131.278 177.234 131.412 177.335C131.563 177.452 131.614 177.637 131.647 177.821C131.798 178.509 131.882 179.213 131.882 179.917C131.882 180.337 131.848 180.806 131.563 181.108C131.362 181.326 131.06 181.444 130.775 181.527C130.222 181.662 129.652 181.695 129.081 181.729C126.147 181.896 123.195 182.047 120.261 181.863C119.238 181.796 117.376 181.947 116.622 181.125C115.985 180.437 116.303 179.331 116.689 178.61C117.427 177.234 118.936 177 120.345 177.016Z" fill="#537082"/>
<path d="M121.714 179.563C121.916 179.63 122.15 179.664 122.368 179.647C122.402 179.647 122.435 179.63 122.469 179.613C122.502 179.58 122.502 179.546 122.502 179.496C122.553 178.758 122.57 178.003 122.536 177.266C122.536 177.232 122.536 177.199 122.519 177.165C122.502 177.131 122.452 177.115 122.402 177.098C121.731 176.93 121.765 177.115 121.765 177.735C121.765 178.339 121.748 178.959 121.714 179.563Z" fill="#C1C1C1"/>
<path d="M124.016 179.211C124.016 179.279 124.016 179.346 124.066 179.396C124.117 179.429 124.184 179.429 124.234 179.413C124.418 179.379 124.603 179.362 124.787 179.329C124.821 179.329 124.854 179.312 124.871 179.295C124.905 179.262 124.905 179.228 124.905 179.178C124.921 178.557 124.921 177.937 124.921 177.317C124.921 177.283 124.921 177.249 124.905 177.233C124.888 177.199 124.854 177.199 124.821 177.182C124.536 177.099 124.267 177.249 124.016 177.182C123.982 177.853 124.016 178.541 124.016 179.211Z" fill="#C1C1C1"/>
<path d="M126.242 179.088C126.242 179.122 126.259 179.155 126.275 179.172C126.292 179.189 126.326 179.189 126.359 179.189C126.493 179.189 126.644 179.189 126.778 179.189C126.846 179.189 126.913 179.189 126.963 179.139C126.996 179.105 126.996 179.055 127.013 179.004C127.047 178.602 127.097 176.808 126.292 177.143C125.739 177.361 126.158 178.669 126.242 179.088Z" fill="#C1C1C1"/>
<path d="M149.875 178.004C150.109 177.602 150.378 177.199 150.746 176.914C151.132 176.612 151.602 176.428 152.071 176.277C152.675 176.092 153.312 175.975 153.949 176.059C154.922 176.193 155.794 176.847 156.348 177.669C156.901 178.49 157.186 179.463 157.32 180.452C157.354 180.67 157.37 180.905 157.303 181.123C157.219 181.341 157.052 181.492 156.85 181.626C156.247 182.029 155.509 182.18 154.788 182.263C153.715 182.398 152.625 182.448 151.535 182.498C151.032 182.515 150.495 182.532 150.009 182.364C149.237 182.096 148.835 181.626 148.952 180.838C149.103 179.832 149.372 178.893 149.875 178.004Z" fill="#537082"/>
<path d="M125.288 43.2082C123.644 56.372 120.173 69.2173 117.39 82.1967C117.121 83.4544 116.853 84.7623 117.205 86.0033C117.691 87.7305 119.284 88.9546 120.978 89.5751C122.806 90.2626 124.785 90.3968 126.73 90.5142C133.958 90.9166 141.202 90.9166 148.413 90.5142C149.402 90.4639 150.425 90.3969 151.314 89.9441C152.84 89.1895 153.695 87.4623 153.879 85.7686C154.081 84.0749 153.728 82.3811 153.46 80.6874C151.85 70.5085 153.091 60.0277 151.297 49.8656C150.794 46.9645 150.039 44.097 149.804 41.1623C149.67 39.4687 149.721 37.7582 149.368 36.1148C149.016 34.4547 148.178 32.8113 146.719 31.9393C144.069 30.363 140.749 31.9225 137.697 32.3418C135.668 32.6101 133.605 32.3418 131.627 31.8722C130.101 31.5201 128.575 30.4636 127.468 31.8554C125.472 34.3876 125.674 40.173 125.288 43.2082Z" fill="#EFEFEF"/>
<path d="M125.116 60.2812C123.204 60.2812 123.204 63.2494 125.116 63.2494C127.028 63.2327 127.028 60.2812 125.116 60.2812Z" fill="#333333"/>
<path d="M129.14 52.6875C127.228 52.6875 127.228 55.6556 129.14 55.6556C131.052 55.6389 131.052 52.6875 129.14 52.6875Z" fill="#333333"/>
<path d="M132.61 64.2266C130.698 64.2266 130.698 67.1947 132.61 67.1947C134.522 67.178 134.522 64.2266 132.61 64.2266Z" fill="#333333"/>
<path d="M135.126 46.6797C133.214 46.6797 133.214 49.6479 135.126 49.6479C137.037 49.6311 137.037 46.6797 135.126 46.6797Z" fill="#333333"/>
<path d="M122.786 72.1562C120.875 72.1562 120.875 75.1243 122.786 75.1243C124.681 75.1076 124.698 72.1562 122.786 72.1562Z" fill="#333333"/>
<path d="M138.92 56.9922C137.008 56.9922 137.008 59.9604 138.92 59.9604C140.832 59.9604 140.832 56.9922 138.92 56.9922Z" fill="#333333"/>
<path d="M121.345 83.2734C119.433 83.2734 119.433 86.2416 121.345 86.2416C123.257 86.2416 123.257 83.2734 121.345 83.2734Z" fill="#333333"/>
<path d="M129.679 76.0781C127.768 76.0781 127.768 79.0463 129.679 79.0463C131.574 79.0295 131.574 76.0781 129.679 76.0781Z" fill="#333333"/>
<path d="M136.338 83.7891C134.426 83.7891 134.426 86.7571 136.338 86.7571C138.233 86.7404 138.25 83.7891 136.338 83.7891Z" fill="#333333"/>
<path d="M138.92 72.1562C137.008 72.1562 137.008 75.1243 138.92 75.1243C140.832 75.1076 140.832 72.1562 138.92 72.1562Z" fill="#333333"/>
<path d="M150.572 83.7891C148.66 83.7891 148.66 86.7571 150.572 86.7571C152.467 86.7404 152.467 83.7891 150.572 83.7891Z" fill="#333333"/>
<path d="M150.572 70.4915C152.484 70.4915 152.484 67.5234 150.572 67.5234C148.66 67.5402 148.66 70.4915 150.572 70.4915Z" fill="#333333"/>
<path d="M129.679 41.0625C127.768 41.0625 127.768 44.0307 129.679 44.0307C131.574 44.0139 131.574 41.0625 129.679 41.0625Z" fill="#333333"/>
<path d="M136.338 37.5932C138.25 37.5932 138.25 34.625 136.338 34.625C134.426 34.625 134.426 37.5932 136.338 37.5932Z" fill="#333333"/>
<path d="M145.293 32.5625C143.381 32.5625 143.381 35.5306 145.293 35.5306C147.204 35.5306 147.204 32.5625 145.293 32.5625Z" fill="#333333"/>
<path d="M149.131 49.5C147.219 49.5 147.219 52.4682 149.131 52.4682C151.042 52.4682 151.042 49.5 149.131 49.5Z" fill="#333333"/>
<path d="M133.824 89.598C131.711 85.3722 130.755 80.7271 129.648 76.1491C128.474 71.2525 127.401 66.3392 126.73 61.3419C126.11 56.6633 125.808 51.9679 125.791 47.2557C125.774 44.9751 125.842 42.7113 125.976 40.4474C126.076 38.6867 125.875 30.7716 129.548 32.0293C129.816 32.1299 130.017 31.6939 129.749 31.5598C126.714 30.017 125.707 33.6224 125.422 35.9198C124.651 42.3089 124.534 48.7985 124.986 55.2044C125.406 61.2078 126.361 67.144 127.686 73.0133C128.994 78.7986 130.151 84.8523 132.818 90.2017C133.153 90.8725 134.159 90.2856 133.824 89.598Z" fill="#BC6269"/>
<path d="M152.307 57.6666C152.206 57.3479 151.736 57.4821 151.803 57.8007C153.849 68.5498 156.046 79.3324 151.988 89.9138C151.72 90.6348 152.877 90.9535 153.145 90.2324C157.17 79.7181 155.577 68.1641 152.307 57.6666Z" fill="#BC6269"/>
<path d="M147.931 86.5305C149.138 86.4131 150.463 86.3125 151.469 86.9833C152.626 87.7379 153.029 89.2472 153.28 90.6055C154.085 94.9487 154.454 99.3758 154.37 103.786C154.354 104.49 154.32 105.228 154.018 105.865C153.549 106.821 152.543 107.375 151.553 107.777C147.378 109.471 142.733 109.37 138.222 109.236C137.769 109.219 137.282 109.203 136.897 108.968C136.276 108.599 136.058 107.811 135.891 107.09C134.784 102.042 133.962 96.9274 133.442 91.7793C133.359 90.9408 133.275 90.0688 133.51 89.2639C134.348 86.2119 145.08 86.8156 147.931 86.5305Z" fill="#AA4A4D"/>
<path d="M150.629 90.5753C149.858 97.7861 138.69 99.7313 136.023 92.7553C135.939 92.5373 135.604 92.6211 135.671 92.8559C138.287 100.872 150.545 98.4233 151.451 90.5921C151.518 90.0555 150.679 90.0555 150.629 90.5753Z" fill="#BC6269"/>
<path d="M144.107 95.7536C144.543 95.4518 144.61 94.7476 144.225 94.3787C143.789 93.9594 143.034 94.1439 142.799 94.6805C142.766 94.7476 142.749 94.8147 142.749 94.8985C142.715 95.0327 142.732 95.1668 142.782 95.3177C142.967 95.8544 143.638 96.0723 144.107 95.7536Z" fill="#BC6269"/>
<path d="M149.687 58.4241C149.536 54.7181 149.117 51.0289 148.715 47.3396C148.564 46.0316 148.43 44.7069 148.027 43.466C147.658 42.3089 147.105 41.2189 146.904 40.0282C146.77 39.1562 146.82 38.2172 146.35 37.4793C145.73 36.5235 144.472 36.2384 143.332 36.1545C142.024 36.0539 140.582 36.1042 139.609 36.9762C138.201 38.2339 138.435 40.481 138.888 42.3256C139.324 44.0696 139.844 45.8136 140.213 47.5744C140.917 50.9282 141.051 54.3827 141.739 57.7365C142.309 60.5202 142.242 63.2536 142.443 66.1044C142.762 70.6656 141.806 75.1095 140.951 79.6037C140.448 82.27 139.911 84.9865 139.928 87.7031C139.441 89.2795 139.022 90.8726 138.553 92.4656C138.502 92.6501 138.469 92.9017 138.636 93.0023C138.754 93.0694 138.888 93.019 139.005 93.0693C139.139 93.1196 139.207 93.2874 139.223 93.4215C139.357 94.1258 139.056 94.8301 138.854 95.5177C138.653 96.2052 138.553 97.0269 139.005 97.5802C139.274 97.9156 139.693 98.0833 140.112 98.1671C140.833 98.3348 141.638 98.2845 142.242 97.8653C143.198 97.2113 143.416 95.9201 143.516 94.7798C143.734 92.6837 143.885 90.5707 144.019 88.4746C145.663 80.9619 147.323 73.4493 148.966 65.9367C149.218 64.8132 149.469 63.6729 149.587 62.5158C149.771 61.1575 149.754 59.7824 149.687 58.4241Z" fill="#F9E9DE"/>
<path d="M162.182 49.969C161.612 49.5666 160.874 49.4492 160.371 48.9629C159.667 48.2921 159.667 47.1686 159.952 46.2463C160.22 45.324 160.723 44.452 160.841 43.4961C161.176 40.9975 159.03 38.9684 157.437 37.0064C153.194 31.7744 152.322 24.832 152.188 18.3087C152.154 16.8834 152.305 15.3909 152.071 14.3344C152.087 14.217 152.121 14.0996 152.138 13.9823C152.909 10.1924 151.718 7.76091 149.287 5.21198C145.329 1.03644 138.974 -0.640478 133.557 1.43891C133.423 1.48921 133.272 1.55625 133.121 1.60656C131.26 3.2164 129.65 5.17844 128.962 7.72737C128.526 9.30368 128.392 11.1651 128.711 12.8084C128.778 13.0264 128.845 13.2444 128.929 13.4456C129.03 11.7016 129.348 9.82351 130.237 9.3372C131.025 8.88443 135.033 10.2427 136.224 10.1589C138.253 10.0247 141.858 8.63291 142.948 11.0812C143.502 12.3221 142.847 13.7643 142.344 14.9549C142.311 15.022 142.294 15.0723 142.261 15.1393C141.959 15.8604 141.674 16.5982 141.623 16.8498C141.238 19.013 140.953 20.975 140.953 22.5849C140.181 25.4357 140.047 28.4876 140.148 31.4726C140.164 31.9086 140.181 32.3613 140.366 32.747C141.07 34.273 143.283 33.9041 144.927 34.273C146.604 34.6587 147.895 36.0506 148.7 37.5766C150.947 41.836 150.025 47.0009 150.578 51.7801C150.729 53.0546 150.997 54.3458 151.634 55.4694C152.926 57.7668 155.81 59.058 158.376 58.4878C160.958 57.9177 163.021 55.5364 163.222 52.9204C163.356 51.8304 163.088 50.6062 162.182 49.969Z" fill="#8C6239"/>
<path d="M29.2376 188.932C33.497 189.083 37.7396 188.999 41.999 188.915C53.8548 188.697 65.7274 188.462 77.5832 188.244C79.4279 188.211 81.8093 187.809 81.9434 186.383C82.0608 185.109 80.1827 184.304 78.6063 183.918C72.9216 182.56 66.9517 182.291 61.0489 182.073C52.3624 181.738 43.6759 181.47 35.0062 181.252C29.5898 181.118 24.0056 181.017 18.9581 182.442C16.2079 183.214 12.1331 186.5 16.5098 188.077C17.7172 188.513 20.1822 188.312 21.4902 188.429C24.0559 188.647 26.6384 188.848 29.2376 188.932Z" fill="url(#paint2_linear_7_38)"/>
<path d="M29.2362 188.932C33.4955 189.083 37.7381 188.999 41.9975 188.915C53.8534 188.697 65.7259 188.462 77.5818 188.244C79.4264 188.211 81.8078 187.809 81.9419 186.383C82.0593 185.109 80.1812 184.304 78.6049 183.918C72.9201 182.56 66.9502 182.291 61.0474 182.073C52.361 181.738 43.6745 181.47 35.0048 181.252C29.5883 181.118 24.0041 181.017 18.9566 182.442C16.2065 183.214 12.1316 186.5 16.5084 188.077C17.7158 188.513 20.1808 188.312 21.4888 188.429C24.0545 188.647 26.6369 188.848 29.2362 188.932Z" fill="url(#paint3_linear_7_38)"/>
<path d="M149.321 182.714C149.673 183.184 150.344 183.234 150.931 183.251C152.608 183.284 154.285 183.334 155.928 183.049C156.314 182.982 156.699 182.899 157.018 182.681C157.336 182.463 157.571 182.077 157.521 181.708C157.471 181.305 157.102 181.004 156.699 180.886C156.297 180.786 155.878 180.836 155.475 180.886C154.117 181.071 152.758 181.339 151.4 181.49C150.796 181.557 150.008 181.423 149.438 181.59C148.902 181.708 149.036 182.345 149.321 182.714Z" fill="white"/>
<path d="M116.741 181.941C117.009 182.176 117.395 182.243 117.747 182.277C119.558 182.478 121.386 182.444 123.214 182.428C124.522 182.411 125.846 182.394 127.154 182.377C128.345 182.361 129.536 182.344 130.693 182.109C130.961 182.059 131.229 181.992 131.447 181.824C131.665 181.673 131.85 181.422 131.85 181.153C131.85 181.019 131.799 180.885 131.699 180.784C131.514 180.617 131.229 180.65 130.978 180.684C126.618 181.371 122.174 181.421 117.797 180.868C117.479 180.835 116.875 180.684 116.623 180.969C116.372 181.237 116.489 181.74 116.741 181.941Z" fill="white"/>
<path d="M80.5781 72.3368C80.3265 71.5151 80.0414 70.6263 80.2929 69.8549C80.578 68.9661 81.4669 68.5805 82.2886 68.3457C83.2277 68.0774 84.217 67.8929 85.1896 67.8091C85.6089 67.7755 86.5982 67.6581 87.0006 67.8929C87.5708 68.2283 87.6548 68.9829 87.8057 69.6704C88.7616 73.7621 89.7173 77.116 90.3713 80.9058C90.4551 81.4257 90.539 82.0294 90.254 82.4151C90.0695 82.6667 89.7843 82.7672 89.516 82.851C88.0068 83.3373 83.4959 84.897 82.8419 82.2139C82.037 78.9104 81.6178 75.6236 80.5781 72.3368Z" fill="#AA6A64"/>
<path d="M80.8601 71.4641C80.8098 71.1455 80.7763 70.7934 80.9104 70.525C81.0613 70.2064 81.3967 70.089 81.6985 69.9884C82.9898 69.586 84.3145 69.3345 85.6392 69.0829C85.8572 69.0494 86.377 68.9487 86.595 69.0326C86.7292 69.0829 86.9975 69.1668 87.0982 69.2841C87.4671 69.6866 87.4336 70.2735 87.6181 70.8101C87.8026 71.2796 87.8025 71.7995 87.9366 72.2858C88.0875 72.8224 88.1881 73.3591 88.3055 73.8957C88.4732 74.6838 88.6744 75.4887 88.9092 76.2601C89.0769 76.8302 89.2111 77.4004 89.3955 77.9538C89.4794 78.2053 89.5298 78.5073 89.4795 78.7588C89.3956 79.1277 89.1441 79.2953 88.8254 79.4127C88.2218 79.6307 87.5677 79.7481 86.9305 79.8487C85.9914 80.0164 85.0355 80.1841 84.0964 80.3518C83.761 80.4189 83.0735 80.6369 82.8219 80.2009C82.6878 79.9662 82.671 79.5469 82.6207 79.2786C82.5369 78.9097 82.4698 78.5575 82.3859 78.1886C82.0505 76.7464 81.6483 75.321 81.3296 73.8789C81.1452 73.074 80.9774 72.269 80.8601 71.4641Z" fill="white"/>
<path d="M84.6241 68.6172C84.5235 68.6172 84.406 68.634 84.2886 68.6508C84.037 68.7011 83.7856 68.7514 83.534 68.8017C83.3831 68.8353 83.1987 68.8855 83.1987 68.9694C83.1987 69.0029 83.2489 69.0364 83.2992 69.0532C83.5508 69.1203 84.8085 68.9526 84.8421 68.7178C84.8253 68.6507 84.7415 68.6172 84.6241 68.6172Z" fill="#5E625E"/>
<path d="M83.0468 68.938C82.9965 68.8877 82.9295 68.9045 82.8792 68.938C82.8288 68.9715 82.812 69.0387 82.812 69.089C82.812 69.1225 82.8288 69.1728 82.8456 69.2064C82.8959 69.2734 83.0133 69.2567 83.0636 69.1896C83.1139 69.1225 83.1139 69.0219 83.0636 68.9548L83.0468 68.938Z" fill="#5E625E"/>
<path d="M86.1575 81.2053C86.0569 81.3227 86.0234 81.4904 86.0234 81.6581C86.0234 81.742 86.0402 81.8091 86.057 81.8929C86.1241 82.0774 86.2918 82.2283 86.4762 82.2786C86.6607 82.3457 86.8619 82.3289 87.0463 82.2618C87.0966 82.245 87.1471 82.2283 87.1806 82.1948C87.2309 82.1612 87.2476 82.0941 87.2643 82.0438C87.3314 81.8258 87.3314 81.591 87.214 81.3898C87.0128 81.0376 86.4426 80.87 86.1575 81.2053Z" fill="#EBEFEB"/>
<path d="M76.2373 76.6474C75.4156 75.6245 74.1075 75.004 72.7995 75.0375C73.1013 74.7357 73.4201 74.2326 73.1182 73.914C72.9337 73.7128 72.615 73.7463 72.3467 73.7798C71.2064 73.914 70.0327 73.8134 68.9091 73.4948C68.8085 73.4612 68.7078 73.4445 68.6072 73.411C61.8827 70.8956 55.3763 67.81 49.1717 64.2046C49.658 61.991 49.5574 59.6937 49.4567 57.4298C49.3058 54.1598 49.1549 50.9066 49.0207 47.6366C48.9704 46.3789 48.8531 45.0206 47.9978 44.1151C46.4718 42.522 43.5372 43.5617 42.5143 45.5237C41.4913 47.4689 41.7764 49.8334 42.095 52.0134C42.9335 57.7149 43.772 63.4332 44.6104 69.1347C44.711 69.7887 44.8285 70.4931 45.298 70.9626C45.6669 71.3315 46.2035 71.4657 46.7066 71.5999C53.4981 73.4109 60.2729 75.2052 67.0644 77.0163C67.0812 76.9995 67.0812 76.9827 67.098 76.9827C69.5631 78.4081 72.5983 78.7938 75.3149 77.9721C75.6 77.8883 75.9187 77.7709 76.0864 77.5193C76.2541 77.2343 76.2708 76.9325 76.2373 76.6474Z" fill="#EADDD0"/>
<path d="M67.1665 77.1629C67.1162 77.2971 67.0492 77.4313 66.915 77.4983C66.7976 77.5654 66.6466 77.5318 66.5125 77.515C59.5197 76.2238 52.2419 75.1338 45.6181 72.5346C45.0815 72.3166 44.5281 72.0986 44.1256 71.6794C43.6561 71.1931 43.438 70.5055 43.2536 69.8515C41.0903 62.2886 39.0445 54.558 39.3128 46.71C39.3631 45.0666 39.5811 43.3058 40.6544 42.0649C41.845 40.7066 43.7734 40.3209 45.5677 40.0861C46.7248 39.9352 48.0496 39.8514 48.9551 40.5892C49.8439 41.3103 50.0283 42.568 50.1625 43.6915C50.5817 47.4646 51.0177 51.2545 51.437 55.0275C51.722 57.5765 52.0071 60.1254 52.309 62.6743C52.3593 63.1606 52.4264 63.6636 52.6444 64.0996C53.0972 65.0052 54.1201 65.4412 55.0592 65.8269C58.3963 67.1852 61.683 68.6945 64.9027 70.3379C65.7747 70.7906 68.4745 71.8807 68.7931 72.8868C68.9775 73.457 68.2062 74.4128 67.9714 74.9326C67.6192 75.7543 67.5187 76.358 67.1665 77.1629Z" fill="#E8E8E8"/>
<path d="M41.7528 182.361C42.5074 182.914 41.4845 183.334 40.9814 183.384C40.0759 183.451 39.1368 183.417 38.2648 183.233C38.03 183.183 37.7952 183.132 37.6108 182.998C37.4599 182.898 37.3593 182.763 37.2419 182.629C36.9568 182.26 36.2692 181.673 36.1519 181.237C36.068 180.885 36.3196 180.533 36.5041 180.215C36.9233 179.527 37.6275 178.823 37.594 178.001C39.556 178.185 41.4174 177.615 43.044 178.051C43.1781 178.638 43.698 179.108 43.4464 179.56C43.5974 179.259 48.3264 180.282 48.8798 180.365C49.7853 180.516 50.6908 180.65 51.5964 180.718C52.3007 180.768 53.6757 180.483 54.0782 181.103C54.2123 181.321 54.2626 181.573 54.2962 181.824C54.313 182.009 54.3129 182.21 54.2458 182.378C54.1284 182.68 53.7931 182.914 53.4409 183.015C49.5672 184.239 45.6936 182.311 41.7528 182.361Z" fill="#999999"/>
<path d="M54.2481 87.2447C53.9966 86.4901 53.1917 86.0875 52.4371 85.7857C47.507 83.874 42.0905 83.6728 36.7914 83.7063C34.0413 83.7231 31.3079 83.7901 28.5578 83.9075C26.6461 83.9914 22.7723 84.025 21.7829 86.0876C20.6762 88.4018 19.7036 92.9798 20.2738 95.3107C21.2967 99.5533 20.9277 107.15 22.068 112.616C21.9506 135.154 21.8333 157.675 21.7159 180.213C23.5437 180.264 25.3716 180.297 27.1995 180.347C27.4678 172.919 29.7483 165.674 31.6432 158.413C33.6388 150.733 35.1983 142.969 36.3554 135.154C36.7411 149.71 37.1268 164.283 37.5293 178.838C39.3571 178.838 41.185 178.838 43.0128 178.838C43.0464 171.409 45.0922 164.115 46.7523 156.82C50.6093 139.9 53.9128 113.371 53.6277 96.1324C53.7954 93.5667 53.9463 91.0009 54.2817 88.5526C54.332 88.1166 54.3823 87.6639 54.2481 87.2447Z" fill="#4D4D4D"/>
<path d="M25.8615 183.817C26.5993 184.387 25.5597 184.79 25.0566 184.823C24.1511 184.874 23.212 184.807 22.34 184.605C22.1052 184.555 21.8704 184.488 21.686 184.354C21.535 184.253 21.4345 184.102 21.3339 183.968C21.0488 183.583 20.3779 182.979 20.2941 182.56C20.2102 182.207 20.4786 181.855 20.6798 181.537C21.1158 180.866 21.8537 180.162 21.8369 179.34C23.7822 179.575 25.6771 179.038 27.2869 179.524C27.4043 180.111 27.9073 180.598 27.639 181.05C27.8067 180.749 32.5022 181.872 33.0555 181.989C33.9443 182.157 34.8498 182.308 35.7722 182.409C36.4765 182.476 37.8515 182.224 38.2372 182.845C38.3713 183.063 38.4049 183.314 38.4216 183.566C38.4384 183.75 38.4217 183.951 38.3546 184.119C38.2204 184.421 37.8851 184.639 37.5329 184.74C33.6089 185.88 29.8023 183.868 25.8615 183.817Z" fill="#999999"/>
<path d="M45.5555 7.004C43.7277 8.39585 42.6209 10.5256 41.598 12.5882C40.3403 15.1539 39.0994 17.8202 38.915 20.671C38.7808 22.7839 39.2 25.0309 38.2441 26.9091C41.8495 28.2841 45.3879 29.8102 48.8591 31.4871C53.806 26.1377 57.2437 19.4133 58.6691 12.2696C58.7194 12.0348 58.7529 11.7833 58.6691 11.5485C58.5684 11.297 58.3337 11.1292 58.1157 10.9783C55.0302 8.93245 51.4583 7.77542 47.92 6.61834C47.5511 6.50096 47.1654 6.36681 46.7797 6.41712C46.327 6.46743 45.9244 6.71892 45.5555 7.004Z" fill="#EADDD0"/>
<path d="M53.9338 82.6289C53.7661 78.9061 53.6823 75.1665 53.7326 71.4437C53.8164 62.8914 53.3637 54.3894 52.7432 45.8539C52.4917 42.3994 52.2066 38.9617 51.888 35.5072C51.7706 34.1657 47.8634 32.7571 46.8908 32.5559C46.3039 32.4385 45.7337 32.254 45.1803 32.0696C44.6437 31.8851 44.107 31.6839 43.5872 31.4826C40.9209 30.4597 38.2713 29.4368 35.605 28.4139C35.2026 28.263 34.7834 28.112 34.3809 28.1959C34.0623 28.263 33.794 28.4642 33.5425 28.6654C28.5788 32.6733 27.2204 39.1965 25.8621 45.116C22.7933 58.4308 21.0662 72.0307 20.6973 85.6473C20.6973 85.6473 21.4854 87.8105 24.1517 89.3365C26.818 90.8625 36.4268 91.986 36.4268 91.986L49.5068 90.5607C49.4565 90.5774 54.135 89.085 53.9338 82.6289Z" fill="#FCEE9F"/>
<path d="M71.5105 71.7139C71.6782 70.8754 71.8795 69.9699 72.4329 69.383C73.0701 68.7122 73.9589 68.729 74.7135 68.8631C75.5855 69.014 76.4575 69.2656 77.2792 69.5842C77.6314 69.7183 78.4698 70.0369 78.6878 70.4058C78.9896 70.9257 78.7046 71.6468 78.5201 72.3176C77.3966 76.3422 76.6252 79.7296 75.4011 83.3517C75.2334 83.8548 75.0154 84.4081 74.613 84.6429C74.3614 84.7938 74.0762 84.7604 73.8079 84.7268C72.3825 84.5424 68.0562 84.0392 68.7605 81.4065C69.6325 78.1365 70.823 75.0342 71.5105 71.7139Z" fill="#3D3D3D"/>
<path d="M72.1353 71.0428C72.2526 70.741 72.3701 70.4224 72.6048 70.2379C72.8731 70.0199 73.1918 70.0534 73.4769 70.087C74.6843 70.2714 75.8749 70.5901 77.0487 70.9254C77.2332 70.9757 77.7027 71.1099 77.8368 71.2776C77.9207 71.3782 78.0884 71.5627 78.122 71.7136C78.2394 72.2335 77.9207 72.7366 77.8368 73.29C77.753 73.793 77.5182 74.2458 77.4008 74.7321C77.2834 75.2687 77.1157 75.7886 76.948 76.3084C76.7132 77.0798 76.512 77.8679 76.3276 78.656C76.1934 79.2262 76.0425 79.7796 75.9419 80.3497C75.8916 80.618 75.7911 80.8864 75.6402 81.1044C75.4054 81.4062 75.1371 81.4397 74.8353 81.4062C74.2484 81.3391 73.6782 81.1715 73.1248 81.0206C72.2863 80.769 71.4646 80.5342 70.6262 80.2827C70.3243 80.1989 69.687 80.115 69.687 79.6119C69.687 79.3436 69.8715 78.9747 69.9386 78.7064C70.0392 78.3542 70.1397 78.0021 70.2403 77.6331C70.626 76.2077 70.9783 74.7824 71.3807 73.357C71.6155 72.5856 71.8669 71.8142 72.1353 71.0428Z" fill="white"/>
<path d="M76.4389 70.066C76.3551 70.0157 76.2544 69.9821 76.1538 69.9654C75.9358 69.8983 75.701 69.848 75.483 69.7809C75.3488 69.7474 75.1812 69.7138 75.1477 69.7809C75.1309 69.8145 75.1477 69.8648 75.1813 69.8983C75.3489 70.066 76.4389 70.4349 76.5562 70.2337C76.5898 70.1834 76.5228 70.1163 76.4389 70.066Z" fill="#5E625E"/>
<path d="M75.0297 69.6808C75.0129 69.6305 74.9625 69.597 74.8954 69.6137C74.8451 69.6305 74.7949 69.6641 74.7781 69.7311C74.7614 69.7647 74.7446 69.8149 74.7613 69.8484C74.7781 69.9323 74.8619 69.9659 74.929 69.9324C74.9961 69.8988 75.0297 69.815 75.0297 69.7311V69.6808Z" fill="#5E625E"/>
<path d="M71.8784 81.8913C71.7442 81.9584 71.6267 82.0924 71.5596 82.2434C71.5261 82.3104 71.4927 82.3943 71.4759 82.4614C71.4424 82.6626 71.5094 82.8471 71.6268 82.9812C71.7442 83.1154 71.9287 83.1825 72.0964 83.1992C72.1467 83.1992 72.1969 83.1992 72.2305 83.1824C72.2808 83.1657 72.331 83.1321 72.3645 83.0818C72.5155 82.9309 72.6329 82.6962 72.6329 82.4782C72.6497 82.0925 72.2641 81.7068 71.8784 81.8913Z" fill="#EBEFEB"/>
<path d="M46.7093 18.9625C46.1392 18.3588 45.4182 17.6881 44.5797 17.8055C43.8083 17.9061 43.2717 18.6607 43.1208 19.4321C42.9699 20.1867 43.1039 20.9749 43.1542 21.7462C43.171 21.9139 43.1543 22.0984 43.0536 22.2158C42.9363 22.3499 42.735 22.3499 42.5506 22.3667C41.863 22.4338 41.2259 22.8027 40.8234 23.3561C40.5216 23.7753 40.3539 24.2952 39.9849 24.6809C39.4986 25.2007 38.7607 25.3684 38.0564 25.469C37.3689 25.5696 36.6982 25.6535 36.0106 25.687C35.4573 25.7206 34.8032 25.687 34.4846 25.2175C34.4175 25.1336 34.384 25.033 34.4008 24.9156C34.4343 24.7312 34.6187 24.6473 34.7696 24.5467C35.3398 24.161 35.5411 23.4064 35.5746 22.7188C35.6249 22.0313 35.5746 21.3103 35.8765 20.673C36.0442 20.3209 36.3124 20.019 36.5807 19.7507C38.526 17.7384 41.0749 16.3969 43.7412 15.6255C44.4455 15.4242 47.0951 14.4684 47.6987 15.0218C48.2689 15.5416 46.8602 18.2079 46.7093 18.9625Z" fill="#D7C68E"/>
<path d="M56.5 14.9875C56.8522 15.1887 57.1876 15.457 57.3888 15.7924C57.523 16.0104 57.59 16.262 57.7074 16.48C57.9757 16.9998 58.4788 17.3855 59.049 17.5029C59.049 16.9663 59.049 16.4129 59.0658 15.8763C59.0658 15.7589 59.0658 15.6247 59.1664 15.5409C59.3005 15.4235 59.5017 15.4906 59.6526 15.3899C59.7868 15.3061 59.8035 15.1216 59.8203 14.9707C59.8538 14.2832 59.8874 13.5621 59.6526 12.9081C59.5688 12.6734 59.4346 12.4386 59.2334 12.3044C59.0154 12.1535 58.7471 12.1367 58.4788 12.1367C57.2211 12.1032 54.6051 12.2709 53.6324 13.2603C52.6095 14.3167 55.8125 14.6018 56.5 14.9875Z" fill="#D7C68E"/>
<path d="M22.9791 84.3257C23.1636 85.4324 23.4151 86.556 23.1803 87.646C23.0126 88.4174 22.5934 89.1049 22.1071 89.6918C19.9103 92.3414 16.3385 93.1295 13.0014 93.3475C9.0774 93.6158 4.6503 93.0792 2.08461 89.9098C0.508304 87.9646 -0.0618338 85.2983 0.00524307 82.7494C0.07232 80.2004 0.726316 77.7019 1.36355 75.2536C2.92309 69.2837 4.49937 63.3139 6.05891 57.344C6.31045 56.3882 6.57878 55.3988 7.23278 54.6945C8.10478 53.7554 9.42953 53.5039 10.6704 53.3697C12.9511 53.1014 15.282 52.9672 17.5123 53.4871C19.3737 53.9231 22.2245 55.1473 23.0965 57.126C24.0691 59.3563 23.348 63.2636 23.1971 65.6448C22.7947 71.8662 21.9059 78.1546 22.9791 84.3257Z" fill="#736357"/>
<path d="M26.6486 42.3042C28.6106 39.3025 31.3608 36.5188 35.0835 35.0096C38.8063 33.5003 43.6191 33.5171 46.8556 35.6468C50.0417 37.7429 51.0982 41.3148 51.5174 44.6519C52.2888 50.6888 51.6347 56.8095 50.1758 62.7626C49.5554 65.3283 48.7672 67.894 47.3418 70.2417C45.5978 73.1093 42.9651 75.5241 40.2317 77.8047C34.9326 82.215 28.7951 86.3738 21.3999 87.665C20.6117 87.7991 19.7565 87.9332 19.2367 88.4195C18.2305 89.3586 19.2367 90.9853 20.6956 91.3374C22.1545 91.6896 23.714 91.2032 25.0723 90.6499C31.9142 87.8829 37.4983 83.4223 42.9483 79.0456C44.86 77.5196 46.7884 75.96 47.9791 73.998C48.9684 72.3714 49.4045 70.5603 49.8237 68.766C51.3665 62.1422 52.926 55.4848 53.4291 48.7436C53.6303 45.9263 53.6639 43.0588 52.7248 40.3422C51.7857 37.6255 49.7734 35.0598 46.7549 33.7351C44.9439 32.9469 42.8812 32.6116 40.8354 32.5613C35.922 32.4439 30.9919 33.9028 27.3027 36.5691C25.8102 37.6423 24.4687 38.9671 23.9488 40.5602C23.4793 41.9856 23.6973 43.9475 25.2065 44.8866C25.7264 44.0985 26.0953 43.1426 26.6486 42.3042Z" fill="#736357"/>
<path d="M5.73978 45.6217C7.93655 42.9218 11.4079 40.8257 15.248 40.6748C17.2268 40.5909 19.1887 41.0101 21.0669 41.5635C22.4252 41.966 23.7835 42.4691 24.8064 43.3411C26.433 44.7161 26.9194 46.7955 26.9865 48.7408C27.0703 50.8201 26.7684 52.9163 26.1144 54.9286C25.8629 55.7168 25.5275 56.5049 24.8567 57.0918C23.8674 57.9638 22.3414 58.1986 20.916 58.2825C15.6169 58.6514 10.234 57.8465 5.38769 55.9851C2.57046 54.9119 1.74875 54.6435 2.5369 51.994C3.20767 49.7302 4.18024 47.5334 5.73978 45.6217Z" fill="#63564B"/>
<path d="M13.9902 77.1987C14.6945 77.0645 15.5329 76.9137 16.036 77.4335C16.2876 77.7018 16.3882 78.0875 16.4553 78.4564C16.908 81.0389 16.5559 83.7555 15.4324 86.1367C15.0634 86.9249 14.6107 87.6795 13.9734 88.2665C12.6822 89.4571 10.8375 89.7925 9.07675 89.7589C8.05383 89.7422 6.9806 89.5912 6.14214 89.0211C4.8006 88.0988 4.34789 86.3548 4.21374 84.7282C4.09635 83.2693 4.12983 81.7935 4.3646 80.3513C4.48199 79.5632 4.63292 77.1987 5.52168 76.8969C5.97445 76.7459 7.03092 77.2155 7.51723 77.2993C8.2383 77.4167 8.97623 77.5006 9.69731 77.5341C11.1395 77.5844 12.5816 77.4838 13.9902 77.1987Z" fill="#63564B"/>
<path d="M3.94489 78.343C3.91135 78.4771 3.89463 78.6448 3.99525 78.7454C4.06233 78.8125 4.1629 78.8125 4.26351 78.8125C7.71797 78.9634 11.1725 79.0976 14.627 79.2485C15.2474 79.282 15.9349 79.282 16.4212 78.8963C17.0249 78.4268 17.0921 77.4877 16.7231 76.8337C16.3542 76.1797 15.6163 75.7772 14.8785 75.6263C14.1406 75.4754 13.3693 75.5257 12.6147 75.5592C10.552 75.6766 8.47264 75.7772 6.41002 75.7269C5.83987 75.7101 5.35352 75.576 4.90075 75.9953C4.36414 76.4983 4.09582 77.6554 3.94489 78.343Z" fill="#63564B"/>
<path d="M16.3379 63.7969C16.4553 63.7969 16.5727 63.7969 16.6733 63.8472C16.841 63.9311 16.8914 64.149 16.9249 64.3335C17.0926 65.3229 17.1093 66.3626 16.9416 67.3519C16.9248 67.4693 16.8914 67.5868 16.8075 67.6371C16.7405 67.6874 16.6398 67.6873 16.556 67.6873C13.2189 67.6035 9.86506 67.5197 6.52798 67.4023C6.51122 66.6812 6.5615 65.9434 6.71242 65.2223C7.09811 63.3945 9.26135 63.9478 10.7035 63.9143C12.5817 63.8807 14.4598 63.8472 16.3379 63.7969Z" fill="#63564B"/>
<path d="M4.06424 61.0529C4.06424 61.8913 4.0978 62.7465 3.98042 63.585C3.67857 65.8488 2.35378 67.8445 0.911621 69.6388C1.46501 69.8568 2.03516 70.0747 2.58854 70.2927C2.9407 69.4878 3.27607 68.6829 3.62823 67.8947C3.96361 67.1066 4.31583 66.3016 4.53383 65.4631C4.80214 64.4235 4.85242 63.3503 4.91949 62.2771C4.98657 61.0026 5.92571 56.324 4.98663 55.4688C3.79602 56.0054 4.08101 59.8958 4.06424 61.0529Z" fill="#63564B"/>
<path d="M57.0213 89.93C57.692 90.5002 58.3964 91.0703 59.2348 91.3219C60.0733 91.5734 61.0962 91.4392 61.6496 90.7517C62.2365 90.0138 62.1024 88.9071 61.5826 88.1189C61.0627 87.3307 60.241 86.811 59.4528 86.3079C59.9895 86.5091 60.5429 85.8383 60.4255 85.2849C60.2913 84.7147 59.7379 84.3627 59.1845 84.195C58.6311 84.0273 58.0442 83.9937 57.5076 83.7757C57.0212 83.5913 56.3002 83.4906 55.8978 83.172C54.1538 81.7969 53.4662 80.8579 51.152 78.6443C50.498 78.0239 49.9278 77.3698 49.3242 76.6991C48.9049 76.2295 48.5193 75.7264 48.033 75.324C47.3119 74.7203 46.1045 74.5861 45.417 73.9489C44.8636 73.4458 44.3605 73.0098 43.5723 73.362C42.3146 73.9489 42.4824 75.8103 43.0861 76.7829C44.0922 78.376 45.92 79.7678 47.2616 81.0758C48.7708 82.5515 50.3136 83.9937 51.8731 85.4191C53.55 86.9451 55.2773 88.4543 57.0213 89.93Z" fill="#EDD5BE"/>
<path d="M42.225 66.2013C41.8393 65.7653 41.4369 65.3294 41.2021 64.7927C40.9338 64.1891 40.8835 63.5015 40.9003 62.814C40.9841 59.8794 42.3424 57.0956 43.6671 54.3958C44.4721 52.7692 45.277 51.1426 46.2497 49.6333C46.9204 48.5937 47.7588 47.1347 47.9768 45.9609C48.2284 44.6026 48.4632 41.9866 48.2955 41.5003C47.4402 38.9346 45.3944 36.7043 42.5436 36.6875C41.7387 36.6875 38.8041 37.7943 38.2339 38.3812C37.5632 39.0687 36.3893 41.0475 35.5341 41.9698C35.2658 42.2716 35.1316 42.6573 34.9975 43.0263C34.6285 44.0492 34.2765 45.0721 33.9075 46.095C33.4715 47.3024 33.0523 48.5098 32.7505 49.7507C32.3312 51.4277 32.1467 53.1549 32.197 54.8486C32.2473 56.3578 31.7107 58.5881 31.9455 60.0638C32.1802 61.573 31.9791 63.5183 32.2138 65.0275C32.3815 66.1008 32.5492 67.174 32.9517 68.1634C33.3374 69.1025 33.941 69.9409 34.5615 70.7458C37.5631 74.586 48.6812 83.4401 52.3201 86.6598L55.8752 82.7023C52.4207 80.2707 45.059 69.3372 42.225 66.2013Z" fill="#E7DCA0"/>
<path d="M37.5512 7.01988C36.5115 7.84157 35.17 8.1434 33.9961 8.73032C32.8223 9.31725 31.6988 10.4743 31.9 11.7823C32.1515 13.3922 34.2811 14.348 34.2308 15.9746C34.2141 16.5448 33.9123 17.0814 33.8787 17.6516C33.7614 19.144 35.4551 20.2508 36.9475 20.1502C38.44 20.0496 39.748 19.1608 41.0392 18.3726C45.9526 15.3877 51.6374 13.7443 57.3724 13.5767C58.3283 13.5431 59.3344 13.5599 60.1897 13.1406C61.0617 12.7382 61.7491 11.7488 61.4808 10.8265C61.1119 9.51848 59.3009 9.28375 58.5127 8.19375C58.0767 7.59005 57.9928 6.80187 57.7077 6.11433C57.1711 4.8734 55.9974 4.06847 54.8571 3.33063C52.5429 1.80463 50.0945 0.245088 47.3444 0.0270875C44.8961 -0.174143 42.3472 0.764964 40.402 2.20712C38.658 3.53189 39.2952 5.62803 37.5512 7.01988Z" fill="#D7C68E"/>
</g>
<defs>
<linearGradient id="paint0_linear_7_38" x1="113.897" y1="181.1" x2="181.778" y2="184.448" gradientUnits="userSpaceOnUse">
<stop stop-color="#4D4D4D"/>
<stop offset="1"/>
</linearGradient>
<linearGradient id="paint1_linear_7_38" x1="113.89" y1="181.1" x2="181.772" y2="184.448" gradientUnits="userSpaceOnUse">
<stop/>
<stop offset="1"/>
</linearGradient>
<linearGradient id="paint2_linear_7_38" x1="14.679" y1="183.99" x2="81.8978" y2="187.305" gradientUnits="userSpaceOnUse">
<stop stop-color="#4D4D4D"/>
<stop offset="1"/>
</linearGradient>
<linearGradient id="paint3_linear_7_38" x1="14.6775" y1="183.99" x2="81.8963" y2="187.305" gradientUnits="userSpaceOnUse">
<stop/>
<stop offset="1"/>
</linearGradient>
<clipPath id="clip0_7_38">
<rect width="182" height="190" fill="white"/>
</clipPath>
</defs>
</svg>
