<svg width="70" height="70" viewBox="0 0 70 70" fill="none" xmlns="http://www.w3.org/2000/svg">
<g clip-path="url(#clip0_1_21)">
<path d="M1.70732 35L3.41464 32.8659L7.68293 29.878L6.40244 27.3171L3.84147 23.9024V21.3415C5.12196 20.9146 7.85366 20.061 8.53659 20.061H11.5244L11.9512 17.9268L11.0976 14.939V11.9512L11.9512 10.6707L16.6463 11.5244C17.2155 11.6667 18.439 11.9512 18.7805 11.9512C19.122 11.9512 19.4919 12.2358 19.6342 12.378L20.061 9.81707L20.9146 5.97561L21.7683 3.84146C22.4797 3.69918 24.0732 3.58536 24.7561 4.26829C25.6098 5.12195 27.3171 6.40244 27.7439 6.82927C28.0834 7.16878 29.7733 8.31849 30.4504 9.20429C30.2657 8.52438 30.0308 7.51684 29.8781 6.82927L32.0122 4.69512L33.7195 2.13415L35.4268 1.28049L37.9878 3.84146C38.2724 4.26829 38.9268 5.29268 39.2683 5.97561C39.6951 6.82927 40.5488 8.10976 40.5488 8.53658C40.5488 8.87805 41.9715 7.2561 42.6829 6.40244L45.6707 4.69512L47.3781 3.84146C47.6626 3.98374 48.3171 4.35366 48.6585 4.69512C49.0854 5.12195 49.939 8.10976 49.939 8.53658C49.939 8.87805 50.2236 10.6707 50.3659 11.5244L49.939 13.2317L53.3537 11.5244C54.065 11.2398 55.5732 10.6707 55.9146 10.6707H58.4756L59.3293 11.9512L58.9024 14.939V17.5C58.9024 17.8415 58.3333 19.3496 58.0488 20.061H61.4634C62.1748 20.2033 63.6829 20.5732 64.0244 20.9146C64.3659 21.2561 65.3049 21.626 65.7317 21.7683V23.4756L64.8781 26.0366L63.5976 28.1707L62.3171 29.878C62.6016 30.0203 63.2561 30.3902 63.5976 30.7317C64.0244 31.1585 66.1585 31.1585 66.5854 32.0122C66.9268 32.6951 67.8659 34.0041 68.2927 34.5732V35.8537L65.7317 38.4146L62.7439 39.2683L61.4634 39.6951L62.7439 41.4024L64.8781 44.3902L65.7317 46.9512V48.2317L63.1707 49.5122H59.7561H57.1951C57.3374 50.2236 57.7073 51.7317 58.0488 52.0732C58.3903 52.4146 59.0447 54.7764 59.3293 55.9146V58.4756L57.1951 59.3293C56.3415 59.3293 54.5488 59.2439 54.2073 58.9024C53.8659 58.561 52.3577 58.1911 51.6463 58.0488H49.939L49.5122 61.8902L48.6585 65.7317L47.8049 66.1585C46.9512 66.0163 45.1585 65.6463 44.8171 65.3049C44.3902 64.878 41.4024 63.5976 41.4024 63.1707C41.4024 62.8293 40.8333 62.4594 40.5488 62.3171L38.8415 64.0244C38.5569 64.7358 37.8171 66.3293 37.1342 67.0122C36.4512 67.6951 35.4268 68.435 35 68.7195C34.2886 68.435 32.7805 67.6951 32.439 67.0122C32.0976 66.3293 31.1585 64.7358 30.7317 64.0244L29.4512 61.8902L27.3171 64.0244L24.7561 64.878L21.7683 66.1585L20.061 64.0244C19.9187 62.8862 19.6342 60.5244 19.6342 60.1829C19.6342 59.8415 19.9187 57.7642 20.061 56.7683C19.3496 57.3374 17.8415 58.4756 17.5 58.4756C17.1585 58.4756 15.3659 58.7602 14.5122 58.9024H11.5244L10.6707 56.3415C11.0976 55.4878 11.9512 53.6951 11.9512 53.3537C11.9512 52.9268 12.8049 51.2195 12.3781 50.7927C12.0366 50.4512 10.5285 50.0813 9.81708 49.939C8.67887 49.939 6.40244 49.8537 6.40244 49.5122C6.40244 49.1707 4.97968 48.2317 4.2683 47.8049L3.84147 45.2439L7.2561 41.4024L7.68293 40.122L5.54878 38.8415L2.98781 36.7073L1.70732 35Z" fill="#FFCC16"/>
<path d="M1.70732 35L3.41464 32.8659L7.68293 29.878L6.40244 27.3171L3.84147 23.9024V21.3415C5.12196 20.9146 7.85366 20.061 8.53659 20.061C9.21952 20.061 10.813 20.061 11.5244 20.061L11.9512 17.9268L11.0976 14.939V11.9512L11.9512 10.6707L16.6463 11.5244C17.2155 11.6667 18.439 11.9512 18.7805 11.9512C19.122 11.9512 19.4919 12.2358 19.6342 12.378L20.061 9.81707L20.9146 5.97561L21.7683 3.84146C22.4797 3.69918 24.0732 3.58536 24.7561 4.26829C25.6098 5.12195 27.3171 6.40244 27.7439 6.82927C28.1707 7.2561 30.7317 8.96341 30.7317 9.81707C30.7317 10.5 30.1626 8.10975 29.8781 6.82927L32.0122 4.69512L33.7195 2.13415L35.4268 1.28049L37.9878 3.84146C38.2724 4.26829 38.9268 5.29268 39.2683 5.97561C39.6951 6.82927 40.5488 8.10976 40.5488 8.53658C40.5488 8.87805 41.9715 7.2561 42.6829 6.40244L45.6707 4.69512L47.3781 3.84146C47.6626 3.98374 48.3171 4.35366 48.6585 4.69512C49.0854 5.12195 49.939 8.10976 49.939 8.53658C49.939 8.87805 50.2236 10.6707 50.3659 11.5244L49.939 13.2317L53.3537 11.5244C54.065 11.2398 55.5732 10.6707 55.9146 10.6707C56.2561 10.6707 57.7642 10.6707 58.4756 10.6707L59.3293 11.9512L58.9024 14.939C58.9024 15.6504 58.9024 17.1585 58.9024 17.5C58.9024 17.8415 58.3333 19.3496 58.0488 20.061H61.4634C62.1748 20.2033 63.6829 20.5732 64.0244 20.9146C64.3659 21.2561 65.3049 21.626 65.7317 21.7683V23.4756L64.8781 26.0366L63.5976 28.1707L62.3171 29.878C62.6016 30.0203 63.2561 30.3902 63.5976 30.7317C64.0244 31.1585 66.1585 31.1585 66.5854 32.0122C66.9268 32.6951 67.8659 34.0041 68.2927 34.5732V35.8537L65.7317 38.4146L62.7439 39.2683L61.4634 39.6951L62.7439 41.4024L64.8781 44.3902L65.7317 46.9512V48.2317L63.1707 49.5122H59.7561H57.1951C57.3374 50.2236 57.7073 51.7317 58.0488 52.0732C58.3902 52.4146 59.0447 54.7764 59.3293 55.9146V58.4756L57.1951 59.3293C56.3415 59.3293 54.5488 59.2439 54.2073 58.9024C53.8659 58.561 52.3577 58.1911 51.6463 58.0488H49.939L49.5122 61.8902L48.6585 65.7317L47.8049 66.1585C46.9512 66.0163 45.1585 65.6463 44.8171 65.3049C44.3902 64.878 41.4024 63.5976 41.4024 63.1707C41.4024 62.8293 40.8333 62.4594 40.5488 62.3171L38.8415 64.0244C38.5569 64.7358 37.8171 66.3293 37.1342 67.0122C36.4512 67.6951 35.4268 68.435 35 68.7195C34.2886 68.435 32.7805 67.6951 32.439 67.0122C32.0976 66.3293 31.1585 64.7358 30.7317 64.0244L29.4512 61.8902L27.3171 64.0244L24.7561 64.878L21.7683 66.1585L20.061 64.0244C19.9187 62.8862 19.6342 60.5244 19.6342 60.1829C19.6342 59.8415 19.9187 57.7642 20.061 56.7683C19.3496 57.3374 17.8415 58.4756 17.5 58.4756C17.1585 58.4756 15.3659 58.7602 14.5122 58.9024H11.5244L10.6707 56.3415C11.0976 55.4878 11.9512 53.6951 11.9512 53.3537C11.9512 52.9268 12.8049 51.2195 12.3781 50.7927C12.0366 50.4512 10.5285 50.0813 9.81708 49.939C8.67887 49.939 6.40244 49.8537 6.40244 49.5122C6.40244 49.1707 4.97968 48.2317 4.2683 47.8049L3.84147 45.2439L7.2561 41.4024L7.68293 40.122L5.54878 38.8415L2.98781 36.7073L1.70732 35Z" stroke="#FBC846"/>
<path d="M17.5 31.5854C17.6423 33.1504 17.9268 36.3659 17.9268 36.7073L17.5 39.2683C18.2114 40.8333 19.7195 44.0488 20.061 44.3902C20.4024 44.7317 21.626 46.2398 22.1951 46.9512L25.6098 49.939L31.1585 51.6463C32.7236 51.9309 35.939 52.5 36.2805 52.5H39.6951L43.9634 49.939L48.6585 46.0976L51.2195 42.6829L52.9268 37.561L52.0732 30.7317L49.939 26.0366L46.9512 22.622L42.2561 18.7805L37.1341 17.5L30.7317 17.9268L25.6098 20.061L20.4878 25.1829L17.5 31.5854Z" fill="#ED8043" stroke="#FBC846"/>
<path d="M41.6364 30.67C40.9795 30.67 40.4449 31.2045 40.4449 31.8615C40.4449 32.5184 40.9795 33.053 41.6364 33.053C42.2934 33.053 42.8279 32.5184 42.8279 31.8615C42.8279 31.2045 42.2935 30.67 41.6364 30.67Z" fill="#692600"/>
<path d="M30.0479 38.112C29.3909 38.112 28.8564 38.6466 28.8564 39.3035C28.8564 39.9605 29.3909 40.495 30.0479 40.495C30.7048 40.495 31.2394 39.9605 31.2394 39.3035C31.2394 38.6466 30.7048 38.112 30.0479 38.112Z" fill="#692600"/>
<path d="M37.8357 27.5688C37.1788 27.5688 36.6443 28.1034 36.6443 28.7603C36.6443 29.4173 37.1788 29.9518 37.8357 29.9518C38.4927 29.9518 39.0272 29.4173 39.0272 28.7603C39.0272 28.1034 38.4927 27.5688 37.8357 27.5688Z" fill="#692600"/>
<path d="M69.8017 34.3644C68.1927 32.0376 65.9542 30.3113 63.3627 29.3554C65.3734 27.4882 66.8011 25.0268 67.3958 22.2686C67.4936 21.8141 67.2999 21.3468 66.9093 21.0946C64.5386 19.5646 61.7885 18.8339 59.0466 18.9352C60.203 16.4268 60.5653 13.6234 60.0577 10.8404C59.9743 10.3831 59.6165 10.0253 59.1593 9.94185C56.3764 9.43428 53.5729 9.79634 51.0643 10.953C51.1657 8.21091 50.4349 5.46096 48.9049 3.09004C48.6529 2.69953 48.1848 2.50577 47.731 2.60377C44.9727 3.19832 42.5114 4.62617 40.6442 6.63666C39.6883 4.04502 37.962 1.80666 35.6351 0.197702C35.253 -0.066511 34.7467 -0.066511 34.3646 0.197702C32.0377 1.80666 30.3116 4.04517 29.3555 6.63666C27.4883 4.62602 25.027 3.19817 22.2687 2.60377C21.815 2.50562 21.3468 2.69953 21.0948 3.09004C19.5648 5.46096 18.8341 8.21091 18.9354 10.953C16.4267 9.79634 13.6231 9.43428 10.8404 9.94185C10.3832 10.0253 10.0253 10.3831 9.94201 10.8404C9.43443 13.6234 9.7965 16.4268 10.9531 18.9352C8.21122 18.8339 5.46126 19.5645 3.09035 21.0946C2.69984 21.3466 2.50607 21.8141 2.60392 22.2686C3.19847 25.0268 4.62633 27.4882 6.63696 29.3554C4.04533 30.3113 1.80696 32.0376 0.198007 34.3644C-0.0662058 34.7467 -0.0662058 35.2527 0.198007 35.635C1.80696 37.9618 4.04547 39.6881 6.63696 40.644C4.62633 42.5112 3.19847 44.9725 2.60392 47.7308C2.50607 48.1852 2.69984 48.6526 3.09035 48.9047C5.31679 50.3415 7.87775 51.0746 10.4523 51.0746C10.6195 51.0746 10.7868 51.0686 10.954 51.0624C9.7968 53.5712 9.43443 56.3752 9.94216 59.159C10.0256 59.6162 10.3833 59.9741 10.8405 60.0575C11.6659 60.2081 12.4928 60.2824 13.3138 60.2824C15.2607 60.2824 17.1709 59.8617 18.9354 59.0482C18.8344 61.7895 19.5652 64.5389 21.0948 66.9092C21.3033 67.2322 21.6591 67.4206 22.0332 67.4206C22.1113 67.4206 22.1904 67.4124 22.2687 67.3955C25.027 66.8009 27.4883 65.3731 29.3555 63.3626C30.3114 65.9542 32.0377 68.1926 34.3646 69.8015C34.5556 69.9336 34.7777 69.9998 34.9999 69.9998C35.2221 69.9998 35.4441 69.9336 35.6353 69.8015C37.9621 68.1926 39.6883 65.9541 40.6443 63.3626C42.5115 65.3732 44.9728 66.8011 47.7311 67.3955C47.8095 67.4124 47.8886 67.4206 47.9666 67.4206C48.3406 67.4206 48.6965 67.2322 48.905 66.9092C50.4348 64.5387 51.1655 61.7895 51.0645 59.0482C52.8289 59.8617 54.7392 60.2824 56.6862 60.2824C57.507 60.2824 58.3342 60.208 59.1593 60.0575C59.6165 59.9741 59.9744 59.6162 60.0577 59.159C60.5654 56.3752 60.203 53.5712 59.0458 51.0624C59.2131 51.0686 59.3803 51.0746 59.5474 51.0746C62.1216 51.0746 64.6829 50.3415 66.9093 48.9047C67.2999 48.6527 67.4936 48.1852 67.3958 47.7308C66.8012 44.9725 65.3734 42.5112 63.3627 40.644C65.9544 39.6881 68.1927 37.9618 69.8017 35.635C70.0659 35.2527 70.0659 34.7467 69.8017 34.3644ZM65.0182 22.5658C64.0642 25.859 61.6653 28.5592 58.477 29.8798C56.8133 30.5689 55.0168 30.851 53.238 30.7068C52.7686 28.7117 51.9788 26.839 50.9269 25.1451C52.0833 23.7828 53.5547 22.7096 55.221 22.0194C58.4094 20.6988 62.0149 20.9116 65.0182 22.5658ZM34.9999 51.5008C25.9011 51.5008 18.4988 44.0984 18.4988 34.9998C18.4988 25.9011 25.9011 18.4987 34.9999 18.4987C44.0987 18.4987 51.501 25.901 51.501 34.9998C51.501 44.0986 44.0987 51.5008 34.9999 51.5008ZM57.9744 12.0253C58.2535 14.5666 57.6591 17.1664 56.3015 19.3199C55.6463 19.4817 54.9994 19.693 54.3661 19.9553C52.5479 20.7084 50.9239 21.8439 49.601 23.2749C48.7487 22.2157 47.7839 21.2507 46.7246 20.3985C48.1557 19.0757 49.2912 17.4517 50.0443 15.6334C50.3065 15.0003 50.5179 14.3533 50.6798 13.6982C52.8329 12.3406 55.4332 11.7465 57.9744 12.0253ZM47.4339 4.98153C49.0878 7.98483 49.3009 11.5904 47.9803 14.7786C47.29 16.4449 46.2169 17.9162 44.8546 19.0728C43.1607 18.0209 41.288 17.2312 39.2929 16.7616C39.1488 14.983 39.4306 13.1866 40.1198 11.5228C41.4405 8.33438 44.1407 5.93562 47.4339 4.98153ZM34.9999 2.50904C36.9943 4.10862 38.4125 6.36723 38.975 8.84985C38.6262 9.42743 38.3181 10.0345 38.0558 10.6676C37.3038 12.483 36.9584 14.4309 37.0335 16.3751C36.3652 16.3026 35.687 16.2643 34.9998 16.2643C34.3126 16.2643 33.6343 16.3026 32.966 16.3751C33.0413 14.4309 32.6959 12.4829 31.9438 10.6676C31.6815 10.0343 31.3733 9.42743 31.0245 8.8497C31.5875 6.36723 33.0055 4.10862 34.9999 2.50904ZM22.566 4.98153C25.8591 5.93547 28.5593 8.33438 29.8801 11.5227C30.5692 13.1864 30.851 14.9829 30.707 16.7615C28.7118 17.2311 26.8391 18.0207 25.1453 19.0727C23.7828 17.9159 22.7097 16.4447 22.0195 14.7784C20.6988 11.5904 20.9119 7.98498 22.566 4.98153ZM12.0255 12.0253C14.5672 11.7459 17.1668 12.3405 19.3201 13.6982C19.4818 14.3533 19.6933 15.0003 19.9556 15.6334C20.7086 17.4517 21.8441 19.0755 23.2751 20.3985C22.2157 21.2509 21.2509 22.2157 20.3987 23.2749C19.0758 21.8438 17.452 20.7083 15.6336 19.9551C15.0005 19.6928 14.3535 19.4815 13.6983 19.3198C12.3408 17.1667 11.7464 14.5668 12.0255 12.0253ZM4.98169 22.5658C7.98528 20.9116 11.5906 20.6986 14.7787 22.0194C16.445 22.7096 17.9163 23.7828 19.0728 25.1451C18.0209 26.839 17.2312 28.7117 16.7616 30.7068C14.983 30.8508 13.1866 30.5689 11.5227 29.8798C8.33454 28.5592 5.93562 25.859 4.98169 22.5658ZM2.50845 35.0008C4.10818 33.006 6.36709 31.5873 8.85001 31.0245C9.42758 31.3733 10.0346 31.6815 10.6679 31.9437C12.3216 32.6287 14.0851 32.9774 15.8557 32.9774C16.0289 32.9774 16.2022 32.9736 16.3755 32.9669C16.3031 33.6348 16.2648 34.3127 16.2648 34.9996C16.2648 35.6868 16.3031 36.3651 16.3756 37.0333C14.4317 36.9583 12.4835 37.3037 10.6679 38.0556C10.0345 38.3181 9.42743 38.6262 8.84971 38.9752C6.33403 38.4097 4.11816 37.0198 2.50845 35.0008ZM4.98169 47.4337C5.93562 44.1406 8.33454 41.4404 11.5228 40.1197C13.1866 39.4306 14.983 39.1485 16.7618 39.2927C17.2312 41.2879 18.021 43.1606 19.073 44.8544C17.9165 46.2167 16.4452 47.29 14.7789 47.9801C11.5903 49.3008 7.98499 49.0878 4.98169 47.4337ZM12.0255 57.9741C11.7464 55.4326 12.3408 52.8326 13.6985 50.6793C14.3535 50.5176 15.0005 50.3064 15.6336 50.0443C17.4518 49.2911 19.0758 48.1556 20.3987 46.7246C21.251 47.7838 22.2158 48.7488 23.2751 49.601C21.8439 50.9239 20.7085 52.5479 19.9554 54.3661C19.6932 54.9992 19.4818 55.6462 19.3199 56.3014C17.1668 57.6589 14.5665 58.2532 12.0255 57.9741ZM22.566 65.0178C20.912 62.0145 20.6989 58.409 22.0195 55.2208C22.7099 53.5545 23.7829 52.0832 25.1453 50.9266C26.8391 51.9785 28.7118 52.7681 30.707 53.2377C30.851 55.0163 30.5692 56.8128 29.8801 58.4766C28.5593 61.665 25.8591 64.0639 22.566 65.0178ZM34.9999 67.4903C33.0055 65.8908 31.5873 63.6321 31.0248 61.1495C31.3736 60.572 31.6818 59.9649 31.944 59.3318C32.696 57.5164 33.0414 55.5684 32.9663 53.6242C33.6346 53.6968 34.3129 53.735 35.0001 53.735C35.6873 53.735 36.3655 53.6968 37.0338 53.6242C36.9586 55.5684 37.304 57.5164 38.0561 59.3318C38.3184 59.965 38.6265 60.572 38.9753 61.1497C38.4123 63.6321 36.9942 65.8908 34.9999 67.4903ZM47.4339 65.0178C44.1407 64.0639 41.4405 61.665 40.1198 58.4767C39.4306 56.813 39.1488 55.0165 39.2929 53.2379C41.288 52.7683 43.1607 51.9786 44.8546 50.9267C46.217 52.0835 47.2901 53.5547 47.9803 55.221C49.3009 58.4091 49.0879 62.0145 47.4339 65.0178ZM57.9744 57.9741C55.4322 58.2533 52.8329 57.6589 50.6798 56.3012C50.518 55.646 50.3065 54.9991 50.0443 54.3658C49.2912 52.5476 48.1557 50.9237 46.7248 49.6007C47.784 48.7484 48.749 47.7835 49.6012 46.7243C50.924 48.1554 52.5479 49.2909 54.3662 50.0441C54.9994 50.3064 55.6463 50.5174 56.3014 50.6792C57.6589 52.8326 58.2535 55.4326 57.9744 57.9741ZM65.0182 47.4337C62.0144 49.0878 58.409 49.3008 55.2211 47.9801C53.5548 47.29 52.0835 46.2167 50.927 44.8544C51.9789 43.1606 52.7686 41.2879 53.2382 39.2927C55.0169 39.1487 56.8133 39.4306 58.4772 40.1197C61.6653 41.4404 64.0641 44.1404 65.0182 47.4337ZM61.1498 38.9749C60.5723 38.6261 59.9652 38.3179 59.3319 38.0556C57.5165 37.3038 55.5685 36.9584 53.6242 37.0333C53.6968 36.3651 53.735 35.6868 53.735 34.9996C53.735 34.3129 53.6968 33.6348 53.6244 32.9669C53.7976 32.9736 53.971 32.9774 54.1442 32.9774C55.9147 32.9774 57.6783 32.6286 59.3319 31.9437C59.9653 31.6813 60.5724 31.3732 61.1501 31.0242C63.6657 31.5897 65.8815 32.9796 67.4914 34.9986C65.8917 36.9936 63.6327 38.4122 61.1498 38.9749Z" fill="black"/>
</g>
<defs>
<clipPath id="clip0_1_21">
<rect width="70" height="70" fill="white"/>
</clipPath>
</defs>
</svg>
