<svg width="162" height="167" viewBox="0 0 162 167" fill="none" xmlns="http://www.w3.org/2000/svg">
<g clip-path="url(#clip0_8_2)">
<path d="M35.4063 160.693C32.0859 160.895 28.3296 161.28 26.5521 162.924C26.1329 163.309 25.8646 163.762 25.9484 164.215C26.2335 165.556 29.2352 165.942 31.5661 165.992C64.2158 166.73 96.9158 165.473 129.582 165.724C139.275 165.791 149.32 165.976 158.258 163.796C159.867 163.41 161.712 162.504 160.924 161.599C160.387 160.995 159.012 160.895 157.838 160.861C141.203 160.375 124.568 160.006 107.916 159.771C99.515 159.654 91.0969 159.57 82.6955 159.503C75.9878 159.452 69.6993 160.106 62.9749 160.023C53.7686 159.922 44.5623 160.157 35.4063 160.693Z" fill="url(#paint0_linear_8_2)"/>
<path d="M35.4063 160.693C32.0859 160.895 28.3296 161.28 26.5521 162.924C26.1329 163.309 25.8646 163.762 25.9484 164.215C26.2335 165.556 29.2352 165.942 31.5661 165.992C64.2158 166.73 96.9158 165.473 129.582 165.724C139.275 165.791 149.32 165.976 158.258 163.796C159.867 163.41 161.712 162.504 160.924 161.599C160.387 160.995 159.012 160.895 157.838 160.861C141.203 160.375 124.568 160.006 107.916 159.771C99.515 159.654 91.0969 159.57 82.6955 159.503C75.9878 159.452 69.6993 160.106 62.9749 160.023C53.7686 159.922 44.5623 160.157 35.4063 160.693Z" fill="url(#paint1_linear_8_2)"/>
<path d="M66.8858 151.801C65.1418 152.404 63.3307 151.801 61.8047 150.392C66.6678 136.407 64.9405 121.415 70.6924 107.614C71.2122 106.39 71.7992 105.149 72.8389 104.126C74.8512 102.164 80.6534 101.342 79.882 104.797C79.0938 108.368 77.115 112.007 75.9411 115.529C73.409 123.159 71.2458 130.856 69.485 138.603C68.4956 142.98 67.6237 147.39 66.8858 151.801Z" fill="#E2CBB7"/>
<path d="M90.3908 153.16C89.0492 153.345 87.6742 153.378 86.3159 153.278C86.1817 137.883 85.2091 122.489 83.3813 107.162C83.2136 105.804 83.0627 104.412 83.5322 103.104C84.5551 100.304 89.5523 99.0626 91.464 101.997C93.1074 104.513 92.0175 109.107 92.051 111.807C92.1516 120.611 91.9504 129.415 91.4808 138.202C91.2125 143.199 90.8603 148.18 90.3908 153.16Z" fill="#E2CBB7"/>
<path d="M77.568 37.5396C76.3607 35.913 74.5831 34.7391 73.4596 33.0454C72.4869 31.5865 72.0845 29.7083 72.6715 28.0649C73.2584 26.4216 74.9688 25.1639 76.696 25.3819L74.8179 25.2812C73.0236 25.7843 71.0112 26.4551 70.2734 28.1823C69.7367 29.44 70.089 30.8822 70.3573 32.207C70.7598 34.1186 70.9944 36.1309 70.4914 38.0259C70.1057 39.468 69.3175 40.776 68.8144 42.1846C68.3114 43.5933 68.1269 45.2534 68.9318 46.5279C69.6194 47.6011 70.9106 48.188 72.1851 48.2551C73.4595 48.3222 74.7173 47.9029 75.8743 47.3663C76.8805 46.8968 77.8699 46.2763 78.4903 45.354C79.1276 44.3814 79.312 43.174 79.2282 42.0169C79.1108 40.3903 78.5239 38.8308 77.568 37.5396Z" fill="#534741"/>
<path d="M106.392 10.7243C110.4 25.3638 108.908 25.2632 106.174 33.6813C105.654 35.2912 104.413 37.9743 103.608 39.45C102.217 41.9653 100.07 43.9273 97.9405 45.8558C97.5045 46.2583 97.0349 46.6607 96.4816 46.8787C95.9785 47.0632 95.4419 47.0632 94.9052 46.9793C93.3122 46.711 91.9707 45.5036 91.4005 44.0112C90.713 42.2169 91.7694 41.5293 93.1277 40.5232C95.8108 38.5277 97.0685 36.683 99.2485 34.067C100.473 32.6081 101.211 30.797 101.881 29.0027C103.592 24.475 104.397 24.4583 104.33 17.6835C104.313 16.5096 103.541 12.8204 103.005 11.764C102.368 10.5398 101.915 9.48334 101.462 8.46042C101.127 8.09149 100.959 7.32011 100.842 7.0015C100.607 6.36426 100.204 5.77734 99.7013 5.3078C99.4162 5.05626 99.0808 4.8215 99.0137 4.45257C98.997 4.31842 98.997 4.20103 98.9635 4.06688C98.9299 3.93273 98.846 3.81534 98.7789 3.71473C98.6112 3.47996 98.4101 3.27872 98.1921 3.09426C98.0411 2.96011 97.8735 2.82595 97.7896 2.64149C97.6387 2.27257 97.5716 1.26642 97.8399 0.947802C98.0243 0.713033 99.215 -0.0751229 99.651 0.00872327C99.9528 0.059031 100.271 -0.0583529 100.573 0.0422625C100.942 0.159647 101.294 0.327338 101.613 0.545338C101.965 0.796877 102.267 1.09873 102.552 1.40057C103.525 2.4235 103.592 4.48611 104.397 5.65996L106.392 10.7243Z" fill="#E2CBB7"/>
<path d="M84.81 39.8184C87.3925 39.6004 90.3271 38.9632 92.3394 40.5227C93.8151 41.663 94.2176 43.5915 94.4691 45.369C96.5317 59.6899 95.0057 74.2456 95.8945 88.6672C96.1628 93.1278 96.6827 97.5716 97.4037 101.982C97.6217 103.34 97.89 104.715 98.5775 105.923C98.98 106.61 99.4999 107.231 99.7849 107.969C100.623 110.132 98.9799 112.597 96.7832 113.62C94.5864 114.643 92.0375 114.592 89.606 114.525C81.976 114.307 74.3627 114.106 66.7327 113.888C64.8043 113.838 62.6914 113.704 61.3331 112.412C59.9748 111.121 59.8406 109.109 59.9244 107.281C60.3101 98.1586 63.6975 89.405 65.9279 80.5173C68.1414 71.7135 69.2482 62.7084 71.3946 53.8878C72.384 49.8296 73.323 44.9498 75.503 41.2773C77.4986 37.957 81.4059 40.0867 84.81 39.8184Z" fill="#D9924E"/>
<path d="M58.983 50.6322C57.5744 51.7558 55.7466 52.9296 54.0865 52.2253C52.9294 51.739 52.3257 50.4981 51.7891 49.3578C49.3743 44.0922 46.8253 38.8938 44.2764 33.6953C43.2199 34.2822 42.0293 35.0368 41.8952 36.2442C41.8281 36.8815 42.0965 37.5187 42.3648 38.1056C45.4 44.9307 48.7035 51.6384 52.2753 58.2119C52.6107 58.8324 52.9964 59.5032 53.6169 59.8385C54.3715 60.241 55.2938 60.0901 56.1323 59.8888C61.0792 58.6982 65.6907 56.4344 70.101 53.919C71.2749 53.2482 72.5158 52.4936 73.0357 51.2527C73.4717 50.2633 73.3711 49.1398 73.2705 48.0665C72.9854 45.2158 71.4928 40.5707 67.9545 43.2538C64.869 45.5512 62.0015 48.2342 58.983 50.6322Z" fill="#E2CBB7"/>
<path d="M43.5401 30.6462C43.188 30.3779 42.7184 30.3779 42.2992 30.227C41.2763 29.8413 40.8067 28.5836 39.8677 28.0134C39.0292 27.4936 37.8386 27.6612 37.1511 28.3823C36.4803 29.0866 36.2959 30.1431 36.1617 31.1157C36.1114 31.4679 36.0611 31.82 36.1449 32.1554C36.2456 32.5411 36.5139 32.8429 36.7654 33.1112C38.0399 34.4528 39.5323 35.5596 41.1757 36.3813C41.5111 36.5489 41.8465 36.6999 42.2154 36.7166C43.6408 36.8173 44.4792 35.3919 44.4792 34.2516C44.496 33.5472 44.127 31.0822 43.5401 30.6462Z" fill="#E2CBB7"/>
<path d="M91.6853 22.5463C91.417 21.406 91.0648 20.2825 90.5785 19.2428C88.8513 15.5536 83.6192 10.7408 79.2928 13.34C78.2866 13.9437 77.5153 14.866 76.7942 15.7883C76.0563 16.7442 75.352 17.7336 74.7986 18.8068C73.7589 20.8359 73.2391 23.2674 73.5242 25.548C73.7925 27.661 74.8322 29.7403 75.8215 31.6185C77.1128 34.1003 78.8233 36.6157 81.4561 37.5716C84.9608 38.846 89.0357 36.6828 90.8468 33.4296C92.6076 30.1763 92.5405 26.1685 91.6853 22.5463Z" fill="#E2CBB7"/>
<path d="M80.5025 17.0958C79.5969 18.605 78.3224 19.846 76.9977 21.003C75.9747 21.9086 74.868 22.8477 74.4655 24.1557C74.1301 25.2289 74.3314 26.386 74.063 27.476C73.2749 27.6101 72.6713 26.822 72.252 26.1344C71.6316 25.078 70.9943 23.988 70.7596 22.7806C70.5919 21.8918 70.6589 20.9695 70.726 20.0807C70.8601 18.3703 71.0614 16.6263 71.8328 15.117C72.6545 13.524 74.0967 12.2663 75.8071 11.6794C77.2157 11.193 79.8652 10.9583 81.1061 12.065C82.498 13.306 81.2739 15.8549 80.5025 17.0958Z" fill="#534741"/>
<path d="M107.215 39.2808C106.527 38.1069 105.538 37.1343 104.716 36.0443C102.435 33.0762 101.446 29.3534 99.8529 25.966C99.1821 24.5574 98.3269 23.1153 96.9519 22.3606C96.1469 21.9246 94.6377 21.7737 93.6651 22.2768C93.6818 21.9582 93.7154 21.6228 93.7154 21.3042C93.7825 17.9839 92.8601 14.5126 90.5124 12.1649C88.1647 9.81725 84.224 8.92848 81.4068 10.6725C79.4951 11.8631 78.5392 15.1163 81.172 16.1393C82.044 16.4746 83.1508 16.3237 84.0731 16.592C85.465 16.9945 86.8065 17.6485 87.93 18.5708C89.7746 20.0632 91.0324 22.4277 90.7976 24.8089C91.0491 24.44 91.2335 24.0376 91.3509 23.6183C92.072 24.0879 91.7198 25.1779 91.4851 25.9996C91.0323 27.6429 91.3845 29.3869 91.7367 31.0471C92.3236 29.1019 92.8937 27.1231 93.2794 25.1443C93.9334 26.2008 95.0401 27.2405 95.5264 27.928C98.3269 31.7849 98.9474 36.8493 98.6624 41.6117C98.5785 43.0203 98.4275 44.496 98.9977 45.7873C99.7523 47.5145 101.798 48.5374 103.676 48.2691C105.554 48.0008 107.164 46.5419 107.802 44.7643C108.439 42.97 108.154 40.9242 107.215 39.2808Z" fill="#534741"/>
<path d="M90.8966 150.346C91.1817 150.38 91.4835 150.43 91.7183 150.598C92.0202 150.816 92.1375 151.185 92.2046 151.554C92.5232 153.097 92.2381 154.79 92.9592 156.182C93.3281 156.903 93.9486 157.49 94.6864 157.809C95.4578 158.144 96.3298 158.194 97.1012 158.547C97.8726 158.882 98.5602 159.72 98.3086 160.525C98.0068 161.481 96.7156 161.632 95.7094 161.582C93.8983 161.498 92.0705 161.431 90.2594 161.347C88.9682 161.297 87.5427 161.179 86.6204 160.274C85.8658 159.519 85.6478 158.396 85.5137 157.322C85.3125 155.746 84.5746 152.141 85.5639 150.749C86.4695 149.458 89.6054 150.196 90.8966 150.346Z" fill="#ACB18F"/>
<path d="M65.8963 148.634C66.2652 148.751 66.6678 148.902 66.9025 149.204C67.1876 149.556 67.1876 150.043 67.1876 150.495C67.1876 152.29 67.1708 154.084 67.1372 155.861C67.1205 156.65 67.1037 157.455 66.8186 158.192C66.2149 159.769 64.3704 160.725 62.7102 160.389C61.8885 160.221 61.1338 159.802 60.4128 159.366C60.1277 159.199 59.8427 159.014 59.6414 158.763C59.3731 158.41 59.3228 157.941 59.3228 157.505C59.306 156.264 59.675 155.057 60.0439 153.866C60.5973 152.055 60.9662 150.009 61.7544 148.282C62.4419 146.756 64.6722 148.215 65.8963 148.634Z" fill="#ACB18F"/>
<path d="M90.0633 14.5503C89.4597 14.0305 88.8224 14.7348 88.4535 15.2043C87.833 16.0093 87.1622 16.8813 86.6759 17.77C86.5082 18.0719 86.7933 18.3905 87.0784 18.3737C87.1958 18.4911 87.2964 18.5917 87.4306 18.6756C87.5983 18.7594 87.8163 18.7762 87.9672 18.6756C88.3529 18.424 88.6715 18.0048 88.9733 17.6862C89.3758 17.267 89.7782 16.8477 90.1806 16.4285C90.8346 15.7913 90.818 15.1876 90.0633 14.5503Z" fill="#DD7A8F"/>
<path d="M92.6397 17.2781C92.472 16.8756 92.036 16.5738 91.6 16.775C91.0634 17.0265 90.577 17.6638 90.1746 18.083C89.7218 18.5861 89.3026 19.1059 88.9337 19.6761C88.7827 19.9108 88.9673 20.1791 89.202 20.2462C89.2188 20.4307 89.3361 20.6151 89.5877 20.7493C90.1075 21.0511 90.5771 20.5648 90.9292 20.2295C91.4155 19.7935 91.8516 19.2904 92.254 18.7705C92.5894 18.3513 92.8745 17.8315 92.6397 17.2781Z" fill="#DD7A8F"/>
<path d="M114.261 72.8681C114.865 73.237 115.553 73.5892 116.257 73.455C117.246 73.2538 117.766 72.1806 118.135 71.2415C119.477 67.787 120.801 64.3158 122.143 60.8614C123.367 57.7087 124.608 54.422 124.457 51.0346C124.39 49.4583 123.535 47.513 121.975 47.6472C121.053 47.7143 120.382 48.5192 119.862 49.2738C117.816 52.2252 117.682 55.2772 116.844 58.782C116.508 60.2074 115.754 63.5947 114.949 64.8021C114.127 66.0095 112.685 65.0201 111.327 64.4835C110.203 64.0307 108.191 61.9178 107.403 60.9955C105.675 58.9664 105.256 58.5975 103.965 57.5411C103.127 56.8535 102.992 56.9373 101.902 56.9038C96.1841 56.7529 103.378 64.014 104.569 65.2213C107.436 68.1895 110.706 70.772 114.261 72.8681Z" fill="#B79A7D"/>
<path d="M139.467 78.9546C132.659 79.1726 125.532 77.4454 118.858 79.3235C118.824 105.014 120.249 133.505 122.48 159.028C124.609 159.028 126.739 159.028 128.869 159.028C130.613 145.16 130.11 132.029 130.529 118.128C131.3 124.6 132.793 128.306 134.335 136.356C135.057 140.078 135.895 143.734 136.515 147.49C136.834 149.402 137.17 151.331 137.538 153.226C137.857 154.852 138.444 156.563 138.394 158.273C140.473 158.625 142.62 157.736 144.649 157.233C144.649 153.796 144.649 150.341 144.649 146.904C144.649 142.393 144.431 138.049 144.028 133.589C143.659 129.396 143.072 125.104 143.072 120.878C142.854 118.094 142.636 115.31 142.469 112.51C142.116 106.205 143.877 97.451 143.609 91.1458C143.475 88.01 141.479 87.3057 141.161 84.1866C141.01 82.6774 140.842 81.1514 140.607 79.6589C140.523 79.1223 140.557 78.3341 140.087 78.2838C139.987 78.2335 139.769 78.9378 139.467 78.9546Z" fill="#B79A7D"/>
<path d="M129.818 40.7266C131.076 39.754 132.132 38.2783 132.837 36.3498C134.128 32.778 135.033 28.9714 134.53 25.1983C133.927 20.8718 130.673 15.7908 125.861 15.4386C120.209 15.0362 118.549 21.9786 117.577 26.6405C116.805 30.3465 117.023 34.4046 118.985 37.6243C121.903 42.4538 126.515 43.2923 129.818 40.7266Z" fill="#B79A7D"/>
<path d="M122.563 19.8442C122.814 20.3976 123.485 20.7162 124.072 20.5485C124.659 20.3976 125.078 19.7771 125.011 19.1734C125.682 20.5653 127.879 20.8504 128.885 19.6933C128.449 19.5759 128.616 20.3808 129.019 20.582C129.857 20.9677 130.863 20.9845 131.702 20.5988C131.081 20.951 131.484 21.89 131.937 22.4434C132.289 22.8627 132.624 23.2987 132.976 23.7179C132.356 24.6905 133.48 26.183 134.586 25.8644C133.815 26.2333 133.597 27.3904 134.167 28.0108C133.647 28.6145 133.278 29.3524 133.144 30.1405C133.614 30.174 133.798 30.9454 133.379 31.1802C133.748 31.4485 134.251 31.4988 134.67 31.3144C134.419 31.3647 134.519 31.8174 134.771 31.851C135.022 31.8845 135.24 31.6665 135.374 31.4317C135.76 30.7945 135.878 30.0064 135.66 29.2853C136.448 28.9164 136.649 27.9102 136.749 27.0382C136.8 26.6022 136.85 26.1662 136.9 25.7302C136.951 25.311 137.001 24.875 136.833 24.4893C136.666 24.1036 136.23 23.785 135.827 23.9359C136.783 23.785 137.303 22.4434 136.699 21.6888C138.041 21.2025 138.158 18.9387 136.867 18.3182C137.269 17.463 137.085 16.373 136.397 15.719C135.727 15.065 134.62 14.8805 133.781 15.2997C133.915 15.4842 134.251 15.35 134.318 15.132C134.385 14.914 134.268 14.6793 134.133 14.4948C133.245 13.2539 131.417 12.7844 130.025 13.4384C129.237 12.3148 127.543 11.9291 126.353 12.6167C126.604 12.7508 126.94 12.6167 127.04 12.3484C126.353 11.7111 125.514 11.1242 124.558 11.141C123.619 11.1577 122.68 12.0968 122.999 12.9856C121.54 12.231 119.511 13.7234 119.796 15.3333C118.84 15.2662 117.8 15.4674 117.146 16.1717C116.492 16.8593 116.392 18.1337 117.129 18.7374C116.039 18.7039 114.983 19.5591 114.782 20.6324C114.581 21.7056 115.251 22.8794 116.291 23.2484C115.385 23.8856 114.732 24.875 114.48 25.9482C114.782 26.3674 115.168 26.7028 115.62 26.9376C115.352 27.0717 115.218 27.4071 115.318 27.6922C115.905 28.1282 116.576 28.5977 117.314 28.4971C118.052 28.4133 118.622 27.4239 118.085 26.9208C119.192 26.401 119.779 24.9756 119.36 23.8353C119.628 23.7682 119.896 23.7011 120.181 23.634C120.534 23.0639 120.752 22.1248 120.131 21.9236C120.718 22.3931 121.64 22.3596 122.211 21.8733C122.797 21.4037 122.932 20.4814 122.563 19.8442Z" fill="#333333"/>
<path d="M138.798 10.0016C139.519 10.2867 139.385 11.4773 138.714 11.863C138.043 12.2487 137.188 12.014 136.484 11.6786C136.853 11.7624 137.054 12.2823 136.819 12.5841C135.763 12.8692 134.572 12.6344 133.683 11.9804C133.935 11.8798 134.187 12.2487 134.086 12.5003C133.985 12.7518 133.683 12.8692 133.398 12.9195C132.51 13.0536 131.571 12.668 131.051 11.9301C131.705 11.7289 132.157 12.8021 131.705 13.322C131.252 13.8418 130.43 13.8083 129.776 13.5735C129.592 13.5064 129.391 13.4058 129.323 13.2213C129.726 13.2046 129.944 13.758 129.726 14.0933C129.508 14.4287 129.022 14.4958 128.669 14.3449C128.301 14.194 128.032 13.8753 127.831 13.54C127.932 13.7412 127.948 13.9927 127.865 14.194C127.127 14.1604 126.473 13.5735 126.355 12.8524C126.238 12.7518 126.439 12.517 126.557 12.6176C125.768 12.2152 125.098 11.5444 124.695 10.7563C124.075 11.1252 123.152 10.8904 122.8 10.2532C122.297 10.337 121.761 10.1861 121.392 9.83395C121.207 10.1693 120.754 10.2867 120.402 10.1693C120.05 10.052 119.765 9.73334 119.597 9.39795C119.514 9.23026 119.463 9.0458 119.547 8.87811C119.648 8.72718 119.949 8.74395 119.949 8.92841C119.061 8.89487 118.289 8.10672 118.239 7.23472C118.507 7.23472 118.776 7.35211 118.943 7.57011C118.323 7.5198 117.853 6.79872 118.071 6.2118C118.273 5.62488 119.094 5.35657 119.597 5.70872C119.228 5.32303 119.061 4.73611 119.195 4.21626C119.413 4.16595 119.648 4.09887 119.866 4.04857C119.212 3.79703 119.195 2.70703 119.815 2.38842C120.419 2.05303 121.291 2.55611 121.358 3.26042C120.771 2.97534 120.771 1.98595 121.341 1.68411C121.911 1.38226 122.733 1.93565 122.649 2.57288C122.683 2.12011 123.102 1.73442 123.555 1.76796C124.008 1.78473 124.393 2.22072 124.377 2.67349C124.477 2.15364 124.779 1.60026 125.316 1.49965C125.835 1.39903 126.389 2.10334 126.003 2.48903C125.785 1.78473 126.64 1.13072 127.362 1.24811C128.083 1.34872 128.653 1.91888 129.156 2.45549C129.223 2.01949 129.642 1.68411 130.078 1.70088C130.514 1.73442 130.9 2.12011 130.9 2.55611C130.581 2.23749 130.715 1.61703 131.135 1.44934C131.554 1.28164 132.074 1.66734 132.057 2.10334C132.359 1.58349 132.996 1.31518 133.566 1.44934C134.136 1.58349 134.589 2.12011 134.639 2.70703C134.673 2.32134 135.042 2.05303 135.428 1.98595C135.796 1.93564 136.182 2.03626 136.551 2.13688C136.987 2.27103 137.457 2.42195 137.691 2.80765C137.926 3.19334 137.708 3.84734 137.255 3.8138C137.859 3.79703 138.547 3.83057 138.932 4.28334C139.318 4.75288 138.865 5.69195 138.329 5.44042C139.05 5.37334 139.855 5.69195 140.106 6.36272C140.358 7.03349 139.771 7.93903 139.066 7.77134C139.653 7.85518 140.123 8.45888 140.056 9.0458C139.989 9.58242 139.402 10.052 138.798 10.0016Z" fill="#333333"/>
<path d="M139.196 46.6562L139.364 47.0419C139.314 46.9246 139.247 46.7904 139.196 46.6562Z" fill="#B79A7D"/>
<path d="M128.635 161.311C128.652 160.389 128.669 159.45 128.669 158.528C127.059 157.958 125.215 158.075 123.705 158.863C123.538 158.947 123.219 158.897 123.32 158.746C121.911 160.02 120.284 161.043 118.54 161.764C118.138 161.932 117.719 162.083 117.417 162.385C116.78 163.005 116.88 164.229 117.618 164.732C118.306 165.219 119.245 165.051 120.066 164.866C122.397 164.347 124.728 163.844 127.059 163.324C127.478 163.223 127.948 163.122 128.233 162.804C128.602 162.418 128.619 161.848 128.635 161.311Z" fill="#4D4D4D"/>
<path d="M144.818 158.373C144.482 157.501 144.147 156.645 143.812 155.773C142.101 155.841 140.441 156.645 139.334 157.953C139.217 158.088 138.898 158.155 138.932 157.987C138.093 159.681 136.97 161.24 135.628 162.565C135.326 162.867 134.991 163.169 134.823 163.554C134.471 164.376 135.008 165.466 135.88 165.667C136.701 165.852 137.506 165.349 138.194 164.879C140.156 163.538 142.135 162.179 144.113 160.838C144.482 160.586 144.851 160.318 145.002 159.915C145.187 159.412 145.002 158.876 144.818 158.373Z" fill="#4D4D4D"/>
<path d="M114.649 97.2366C114.145 97.941 113.475 98.5111 112.955 99.2154C111.496 101.194 111.529 104.045 112.737 106.191C113.961 108.321 116.225 109.746 118.623 110.283C121.071 110.82 123.62 110.518 126.102 110.82C128.617 111.138 131.049 112.094 133.581 112.312C137.32 112.631 140.993 111.323 144.531 110.048C147.08 109.126 149.998 107.784 150.551 105.118C150.82 103.793 150.417 102.435 149.981 101.161C148.875 97.9242 147.583 94.7716 146.074 91.7196C145.856 91.2668 145.621 90.814 145.236 90.4786C144.38 89.7576 143.106 89.9253 141.999 90.1265C136.499 91.1326 130.898 91.7028 125.314 91.837C123.972 91.8705 122.631 91.8873 121.306 91.8705C120.115 91.8537 118.019 91.3506 116.912 91.7196C115.738 92.122 116.107 92.8096 115.856 94.1343C115.638 95.2411 115.303 96.3143 114.649 97.2366Z" fill="#662E2A"/>
<path d="M133.769 44.8492C134.205 44.7989 134.674 44.7654 135.093 44.8827C136.016 45.1511 136.368 46.0566 136.586 46.8447C137.408 49.7123 138.212 52.5798 139.034 55.4474C139.688 57.728 140.325 59.9918 140.979 62.2724C142.958 69.2149 144.937 76.1909 146.128 83.2507C146.513 85.5649 146.832 87.8958 147.05 90.2267C147.067 90.4783 147.1 90.7634 146.949 90.9814C146.765 91.2497 146.396 91.3838 146.044 91.5012C136.234 94.6203 125.015 95.9954 115.306 92.6918C115.507 87.6778 115.708 82.6806 115.926 77.6666C116.111 73.3066 116.278 68.9634 116.765 64.6201C117.368 59.1366 118.475 53.7034 120.051 48.3707C120.286 47.5994 120.504 45.1175 121.309 44.648C122.148 44.1617 123.757 45.0169 124.78 45.1678C127.748 45.6038 130.817 45.151 133.769 44.8492Z" fill="#AA4A4D"/>
<path d="M137.689 47.1316C141.227 54.9126 144.782 62.6767 148.321 70.4576C148.673 71.229 149.042 72.0507 148.941 72.8892C148.841 73.8618 148.153 74.6667 147.499 75.4046C143.676 79.7478 139.668 84.2252 134.369 86.5561C133.514 86.9418 132.574 87.2604 131.635 87.143C130.696 87.0256 129.774 86.3549 129.657 85.4158C129.506 84.1246 130.797 83.2023 131.887 82.4979C134.922 80.5695 137.639 78.1044 139.869 75.2704C140.724 74.1804 141.529 72.973 141.68 71.5812C141.848 70.0552 141.177 68.5627 140.506 67.1709C138.276 62.4587 135.677 58.0484 133.212 53.4872C132.289 51.7935 131.853 50.3849 132.96 48.6576C133.882 47.2658 136.599 44.7336 137.689 47.1316Z" fill="#B79A7D"/>
<path d="M130.056 22.5583C129.821 22.9943 129.569 23.4638 129.586 23.9669C129.603 24.47 129.972 25.0066 130.475 24.9898C129.586 25.4426 129.502 26.9183 130.341 27.4884C129.737 28.0251 129.871 29.1654 130.575 29.5678C130.072 30.0709 130.29 31.0938 130.978 31.3454C130.492 31.6472 130.307 32.3515 130.575 32.8546C130.844 33.3577 131.515 33.6092 132.051 33.3912C131.749 33.7098 131.447 34.062 131.431 34.498C131.414 34.934 131.867 35.3867 132.252 35.2023C131.632 35.6886 131.682 36.7954 132.353 37.2314C133.007 37.6674 134.047 37.2649 134.248 36.4935C134.55 36.9128 135.204 36.9463 135.64 36.6612C136.076 36.3761 136.311 35.8731 136.411 35.37C136.981 35.3868 137.585 35.3364 138.038 35.0011C138.491 34.6657 138.709 33.9446 138.323 33.5086C138.826 33.5589 139.346 33.2738 139.581 32.8211C139.815 32.3683 139.748 31.7814 139.413 31.3957C140.05 31.1441 140.637 30.6578 140.738 29.9871C140.838 29.3163 140.268 28.5617 139.597 28.6791C140.553 28.2598 141.107 27.086 140.805 26.0798C140.721 25.8115 140.402 25.5264 140.218 25.7444C140.771 25.3252 141.157 24.6712 141.123 23.9837C141.09 23.2961 140.52 22.6421 139.832 22.6086C140.369 22.3068 140.603 21.5521 140.335 20.982C140.067 20.4286 139.312 20.1435 138.742 20.3951C138.809 19.9591 138.876 19.5231 138.927 19.1038C138.943 18.9529 138.96 18.7684 138.859 18.6511C138.776 18.5504 138.625 18.5337 138.474 18.5337C138.021 18.5169 137.552 18.584 137.116 18.7349C137.25 18.2821 137.015 17.7623 136.596 17.5611C136.176 17.3598 135.623 17.4772 135.338 17.8461C133.98 16.7226 131.615 17.2592 130.861 18.8523C129.871 18.1144 129.167 19.5063 128.982 20.2944C128.882 20.764 128.865 21.3341 129.066 21.7701C129.117 21.854 129.921 22.8098 130.056 22.5583Z" fill="#333333"/>
<path d="M80.5364 81.8419C80.5867 82.1102 80.637 82.3785 80.7712 82.6133C80.9053 82.848 81.1401 83.0493 81.4084 83.0493C81.5258 83.0493 81.66 83.0157 81.7774 83.0493C81.9619 83.0828 82.096 83.2505 82.1798 83.4349C82.4817 84.0889 82.314 84.9274 82.8003 85.4473C83.186 85.8665 83.8568 85.9 84.3934 85.7156C84.8462 85.5479 85.2654 85.1957 85.4331 84.7429C85.584 84.2734 85.4666 83.7536 85.2989 83.3008C84.712 81.7413 83.5549 80.383 83.3201 78.7228C83.2866 78.488 83.2698 78.2197 83.1189 78.0353C82.8674 77.7334 82.4146 77.7502 82.0289 77.834C81.4755 77.9514 80.2514 78.1862 80.0669 78.8402C79.9495 79.2259 80.1843 79.8296 80.2681 80.2153C80.352 80.7519 80.4358 81.3053 80.5364 81.8419Z" fill="#F9E9DE"/>
<path d="M11.9972 37.8055C11.7457 36.7993 11.6451 35.7764 11.3097 34.787C11.2258 34.5187 11.1085 34.2504 10.8905 34.0659C10.7395 33.9318 10.5383 33.8647 10.3706 33.7641C9.48185 33.2107 9.39801 31.7685 8.44216 31.3828C7.88878 31.1481 7.21799 31.3829 6.74846 31.7685C6.01061 32.3555 5.54105 33.2778 5.52428 34.2169C5.49074 35.3739 6.09444 36.4639 6.78198 37.3862C7.46951 38.3085 8.29124 39.1638 8.81109 40.1867C9.02909 40.6059 9.19676 41.0587 9.46506 41.4444C9.73337 41.8301 10.1358 42.1655 10.6054 42.199C11.1755 42.2493 11.6619 41.8636 12.1146 41.5115C12.7016 41.0419 13.5064 40.6898 12.9698 39.9184C12.5003 39.2644 12.1985 38.5936 11.9972 37.8055Z" fill="#F9E9DE"/>
<path d="M56.9209 114.043C57.0383 116.072 57.1725 118.101 57.5582 120.096C57.86 121.656 58.3128 123.182 58.7823 124.691C61.4654 133.31 64.8192 141.729 68.8271 149.828C69.1624 150.516 69.5649 151.253 70.2692 151.555C71.376 152.025 72.684 151.086 73.0529 149.929C73.4219 148.772 73.12 147.531 72.8349 146.357C71.3257 140.37 69.8164 134.4 68.3072 128.414C67.9383 126.972 67.5861 125.529 67.3681 124.054C67.1166 122.327 67.0663 120.583 67.0327 118.839C66.9489 115.619 66.8651 112.382 67.2173 109.179C67.4688 106.932 67.9216 104.702 68.3408 102.472C69.0954 98.464 69.7158 94.4226 70.1854 90.3644C70.3195 89.2073 70.4537 88.0167 70.1854 86.8764C69.5314 83.9586 66.4291 82.0469 63.4442 82.0469C61.2307 82.0469 58.8326 82.9021 57.0718 84.2269C55.5961 85.3504 55.7638 86.4237 55.8477 88.1341C56.116 93.6344 56.1998 99.1515 56.4346 104.652C56.5855 107.788 56.7365 110.923 56.9209 114.043Z" fill="#ADADAD"/>
<path d="M40.4556 91.891C40.4892 89.4594 40.5395 86.9944 41.1599 84.7138C41.7804 82.4331 43.0213 80.3202 44.8156 79.4314C46.9788 78.3582 49.662 79.2973 51.3724 81.3934C53.0829 83.4896 53.8711 86.5416 53.7872 89.4427C53.7369 90.9687 53.4685 92.4611 53.3008 93.9704C52.9654 96.7876 52.9822 99.6719 52.9152 102.523C52.7139 111.461 51.8755 120.315 51.037 129.169C50.4333 135.491 49.8464 141.813 49.2427 148.135C49.0918 149.695 48.9576 151.271 48.8067 152.83C48.6222 154.641 48.4378 155.279 46.7777 155.111C44.6983 154.91 44.5977 153.199 44.3461 150.952C42.904 138.325 41.6462 125.664 40.9587 112.97C40.573 105.96 40.3383 98.9005 40.4556 91.891Z" fill="#ADADAD"/>
<path d="M34.5209 89.4607C33.5483 91.6239 32.0223 93.5356 31.2845 95.7827C30.5634 98.0465 30.9491 100.964 33.0285 102.105C35.3091 103.362 38.3611 101.87 40.6921 103.027C42.4361 103.882 43.2912 105.995 45.0184 106.901C46.5277 107.689 48.3555 107.387 49.9486 106.8C51.5417 106.213 53.0342 105.341 54.6943 105.006C56.4719 104.637 58.3668 104.922 59.9767 105.777C61.335 106.515 62.5926 107.672 64.1354 107.706C66.9359 107.756 68.6799 104.134 71.4636 103.949C72.6374 103.882 73.761 104.436 74.9348 104.352C77.1986 104.184 78.624 101.635 78.5067 99.3713C78.3893 97.1074 77.2322 95.0616 76.3267 92.9822C75.287 90.5842 74.5659 88.052 74.197 85.4696C73.8951 83.2896 73.6268 80.7407 71.7486 79.6171C70.8095 79.047 69.6525 78.9799 68.5625 78.9799C61.0499 78.8961 53.6043 80.422 46.0917 80.137C43.5092 80.0364 39.7865 78.3762 37.9755 80.573C35.9799 83.038 35.7786 86.6434 34.5209 89.4607Z" fill="#F2F2F2"/>
<path d="M43.3586 149.172C43.0399 149.994 43.2915 150.899 43.4927 151.754C43.8784 153.398 44.0461 155.108 43.979 156.802C43.979 156.936 43.9623 157.07 43.912 157.204C43.7778 157.506 43.4089 157.624 43.0903 157.691C41.8158 157.976 40.4911 158.026 39.2166 157.842C38.3781 157.724 37.439 157.54 36.785 158.076C36.3994 158.378 36.2149 158.865 36.0808 159.334C35.8795 159.988 35.7454 160.642 35.6448 161.313C35.5274 162.185 35.5441 163.225 36.2484 163.761C36.7012 164.097 37.2882 164.147 37.8583 164.164C41.3295 164.281 44.8175 164.18 48.2887 163.828C48.9427 163.761 49.6806 163.627 50.016 163.057C50.2005 162.738 50.2004 162.353 50.2004 161.984C50.1837 159.334 50.1166 156.685 49.9992 154.035C49.9321 152.71 49.8483 151.385 49.7644 150.061C49.7309 149.658 49.8315 149.004 49.3955 148.803C49.0266 148.619 48.0205 148.971 47.618 149.021C47.1988 149.088 43.3921 149.088 43.3586 149.172Z" fill="#736357"/>
<path d="M72.6835 144.445C73.4046 146.91 74.1425 149.375 74.8636 151.841C75.1319 152.729 75.4001 153.635 75.8361 154.457C76.0876 154.926 76.3895 155.362 76.6746 155.798C77.4795 157.056 78.1 158.431 78.5192 159.873C78.6031 160.192 78.6869 160.51 78.6533 160.846C78.603 161.231 78.4018 161.583 78.167 161.885C77.077 163.277 75.1821 163.981 73.4549 163.629C73.1027 163.562 72.7506 163.445 72.4823 163.227C72.1301 162.959 71.9289 162.539 71.778 162.137C70.5874 159.185 70.6712 155.832 69.3464 152.931C69.0278 152.226 68.6253 151.555 68.3067 150.834C68.072 150.298 67.8875 149.744 67.7031 149.191C67.4851 148.537 66.9316 147.514 66.9316 146.827C66.9316 146.173 67.703 146.022 68.2899 145.77C69.7321 145.166 71.191 144.73 72.6835 144.445Z" fill="#736357"/>
<path d="M35.4933 81.6954C35.7449 81.947 36.1473 82.014 36.4324 82.232C36.7846 82.5003 36.9355 83.0034 36.7678 83.4226C36.6169 83.8251 36.1977 84.1605 36.2815 84.5797C36.3821 85.1499 37.2038 85.2002 37.7069 84.9319C38.21 84.6636 38.713 84.2276 39.2832 84.3114C39.9204 84.3953 40.2726 85.0828 40.5745 85.6697C40.8763 86.2399 41.4129 86.8771 42.0334 86.7094C42.4861 86.592 42.788 86.0722 43.2575 86.0219C43.9618 85.938 44.2972 86.81 44.6661 87.397C45.1189 88.118 46.0244 88.6211 46.8293 88.336C47.5169 88.0845 47.9696 87.3467 48.6907 87.2628C49.4285 87.179 50.0155 87.8162 50.5354 88.336C51.0552 88.8559 51.8601 89.359 52.4806 88.9733C52.6818 88.8559 52.816 88.6714 52.9669 88.5037C53.7216 87.682 54.9624 87.3467 56.0356 87.6653C56.7232 87.8665 57.3101 88.3025 57.9641 88.5373C58.6349 88.7888 59.4734 88.7888 59.9429 88.269C60.1609 88.0174 60.2783 87.6988 60.4963 87.4473C61.0497 86.8436 62.0223 86.9945 62.7937 87.2796C63.5651 87.5479 64.4203 87.9 65.1581 87.5479C65.8959 87.179 66.2649 86.1896 67.0866 86.0387C67.5729 85.9548 68.0424 86.1896 68.5287 86.2231C69.3672 86.2734 70.1721 85.6194 70.2895 84.7977C70.8764 84.848 71.4968 84.8816 72.0502 84.63C72.5868 84.3785 73.0062 83.7413 72.7714 83.1879C73.5595 83.2214 74.0961 82.0644 73.5427 81.4942C73.2576 81.2091 72.7714 81.0582 72.6708 80.6557C72.5869 80.3036 72.8217 79.8508 72.5366 79.6328C71.7484 79.9682 71.2789 80.7563 70.6752 81.36C69.7362 82.2991 68.4449 82.7687 67.1536 83.104C62.3409 84.3785 57.2598 83.976 52.2961 83.54C48.7746 83.2382 45.1859 82.9028 41.8824 81.6451C41.3122 81.4271 40.7421 81.1923 40.1552 81.0414C39.0149 80.7563 37.8243 80.5048 36.7008 80.2533C35.9126 80.0688 34.7052 80.8905 35.4933 81.6954Z" fill="white"/>
<path d="M54.3899 21.3078C53.5011 22.0959 52.2937 22.3978 51.1534 22.7499C50.0131 23.1021 48.8393 23.5381 48.1014 24.4771C47.5816 25.1311 47.3636 25.9696 47.1456 26.7745C46.7431 28.2502 46.3574 29.8936 47.0617 31.2687C47.4139 31.973 48.0343 32.5264 48.2859 33.281C48.6045 34.2201 48.2691 35.243 47.8331 36.1318C47.3971 37.0205 46.8605 37.8925 46.7263 38.8651C46.6257 39.5695 46.7431 40.3241 46.5419 40.9948C46.173 42.2022 44.8314 42.9065 43.5737 42.9568C42.316 43.0072 41.0919 42.5208 39.918 42.0513C39.1131 41.7327 38.2243 41.2967 38.0231 40.4582C37.8889 39.8378 38.1908 39.2173 38.5765 38.7142C38.9622 38.2112 39.4485 37.7919 39.7504 37.2385C39.9013 36.9535 40.0186 36.6181 39.8845 36.3162C39.7168 35.9473 39.2137 35.8132 39.046 35.4442C38.8448 34.9915 39.2305 34.4884 39.6498 34.2033C40.0522 33.9182 40.5553 33.6499 40.6727 33.1636C40.8739 32.3419 39.8342 31.7382 39.5826 30.9333C39.2975 30.0613 39.9684 29.1893 40.5888 28.5185C41.2093 27.8478 41.8632 26.9758 41.5782 26.1038C41.4105 25.6007 40.9409 25.1479 41.0583 24.6448C41.226 23.9741 42.1986 23.9405 42.7017 23.471C43.5569 22.6828 42.7688 21.2575 43.0203 20.1339C43.2886 18.9433 44.6973 18.3061 44.9992 17.1322C45.083 16.8136 45.083 16.4615 45.2004 16.1596C45.3513 15.7739 45.6867 15.4888 46.0053 15.2205C47.1623 14.2311 48.3865 13.2082 49.879 12.9232C50.8683 12.7219 51.8912 12.8728 52.8638 13.0741C53.7358 13.2585 54.6414 13.5101 55.2283 14.1808C56.5531 15.7068 55.8488 20.0333 54.3899 21.3078Z" fill="#C6B697"/>
<path d="M17.8011 41.9523C22.3791 43.3106 27.1583 44.6186 31.8873 43.9311C37.2534 43.1429 42.1333 39.8394 47.5497 39.7891C47.8683 39.7891 48.2205 39.8058 48.4888 39.9735C48.7068 40.1244 48.8577 40.3592 48.9919 40.594C50.2328 42.8578 50.5179 45.6248 49.7968 48.1066C49.3944 49.4817 48.6733 50.7729 47.6503 51.7791C46.8957 52.5169 45.9902 53.0703 45.0511 53.5231C41.8482 55.0826 38.159 55.5354 34.6039 55.1832C31.0488 54.8478 27.5944 53.7578 24.2908 52.3995C21.7754 51.3598 19.3271 50.1524 17.1136 48.5929C14.6653 46.8489 12.5356 44.6857 10.4395 42.5224C10.3221 42.4051 10.2047 42.2709 10.1879 42.1032C10.1208 40.9126 12.5523 39.9232 13.4914 40.1412C14.9168 40.4934 16.3254 41.5331 17.8011 41.9523Z" fill="#FCEE9F"/>
<path d="M59.2205 38.5118C59.9919 38.3106 60.8136 38.0423 61.6017 38.1932C62.6414 38.3777 63.2619 39.1491 63.7314 39.8702C66.9679 44.8171 68.2256 50.3342 69.3491 55.7842C70.9589 63.5315 73.0887 70.692 73.0383 78.54C73.0216 80.4182 72.7868 82.5311 70.8752 83.7217C69.9025 84.3254 68.6615 84.5937 67.4374 84.7782C62.1718 85.5831 56.0511 85.8514 50.7017 85.4825C48.354 85.3148 45.9896 85.1471 43.7258 84.6775C41.1098 84.1409 38.4769 83.0845 37.2528 81.2566C36.1628 79.6468 36.364 77.7183 36.6323 75.924C37.6049 69.0486 38.98 62.19 40.7576 55.3985C41.9482 50.8372 43.3233 46.2928 44.6816 41.7651C45.2853 39.736 46.2076 37.4722 49.4608 38.0759C52.8985 38.6963 55.6151 39.4509 59.2205 38.5118Z" fill="#FCEE9F"/>
<path d="M55.6947 37.6251C54.6215 37.7257 53.3303 37.927 52.2738 37.7425C49.3392 37.2227 47.5784 34.2042 46.0692 31.5547C44.6941 29.1399 45.1133 24.6961 45.5661 21.9124C45.717 20.9733 45.9015 20.0007 46.4214 19.2125C47.4611 17.6865 49.4566 17.3511 51.2341 17.2673C54.3532 17.0996 57.6065 17.3008 60.2895 18.9274C66.6619 22.7508 63.2576 36.8873 55.6947 37.6251Z" fill="#F9E9DE"/>
<path d="M68.893 43.8084C76.8752 53.1992 80.1116 65.3736 83.1301 77.1288C83.1971 77.3804 83.2642 77.6655 83.1635 77.9002C82.9623 78.4536 81.1177 78.7219 80.2793 78.9902C79.8936 79.1076 79.4911 78.9567 79.3402 78.5878C77.1434 73.3055 74.41 67.4027 70.5866 62.1204C67.5178 57.8778 65.405 53.937 60.4916 51.4216C58.4458 50.3652 57.9762 49.3758 58.1271 47.0616C58.278 44.7978 59.804 42.4501 61.6654 41.3601C64.4658 39.6832 67.1322 41.729 68.893 43.8084Z" fill="#FCEE9F"/>
<path d="M49.9976 44.5177C50.5846 47.3014 50.987 50.1018 51.4062 52.9191C51.4733 53.3383 51.5739 53.8078 51.9428 53.9923C52.4794 54.2774 53.0831 53.7408 53.4185 53.2377C55.2799 50.454 55.565 46.9157 56.873 43.8302C57.4096 42.5389 58.1475 41.3148 58.4997 39.9565C58.5667 39.7049 58.6171 39.4366 58.5164 39.1851C58.3152 38.6652 57.6108 38.6149 57.0574 38.6317C56.1854 38.6652 55.3135 38.6485 54.4247 38.6149C53.7372 38.5814 53.0496 38.5478 52.3956 38.3466C51.5907 38.1118 50.6684 37.4914 49.8132 37.5081C49.025 37.5417 49.0754 38.1118 49.0754 38.7826C49.0921 40.7446 49.5952 42.6395 49.9976 44.5177Z" fill="#F7F7F7"/>
<path d="M47.7177 39.5361C47.7848 39.838 48.1201 40.0392 48.1704 40.3578C48.2207 40.71 47.8685 40.995 47.5332 41.1124C47.1978 41.213 46.8121 41.2298 46.5103 41.4143C46.2084 41.5987 46.0575 42.085 46.3258 42.303C46.4432 42.3869 46.5941 42.4037 46.7451 42.4372C47.2984 42.5713 47.8015 43.1415 47.6003 43.6781C47.4662 44.0135 47.114 44.2147 46.8792 44.4998C46.6445 44.7849 46.5773 45.3047 46.9127 45.4389C47.0301 45.4892 47.1643 45.4724 47.2817 45.4724C47.7177 45.4892 48.1369 45.8917 48.1034 46.3277C48.0698 46.6966 47.7679 46.9649 47.5332 47.2332C47.2984 47.5015 47.0972 47.904 47.2817 48.2226C47.4661 48.5412 47.9357 48.5747 48.1201 48.8933C48.5394 49.5809 47.1643 50.4529 47.6506 51.0901C47.8853 51.392 48.4052 51.3417 48.64 51.6603C48.9251 52.046 48.5225 52.5658 48.1536 52.8677C47.7847 53.1695 47.3823 53.6893 47.6673 54.075C47.8853 54.3601 48.3213 54.3098 48.6735 54.293C49.0256 54.2595 49.4952 54.3769 49.5455 54.729C49.579 55.0477 49.2269 55.2824 49.1934 55.6178C49.1096 56.255 50.166 56.406 50.4511 56.9761C50.8032 57.714 49.7467 58.4183 49.7803 59.24C49.7971 59.9107 50.5516 60.3803 50.5852 61.0343C50.6187 61.5541 50.1995 62.0404 50.3169 62.5603C50.3505 62.6944 50.4176 62.8286 50.4511 62.9627C50.5014 63.2813 50.3337 63.5832 50.1827 63.8683C49.9815 64.3043 49.8641 64.8073 50.0485 65.2433C50.233 65.6793 50.8367 65.9477 51.2224 65.6793C51.5075 65.4781 51.5913 65.0589 51.541 64.7067C51.5075 64.3546 51.3901 64.0024 51.4236 63.6335C51.4907 62.7783 52.3627 62.1243 52.3459 61.2858C52.3292 60.8163 52.0609 60.397 52.0441 59.9275C52.0106 59.1729 52.6814 58.4686 52.5305 57.7307C52.4466 57.2947 52.0944 56.9593 51.9603 56.5401C51.7255 55.819 52.1783 55.0644 52.2118 54.293C52.2286 53.9241 52.1279 53.5552 52.0441 53.1863C51.7422 51.9286 51.4236 50.6709 51.1218 49.4132C51.0547 49.1113 50.9709 48.8095 50.9876 48.4909C50.9876 48.2058 51.0715 47.9207 51.105 47.6524C51.2559 46.596 50.8703 45.5563 50.6187 44.5333C50.2666 43.1918 50.1157 41.8 50.1325 40.4081C50.1492 39.7206 50.2498 38.4964 49.4113 38.2784C48.8244 38.1275 47.55 38.8318 47.7177 39.5361Z" fill="white"/>
<path d="M60.3588 39.7736C60.7277 40.4946 60.4426 41.417 59.8892 42.0207C59.7718 42.1548 59.6209 42.289 59.5706 42.4567C59.319 43.1274 60.4091 43.6976 60.2749 44.4019C60.124 45.2068 58.7154 45.0726 58.4136 45.8273C58.2459 46.2633 58.5309 46.716 58.7825 47.1017C59.034 47.4874 59.252 48.024 58.9501 48.393C58.4638 48.9966 57.1894 48.3426 56.8037 49.0134C56.5857 49.3823 56.854 49.8351 57.0049 50.2376C57.1894 50.7071 57.1559 51.3276 56.7367 51.5959C56.2839 51.881 55.5963 51.6294 55.1938 51.9816C54.9087 52.2331 54.9088 52.6859 54.892 53.0716C54.8752 53.4573 54.7579 53.9268 54.3889 54.0442C54.2883 54.0777 54.1709 54.0777 54.0871 54.1448C53.9865 54.2286 53.9697 54.3796 53.9697 54.5137C53.9529 55.0168 53.9529 55.5199 53.9361 56.0062C53.5337 55.8888 53.0474 56.2242 53.0306 56.6602C53.0306 56.8782 53.1145 57.113 53.0138 57.2974C52.8965 57.5154 52.5778 57.5657 52.3598 57.4483C52.1418 57.331 51.9909 57.113 51.8735 56.895C51.5214 56.241 51.2531 55.4696 51.4879 54.7653C51.6723 54.2119 52.1419 53.8094 52.5108 53.3399C53.1648 52.5182 53.5169 51.512 53.8691 50.5394C54.7914 48.024 55.7975 45.5254 56.8707 43.0603C57.3738 41.92 57.8434 40.7126 58.38 39.6059C58.816 38.8345 59.9228 38.9016 60.3588 39.7736Z" fill="white"/>
<path d="M59.8547 23.4215C60.9279 24.109 61.8166 25.1655 62.1185 26.4064C62.5209 28.0666 61.8334 29.8106 60.9111 31.2527C60.0056 32.6949 58.8652 34.0197 58.2112 35.596C57.9261 36.2835 57.7417 37.0214 57.6075 37.7592C57.3728 39.0337 57.2889 40.3752 57.6914 41.5994C58.0938 42.8235 59.1 43.9135 60.3745 44.1483C61.649 44.383 63.1078 43.511 63.2588 42.2366C63.3426 41.549 63.0911 40.7441 63.5439 40.2075C64.1476 39.5032 65.5897 39.8218 65.9083 38.9498C66.2269 38.0946 64.9524 37.4406 64.8351 36.5183C64.6841 35.2774 66.6629 34.7743 66.948 33.5501C67.1995 32.4769 66.0089 31.3869 66.3946 30.364C66.5791 29.8777 67.0654 29.5926 67.4511 29.2404C67.8368 28.8883 68.1554 28.3349 67.9039 27.8821C67.8032 27.7144 67.6523 27.5803 67.5349 27.4294C67.2498 27.0101 67.3169 26.4567 67.3672 25.9537C67.602 23.5389 67.0151 21.0403 65.7239 18.9777C65.2208 18.1727 64.617 17.4517 63.9798 16.7474C63.2587 15.976 62.5042 15.2381 61.6154 14.668C60.0391 13.6283 58.1274 13.142 56.266 13.2594C55.5282 13.3097 54.7903 13.4606 54.1363 13.8127C52.3252 14.8021 51.5538 17.8206 52.5768 19.5981C54.2034 22.3818 57.4063 21.8284 59.8547 23.4215Z" fill="#C6B697"/>
<path d="M14.9153 31.7239C15.0327 31.9922 15.1669 32.3108 15.0495 32.5959C14.9657 32.7635 14.8147 32.8809 14.6638 32.9983C11.4776 35.2454 8.24119 37.5931 4.92088 39.6389C4.70288 39.7731 4.46813 39.924 4.19982 39.9911C3.67997 40.1252 3.32782 40.5445 2.89182 40.2091C2.45582 39.8905 1.73472 38.6328 1.44964 38.18C1.03041 37.5092 0.460274 36.6037 0.158428 35.8994C0.0578129 35.6814 -0.0260271 35.4299 0.00751133 35.1951C0.0410498 34.8765 0.292584 34.6249 0.527353 34.3902C1.29874 33.6523 2.32164 33.166 3.12656 32.4785C4.28364 31.4891 5.5078 30.768 6.79903 29.9463C7.6878 29.3762 8.55977 28.6216 9.49885 28.1352C10.1361 27.8166 10.8907 27.2465 11.5783 27.0955C12.0813 26.9949 12.3161 27.3471 12.5676 27.716C13.4396 28.9905 14.2781 30.3152 14.9153 31.7239Z" fill="#FF8FA0"/>
<path d="M14.1972 31.7737C14.2978 32.0085 14.4152 32.2936 14.3146 32.5283C14.2475 32.6793 14.1134 32.7799 13.996 32.8637C11.3297 34.7754 8.8646 36.5697 6.08091 38.297C5.89645 38.4143 5.29274 38.8839 5.07474 38.9342C4.63874 39.0516 4.75612 39.0516 4.3872 38.7665C4.01828 38.4814 3.3978 37.4082 3.16303 37.0057C2.81087 36.4356 2.32461 35.6474 2.0563 35.0102C1.97246 34.809 1.88858 34.6077 1.92212 34.4065C1.95566 34.1214 2.15689 33.9034 2.34135 33.719C2.97858 33.0817 3.59905 32.8973 4.28659 32.3103C5.2592 31.4551 6.2821 30.8514 7.35534 30.1471C8.09318 29.6608 8.83107 29.0068 9.60246 28.6043C10.1223 28.336 10.7595 27.833 11.3464 27.7323C11.7657 27.6485 11.9669 27.9671 12.1849 28.2857C12.9227 29.3925 13.6438 30.5496 14.1972 31.7737Z" fill="white"/>
<path d="M14.1972 31.7737C14.2978 32.0085 14.4152 32.2936 14.3146 32.5283C14.2475 32.6793 14.1134 32.7799 13.996 32.8637C11.3297 34.7754 8.8646 36.5697 6.08091 38.297C5.89645 38.4143 5.29274 38.8839 5.07474 38.9342C4.63874 39.0516 4.75612 39.0516 4.3872 38.7665C4.01828 38.4814 3.3978 37.4082 3.16303 37.0057C2.81087 36.4356 2.32461 35.6474 2.0563 35.0102C1.97246 34.809 1.88858 34.6077 1.92212 34.4065C1.95566 34.1214 2.15689 33.9034 2.34135 33.719C2.97858 33.0817 3.59905 32.8973 4.28659 32.3103C5.2592 31.4551 6.2821 30.8514 7.35534 30.1471C8.09318 29.6608 8.83107 29.0068 9.60246 28.6043C10.1223 28.336 10.7595 27.833 11.3464 27.7323C11.7657 27.6485 11.9669 27.9671 12.1849 28.2857C12.9227 29.3925 13.6438 30.5496 14.1972 31.7737Z" fill="white"/>
<path d="M14.1972 31.7737C14.2978 32.0085 14.4152 32.2936 14.3146 32.5283C14.2475 32.6793 14.1134 32.7799 13.996 32.8637C11.3297 34.7754 8.8646 36.5697 6.08091 38.297C5.89645 38.4143 5.29274 38.8839 5.07474 38.9342C4.63874 39.0516 4.75612 39.0516 4.3872 38.7665C4.01828 38.4814 3.3978 37.4082 3.16303 37.0057C2.81087 36.4356 2.32461 35.6474 2.0563 35.0102C1.97246 34.809 1.88858 34.6077 1.92212 34.4065C1.95566 34.1214 2.15689 33.9034 2.34135 33.719C2.97858 33.0817 3.59905 32.8973 4.28659 32.3103C5.2592 31.4551 6.2821 30.8514 7.35534 30.1471C8.09318 29.6608 8.83107 29.0068 9.60246 28.6043C10.1223 28.336 10.7595 27.833 11.3464 27.7323C11.7657 27.6485 11.9669 27.9671 12.1849 28.2857C12.9227 29.3925 13.6438 30.5496 14.1972 31.7737Z" fill="white"/>
<path d="M2.66047 36.771C2.49278 36.6704 2.29157 36.6369 2.10711 36.6872C1.88911 36.7543 1.73817 36.9387 1.67109 37.1567C1.62079 37.3747 1.65434 37.6095 1.73819 37.8107C1.77172 37.8946 1.82203 37.9784 1.8891 38.0455C2.00649 38.1461 2.15739 38.1629 2.29155 38.1461C2.4257 38.1293 2.55987 38.0622 2.67726 37.9784C2.79464 37.8946 2.91202 37.7939 2.97909 37.6598C3.18032 37.3076 2.96232 36.9555 2.66047 36.771Z" fill="#E5E5E5"/>
<path d="M13.9583 30.2662C13.9918 30.3165 14.0254 30.3669 14.0254 30.4339C14.0254 30.501 13.975 30.5513 13.908 30.5513C13.8576 30.5513 13.8241 30.501 13.8073 30.4507C13.6564 30.1992 13.5055 29.9476 13.3378 29.6793C13.3043 29.6122 13.2372 29.4781 13.3378 29.4278C13.4384 29.3942 13.5055 29.5116 13.539 29.5787C13.69 29.8135 13.8241 30.0482 13.9583 30.2662Z" fill="#8A8A8A"/>
<path d="M13.2583 29.1417C13.2248 29.0914 13.1577 29.0914 13.1074 29.1249C13.0738 29.1585 13.0738 29.2423 13.1241 29.2759C13.1744 29.3094 13.2415 29.2926 13.275 29.2423C13.275 29.2088 13.2751 29.1752 13.2583 29.1417Z" fill="#8A8A8A"/>
<path d="M7.37208 37.612C7.33854 37.679 7.30502 37.7294 7.23795 37.7629C7.1541 37.7964 7.05348 37.7294 6.96963 37.679C6.68455 37.461 6.39946 37.243 6.11438 37.025C5.84608 36.8238 5.57776 36.6226 5.42684 36.3375C5.35976 36.2034 5.32626 36.0021 5.46041 35.935C5.54426 35.9015 5.62809 35.9183 5.71194 35.9686C6.03055 36.1027 6.19825 36.3543 6.44979 36.5891C6.55041 36.6897 6.78517 36.9244 6.91933 36.9915C7.05348 37.0418 7.12053 36.8909 7.20437 36.7735C7.27145 36.6729 7.33852 36.4046 7.35529 36.2872C7.38883 36.0357 7.40565 35.9854 7.45595 35.8344C7.48949 35.7338 7.50624 35.7338 7.59008 35.6835C8.05962 35.3817 7.82485 36.3375 7.79131 36.5052C7.69069 36.8909 7.55654 37.2598 7.37208 37.612Z" fill="#B79A7D"/>
<path d="M8.59717 32.8323C8.61394 32.6311 8.6978 32.4467 8.71457 32.2454C8.71457 32.0777 8.66424 31.8933 8.53008 31.7927C8.39593 31.692 8.1947 31.6753 8.06055 31.7759L8.21146 31.6753C8.37916 31.625 8.58038 31.5747 8.73131 31.6753C8.83192 31.7591 8.88222 31.8933 8.93253 32.0107C8.99961 32.1951 9.08347 32.3628 9.21763 32.497C9.31824 32.5976 9.45238 32.6647 9.56977 32.7485C9.68715 32.8324 9.78778 32.9665 9.78778 33.1174C9.78778 33.2348 9.70395 33.3522 9.60334 33.4193C9.50272 33.4863 9.3853 33.5199 9.25115 33.5367C9.15053 33.5534 9.03314 33.5534 8.93253 33.5031C8.83191 33.4528 8.74809 33.369 8.69779 33.2683C8.61394 33.151 8.58041 32.9833 8.59717 32.8323Z" fill="#534741"/>
<path d="M4.83842 32.0945C5.25766 33.5032 5.37508 33.4193 6.02908 33.9727C6.14646 34.0733 6.39798 34.241 6.53213 34.3081C6.7669 34.4422 7.05198 34.4925 7.32029 34.5429C7.3706 34.5596 7.43768 34.5596 7.48799 34.5596C7.5383 34.5428 7.58858 34.5261 7.62212 34.4925C7.73951 34.3919 7.78984 34.2242 7.75631 34.0733C7.72277 33.8889 7.60538 33.8889 7.43769 33.8721C7.11907 33.8385 6.91784 33.7547 6.59922 33.6541C6.43153 33.6038 6.26384 33.4864 6.12969 33.369C5.76077 33.0839 5.69369 33.1175 5.34153 32.5641C5.27446 32.4635 5.15708 32.1281 5.14031 32.0107C5.12354 31.8765 5.10674 31.7592 5.10674 31.6585C5.12351 31.6082 5.09 31.5412 5.09 31.5076C5.07323 31.4405 5.0732 31.3735 5.10674 31.3064C5.12351 31.2729 5.14029 31.2393 5.12352 31.2058C5.12352 31.189 5.10674 31.189 5.10674 31.1722C5.10674 31.1555 5.10674 31.1387 5.10674 31.1387C5.10674 31.1052 5.10676 31.0884 5.12352 31.0549C5.12352 31.0381 5.14031 31.0213 5.14031 31.0045C5.14031 30.971 5.08997 30.8872 5.05643 30.8704C5.02289 30.8536 4.88875 30.8536 4.85521 30.8872C4.83844 30.9039 4.80489 30.9207 4.78812 30.9375C4.77135 30.971 4.73785 31.0045 4.72108 31.0381C4.70431 31.0716 4.68751 31.1219 4.68751 31.1555C4.65397 31.2896 4.7546 31.4573 4.7546 31.6082L4.83842 32.0945Z" fill="#E2CBB7"/>
<path d="M8.11178 33.3871C7.89378 33.5045 7.6087 33.6051 7.52485 33.8231C7.45777 33.9908 7.52487 34.1753 7.59194 34.3262C8.1621 35.6174 9.01733 36.7242 9.6881 37.9651C9.88933 38.3508 10.0738 38.7365 10.2415 39.139C10.2918 39.2564 10.3421 39.3905 10.3421 39.5247C10.3421 39.6085 10.3253 39.6756 10.3421 39.7595C10.3756 39.9775 10.6439 40.0948 10.8787 40.0781C11.1135 40.0445 11.3147 39.9104 11.5159 39.793C12.1364 39.3905 12.7569 38.9713 13.3606 38.5688C13.5115 38.4682 13.6792 38.3508 13.7295 38.1664C13.7798 37.9987 13.6792 37.8142 13.5786 37.6633C13.0755 36.9255 12.3544 36.3888 11.7172 35.7684C11.0799 35.1647 10.5266 34.4771 9.9061 33.8567C9.62103 33.5716 9.28565 33.2194 8.91673 33.035C8.61488 32.8673 8.41363 33.2362 8.11178 33.3871Z" fill="#D9924E"/>
<path d="M10.7946 32.9668C10.9623 32.9835 11.1803 32.9835 11.2809 32.8494C11.348 32.7488 11.3312 32.6146 11.3145 32.4972C11.2474 31.9439 11.1803 31.3737 11.13 30.8203C11.2474 30.8203 11.3815 30.8203 11.4486 30.9042C11.4821 30.9545 11.4989 31.0215 11.4989 31.0886C11.5995 31.8097 11.6666 32.5308 11.7169 33.2518C11.7169 33.3189 11.7169 33.4028 11.6834 33.4531C11.6499 33.5202 11.566 33.5537 11.4822 33.5872C11.0126 33.7382 10.5263 33.7885 10.0233 33.8052C9.8891 33.8052 9.75493 33.8052 9.63754 33.7382C9.55369 33.6711 9.50336 33.5872 9.45305 33.4866C9.33567 33.2351 9.21831 32.7823 9.63754 32.8159C10.04 32.8494 10.4257 32.9165 10.7946 32.9668Z" fill="#E2CBB7"/>
<path d="M11.0443 30.5214C11.0611 30.4879 11.0946 30.4543 11.1282 30.4208C11.1953 30.3369 11.1617 30.2028 11.2121 30.1189C11.2624 30.0351 11.363 29.9848 11.4636 30.0183C11.5474 30.0351 11.6313 30.1189 11.6816 30.186C11.6984 30.2195 11.7319 30.2363 11.7319 30.2699C11.7487 30.3034 11.7319 30.3369 11.7319 30.3872C11.6984 30.5549 11.6313 30.7226 11.5307 30.8736C11.5139 30.9071 11.4971 30.9406 11.4636 30.9574C11.3462 31.0412 11.212 30.9574 11.145 30.8736C11.1114 30.8065 11.0108 30.5885 11.0443 30.5214Z" fill="#E2CBB7"/>
<path d="M9.66866 30.3172C9.78604 30.334 9.90345 30.3004 10.0041 30.2669C10.1214 30.2334 10.2388 30.2166 10.3394 30.2501C10.4233 30.2837 10.4736 30.334 10.5407 30.3843C10.6413 30.4849 10.7587 30.6023 10.7754 30.7532C10.7754 30.8371 10.7587 30.9041 10.7754 30.988C10.7922 31.0886 10.8761 31.1557 10.9599 31.206C11.0438 31.2563 11.1276 31.3066 11.1947 31.3737C11.245 31.424 11.2618 31.4911 11.3121 31.5414C11.4127 31.6252 11.5468 31.6084 11.6642 31.5581C11.7648 31.4911 11.8487 31.3904 11.9157 31.2898C11.966 31.2227 12.0164 31.1389 11.9828 31.0551C11.9661 31.0047 11.899 30.9544 11.8487 30.9377C11.7984 30.9209 11.7313 30.9041 11.681 30.8706C11.6474 30.8538 11.6307 30.8371 11.6307 30.8035C11.6307 30.77 11.6642 30.7197 11.6475 30.6861C11.6475 30.6358 11.5804 30.6191 11.5301 30.6191C11.4798 30.6191 11.4294 30.6191 11.3959 30.5855C11.3288 30.5352 11.3959 30.4178 11.3792 30.3508C11.3624 30.2669 11.2617 30.2334 11.1779 30.1998C11.094 30.1831 10.9934 30.1328 10.9767 30.0489C10.9599 29.9986 10.9767 29.9315 10.9431 29.898C10.8928 29.8477 10.809 29.898 10.7419 29.8812C10.6245 29.8644 10.6245 29.6968 10.5407 29.6297C10.4568 29.5458 10.3059 29.5626 10.2221 29.4787C10.2053 29.462 10.1885 29.4284 10.155 29.4117C10.1214 29.3949 10.0879 29.3781 10.0376 29.3781C9.88666 29.3614 9.73577 29.3278 9.60162 29.3781C9.51777 29.4117 9.4339 29.4787 9.36682 29.5458C9.29975 29.6129 9.24946 29.68 9.23269 29.7638C9.19915 29.965 9.4842 30.2837 9.66866 30.3172Z" fill="#C6B697"/>
<path d="M13.7409 30.1367C13.439 30.4888 13.1036 30.841 12.6844 31.0255C12.1981 31.2435 11.6279 31.2099 11.1751 31.4782C11.1416 31.495 11.1249 31.5118 11.1081 31.5453C11.0913 31.5621 11.0913 31.5956 11.0913 31.6291C11.1081 31.8807 11.2255 32.1155 11.4099 32.2831C11.5105 32.3838 11.6447 32.4508 11.7789 32.4676C11.8795 32.4844 11.9801 32.4844 12.0807 32.4844C12.4328 32.4508 12.7515 32.2999 13.0198 32.0819C13.2881 31.8807 13.5229 31.6124 13.7241 31.3273C13.875 31.1093 14.0259 30.8913 14.1265 30.6398C14.2439 30.3715 14.311 30.0864 14.3613 29.8013C14.3613 29.7845 14.3613 29.7678 14.3613 29.751C14.311 29.6504 14.0595 29.6839 13.9924 29.751C13.8918 29.8684 13.8415 30.0361 13.7409 30.1367Z" fill="#D5AFCB"/>
<path d="M10.1579 31.9752C10.0908 31.9919 10.0069 32.0255 9.93987 32.0758C9.85602 32.1429 9.85604 32.2435 9.85604 32.3273C9.83927 32.8975 10.0237 33.4173 10.2082 33.9204C10.4765 34.6415 10.661 35.3458 11.0634 35.983C11.164 36.1339 11.2814 36.3016 11.4994 36.3016C11.6168 36.3016 11.7342 36.2513 11.8348 36.2178C12.3043 36.0166 12.8242 35.7315 13.2434 35.4129C13.4279 35.2787 13.6123 35.1446 13.78 34.9936C13.9645 34.8092 14.1322 34.5912 14.1322 34.3732C14.1322 34.1887 14.0316 34.0378 13.9142 33.9036C13.4782 33.3838 13.0254 32.8975 12.5223 32.4279C12.187 32.1093 11.8515 31.8075 11.4994 31.5056C11.3485 31.3715 11.1473 31.2373 10.9125 31.4386C10.6777 31.6566 10.4933 31.8578 10.1579 31.9752Z" fill="#D5AFCB"/>
<path d="M10.3875 31.726C10.4882 31.6757 10.6055 31.6254 10.6726 31.5584C10.8906 31.3571 10.8738 31.0217 10.8738 30.7367C10.857 30.4683 10.6055 30.1162 10.4211 29.915C10.354 29.8479 10.3037 29.7808 10.2198 29.7305C10.0521 29.6634 9.86765 29.7305 9.71673 29.8144C9.44842 29.9653 9.19691 30.1497 9.06275 30.418C8.72737 31.0553 9.73354 32.0447 10.3875 31.726Z" fill="#F9E9DE"/>
<path d="M9.61313 32.8999C9.42867 34.0737 9.79761 35.2476 10.1498 36.3711C10.1498 36.3879 10.1665 36.4214 10.1833 36.4382C10.2336 36.4717 10.4013 36.4046 10.4852 36.3879C10.5187 36.3711 10.5522 36.3376 10.5355 36.304C10.4516 35.7506 10.3678 35.1302 10.4181 34.4929C10.4516 33.9899 10.418 33.5539 10.7031 33.1011C10.8205 32.9166 10.8038 32.7992 10.6696 32.6148C10.5354 32.4303 10.3007 32.3129 10.0827 32.3297C9.76405 32.3465 9.66344 32.6483 9.61313 32.8999Z" fill="#D5AFCB"/>
<path d="M13.9967 29.4964C13.9632 29.3958 13.9297 29.312 13.8961 29.2113C13.8961 29.1778 13.8794 29.161 13.8961 29.1275C13.8961 29.1107 13.9129 29.094 13.9296 29.0772C13.98 28.9933 13.9129 28.8592 13.9632 28.7753C13.9967 28.725 14.0638 28.7083 14.1141 28.725C14.1979 28.7418 14.2986 28.7921 14.3321 28.8592C14.3992 28.9598 14.3992 29.0772 14.3824 29.1778C14.3656 29.2952 14.3489 29.3958 14.3657 29.5132C14.3657 29.5635 14.3824 29.597 14.3824 29.6473C14.3824 29.6976 14.3656 29.748 14.3321 29.7647C14.2818 29.7983 14.2315 29.7983 14.1812 29.7815C14.1141 29.7647 14.0303 29.7815 14.0303 29.6977C14.0303 29.6473 14.0303 29.5803 13.9967 29.4964Z" fill="#F9E9DE"/>
<path d="M10.6087 36.6428C10.6255 36.6596 10.6255 36.6931 10.6255 36.7099C10.6255 36.7434 10.6255 36.7602 10.5919 36.777C10.5752 36.777 10.5751 36.7937 10.5584 36.7937C10.5416 36.8105 10.5416 36.8273 10.5416 36.844C10.5584 36.9111 10.6087 36.9782 10.5919 37.0453C10.5752 37.0956 10.5249 37.1291 10.4746 37.1459C10.4242 37.1626 10.3739 37.1459 10.3404 37.1123C10.3068 37.0788 10.2901 37.0285 10.2733 36.9782C10.2398 36.8273 10.2733 36.6428 10.2062 36.5087C10.1895 36.4919 10.1895 36.4583 10.1895 36.4416C10.1895 36.408 10.2398 36.3745 10.2733 36.3745C10.3236 36.3577 10.441 36.3074 10.4913 36.3577C10.5249 36.3913 10.5249 36.4416 10.5416 36.4751C10.5752 36.5422 10.5919 36.5925 10.6087 36.6428Z" fill="#F9E9DE"/>
<path d="M11.2077 31.9951C11.3083 32.2466 11.4089 32.4981 11.5263 32.7665C11.5431 32.8 11.5598 32.8503 11.5431 32.8838C11.5095 32.9341 11.4425 32.9174 11.3754 32.9006C11.0736 32.7665 10.8723 32.4981 10.604 32.2969C10.4866 32.2131 10.3693 32.1628 10.2686 32.0621C10.2519 32.0454 10.2351 32.0286 10.2351 31.9951C10.2183 31.9448 10.2854 31.8945 10.3189 31.8777C10.386 31.8274 10.4699 31.7938 10.537 31.7435C10.5873 31.71 10.6543 31.6597 10.6879 31.6261C10.7382 31.5591 10.7885 31.4585 10.8556 31.4249C10.9226 31.3914 10.9394 31.4417 10.9897 31.492C11.0903 31.6429 11.1574 31.8274 11.2077 31.9951Z" fill="#F7F7F7"/>
<path d="M11.1436 31.4737C11.1604 31.5072 11.1436 31.5408 11.1436 31.5575C11.1604 31.5911 11.194 31.5911 11.2275 31.5911C11.261 31.5743 11.2946 31.5575 11.3281 31.5575C11.3617 31.5575 11.3952 31.5911 11.3952 31.6246C11.3952 31.6414 11.3784 31.6414 11.3616 31.6581C11.3281 31.6917 11.3113 31.7755 11.3616 31.8091C11.3952 31.8258 11.4287 31.8258 11.4622 31.8426C11.4958 31.8594 11.5293 31.8929 11.5126 31.9264C11.5126 31.9432 11.4958 31.9432 11.479 31.9432C11.4455 31.96 11.4287 32.0271 11.4622 32.0606C11.479 32.0941 11.5293 32.0941 11.5629 32.1109C11.5964 32.1277 11.63 32.1445 11.63 32.178C11.63 32.2115 11.5964 32.2451 11.5964 32.2786C11.5964 32.3624 11.7473 32.3625 11.7473 32.4295C11.7473 32.4631 11.697 32.4966 11.697 32.5301C11.697 32.5804 11.7473 32.5972 11.7977 32.5972C11.848 32.5972 11.8983 32.6308 11.8983 32.6643C11.8983 32.6978 11.8647 32.7146 11.8312 32.7314C11.7976 32.7481 11.7641 32.7817 11.7809 32.8152C11.7976 32.8488 11.8312 32.8488 11.848 32.8655C11.8815 32.9158 11.8144 32.9829 11.8144 33.05C11.8144 33.1338 11.9486 33.1338 11.9821 33.2009C12.0156 33.2512 11.9821 33.3351 12.0156 33.3854C12.0324 33.4357 12.0995 33.4525 12.1163 33.5028C12.1163 33.5195 12.1162 33.5363 12.133 33.5363C12.1498 33.5698 12.1666 33.5866 12.2001 33.6034C12.2336 33.6201 12.2672 33.6705 12.2839 33.704C12.2839 33.7543 12.2504 33.8046 12.2169 33.8046C12.1833 33.8046 12.1498 33.7711 12.133 33.7375C12.1162 33.704 12.1162 33.6705 12.0827 33.6369C12.0324 33.5698 11.9318 33.5531 11.8815 33.486C11.8647 33.4524 11.8647 33.4022 11.8312 33.3518C11.7976 33.2848 11.697 33.268 11.6803 33.2009C11.6635 33.1674 11.6802 33.1171 11.6635 33.0668C11.6467 32.9997 11.5629 32.9494 11.5293 32.8991C11.5126 32.8655 11.4958 32.832 11.479 32.7985C11.4455 32.6811 11.3952 32.5637 11.3616 32.4463C11.3449 32.4128 11.3449 32.396 11.3281 32.3625C11.3113 32.3457 11.2946 32.3121 11.2778 32.2954C11.2107 32.2115 11.194 32.1109 11.1604 32.0103C11.1269 31.8761 11.0598 31.7588 10.9927 31.6414C10.9592 31.5911 10.8921 31.4905 10.9424 31.4234C10.9759 31.4066 11.1269 31.4066 11.1436 31.4737Z" fill="white"/>
<path d="M10.1195 32.1289C10.1195 32.2128 10.2034 32.2631 10.2705 32.2966C10.2872 32.2966 10.304 32.3134 10.3208 32.3134C10.3711 32.3637 10.3207 32.4643 10.3543 32.5146C10.4046 32.5649 10.522 32.4979 10.5723 32.5314C10.6058 32.5649 10.6058 32.6152 10.6058 32.6488C10.6058 32.6991 10.6226 32.7494 10.6561 32.7662C10.7232 32.7829 10.7903 32.6655 10.8574 32.7159C10.8909 32.7326 10.8909 32.7829 10.9077 32.8332C10.9245 32.8835 10.958 32.9339 10.9915 32.9339C11.0418 32.9339 11.0921 32.8835 11.1424 32.8835C11.176 32.8835 11.2095 32.9339 11.2263 32.9506C11.2431 32.9842 11.2766 33.0177 11.3101 33.0009C11.3269 33.0009 11.3269 33.0009 11.3437 33.0009C11.3604 33.0009 11.3605 33.0177 11.3772 33.0177C11.4108 33.0512 11.4275 33.1015 11.4611 33.1351C11.4946 33.1015 11.5449 33.1015 11.5617 33.1351C11.5784 33.1519 11.5784 33.1686 11.5952 33.1854C11.612 33.2022 11.6455 33.1854 11.6623 33.1686C11.679 33.1519 11.6791 33.1183 11.6791 33.1015C11.6791 33.0345 11.6623 32.9506 11.5952 32.9003C11.5449 32.8668 11.4946 32.85 11.4443 32.8332C11.3437 32.7997 11.2598 32.7326 11.1927 32.6655C10.9915 32.4979 10.7735 32.3469 10.5555 32.196C10.4549 32.1289 10.3543 32.0451 10.2537 31.9948C10.2034 31.978 10.1028 32.0451 10.1195 32.1289Z" fill="white"/>
<path d="M9.33012 30.7672C9.27982 30.8846 9.26301 31.0187 9.29655 31.1361C9.34686 31.287 9.49782 31.4044 9.64874 31.4715C9.79967 31.5386 9.96734 31.5889 10.1015 31.6895C10.1686 31.7398 10.2189 31.7901 10.2692 31.8404C10.353 31.941 10.4369 32.0416 10.4536 32.159C10.4872 32.2764 10.4537 32.4273 10.3698 32.5112C10.2692 32.595 10.1182 32.595 10.0344 32.4944C9.98409 32.4441 9.96735 32.3602 9.90027 32.3435C9.81642 32.3099 9.71582 32.4105 9.64874 32.3602C9.58167 32.3099 9.64871 32.1925 9.61517 32.1087C9.56486 31.9913 9.3804 32.0584 9.29655 31.9746C9.22947 31.8907 9.26305 31.7565 9.17921 31.6895C9.14567 31.6559 9.07855 31.6559 9.02824 31.6559C8.97793 31.6392 8.92763 31.6224 8.92763 31.5721C8.92763 31.5553 8.92763 31.5385 8.92763 31.5218C8.92763 31.4715 8.89412 31.4379 8.86059 31.3876C8.70966 31.2032 8.64258 30.9684 8.64258 30.7336C8.64258 30.6498 8.65933 30.5492 8.6761 30.4653C8.69287 30.3647 8.72644 30.2641 8.75998 30.1802C8.84382 30.0125 8.96121 29.8784 9.1289 29.7946C9.19598 29.761 9.26305 29.7275 9.33012 29.7275C9.53135 29.7107 9.74935 29.9287 9.74935 30.1299C9.73258 30.3815 9.44751 30.4989 9.33012 30.7672Z" fill="#C6B697"/>
<path d="M6.66317 32.3137C6.62963 32.2131 6.59606 32.0957 6.57929 31.9783C6.52899 31.5927 6.71344 30.9219 7.19975 30.9219C7.31713 30.9219 7.41777 30.9554 7.53515 30.989C7.65254 31.0225 7.75316 31.0728 7.85377 31.1399C8.03823 31.2573 8.20591 31.4249 8.30652 31.6262C8.39037 31.8106 8.40715 32.0454 8.42392 32.2466C8.44069 32.515 8.44069 32.8168 8.273 33.018C8.055 33.3031 7.60224 33.3366 7.28362 33.1522C6.96501 33.0013 6.76379 32.6659 6.66317 32.3137Z" fill="#E2CBB7"/>
<path d="M7.30262 31.3086C7.45354 31.3925 7.62125 31.426 7.78894 31.4595C7.9231 31.4763 8.05725 31.5099 8.15787 31.5937C8.24171 31.6608 8.27524 31.7782 8.35909 31.8452C8.42617 31.8117 8.44297 31.7278 8.44297 31.644C8.44297 31.5266 8.44297 31.4092 8.39266 31.2919C8.35912 31.208 8.30879 31.1409 8.25848 31.0739C8.15786 30.9397 8.05726 30.8055 7.90634 30.7217C7.75542 30.6379 7.57092 30.6043 7.40323 30.6379C7.26908 30.6714 7.03431 30.7888 6.984 30.9397C6.93369 31.0906 7.16847 31.2415 7.30262 31.3086Z" fill="#534741"/>
<path d="M6.23478 34.4928C6.23478 34.3586 6.2683 34.2245 6.2683 34.1071C6.30184 33.7382 6.20121 33.386 6.15091 33.0339C6.13414 32.8829 6.13418 32.7152 6.20126 32.5811C6.25157 32.4972 6.36891 32.4134 6.46952 32.4134C6.45276 32.3798 6.43599 32.3631 6.41922 32.3295C6.25153 32.0612 6.13415 31.7258 6.218 31.4072C6.28507 31.0886 6.57014 30.8203 6.88876 30.8203C7.10676 30.8203 7.35833 31.0383 7.19064 31.2563C7.14033 31.3234 7.03971 31.3737 6.97263 31.4408C6.87202 31.5414 6.80493 31.6755 6.75462 31.7929C6.67078 32.0109 6.7043 32.2625 6.83845 32.4469C6.80491 32.4302 6.77138 32.4134 6.73784 32.3799C6.7043 32.4469 6.78816 32.5308 6.85524 32.5811C6.97262 32.6985 7.03972 32.8494 7.09003 33.0171C6.93911 32.8829 6.78817 32.7488 6.65401 32.6146C6.65401 32.732 6.62048 32.8829 6.60371 32.9668C6.57017 33.4363 6.77142 33.8723 7.03972 34.258C7.12357 34.3754 7.20739 34.476 7.22416 34.6269C7.2577 34.8114 7.14032 34.9958 6.97263 35.0629C6.80494 35.13 6.60371 35.0965 6.45279 34.9791C6.31864 34.8617 6.25155 34.6772 6.23478 34.4928Z" fill="#534741"/>
<path d="M4.45302 35.7672C4.3021 35.7504 4.13441 35.6833 3.98348 35.5659C3.69841 35.3312 3.43008 35.0629 3.27915 34.7275C3.11146 34.3418 3.11147 33.7549 3.49716 33.4865C3.93316 33.1679 4.43624 33.6542 4.75485 33.9896C5.00639 34.2579 5.19083 34.5933 5.2076 34.9622C5.19083 35.4989 4.85548 35.8007 4.45302 35.7672Z" fill="#B79A7D"/>
<path d="M3.9862 33.6756C3.9862 33.7259 3.95263 33.793 3.90233 33.8098C3.85202 33.8265 3.78495 33.793 3.75141 33.7427C3.76818 33.8936 3.60051 34.0278 3.46636 33.9774C3.4999 33.9439 3.51665 34.0278 3.49988 34.0613C3.44957 34.1284 3.36572 34.1955 3.28187 34.1955C3.34895 34.1955 3.36575 34.2961 3.36575 34.3631C3.36575 34.4135 3.34896 34.4638 3.34896 34.5141C3.44958 34.5644 3.43279 34.7488 3.33218 34.7656C3.41602 34.7488 3.49986 34.8327 3.4831 34.9165C3.55017 34.9333 3.61729 34.9836 3.68437 35.0339C3.65083 35.0675 3.66758 35.1345 3.71789 35.1345C3.70112 35.1681 3.66759 35.2016 3.61728 35.2184C3.63405 35.2016 3.65078 35.2519 3.63401 35.2687C3.61724 35.2855 3.58374 35.2687 3.56697 35.2687C3.4999 35.2351 3.44956 35.1681 3.43279 35.101C3.34894 35.1178 3.28187 35.0339 3.23157 34.9668C3.19803 34.9333 3.18128 34.8998 3.14774 34.8662C3.1142 34.8327 3.09742 34.7991 3.08065 34.7656C3.08065 34.7321 3.09742 34.6818 3.13096 34.665C3.04711 34.6985 2.92975 34.6147 2.94652 34.5308C2.81236 34.5644 2.67818 34.3799 2.76203 34.2625C2.67818 34.2122 2.64465 34.1116 2.66142 34.0278C2.67819 33.9439 2.76203 33.8601 2.86264 33.8601C2.86264 33.8768 2.82911 33.8936 2.81234 33.8768C2.79557 33.8601 2.79555 33.8433 2.79555 33.8098C2.81232 33.6588 2.92973 33.5247 3.08065 33.5079C3.08065 33.3738 3.21479 33.2564 3.33218 33.2564C3.31541 33.2731 3.28191 33.2899 3.26514 33.2731C3.28191 33.1893 3.33219 33.0887 3.39927 33.0551C3.48312 33.0048 3.60051 33.0384 3.61728 33.1222C3.70112 32.9881 3.93586 33.0048 4.00294 33.1558C4.07001 33.1055 4.17064 33.0719 4.27125 33.0887C4.3551 33.1054 4.43897 33.2061 4.40543 33.3067C4.48928 33.2564 4.6234 33.2564 4.69048 33.3402C4.75756 33.4241 4.77434 33.5414 4.70727 33.6253C4.80788 33.6253 4.92529 33.6756 4.99237 33.7595C4.99237 33.8098 4.9756 33.8601 4.94206 33.8936C4.9756 33.8936 4.99233 33.9104 5.0091 33.9439C4.97556 34.011 4.95878 34.0781 4.8917 34.1116C4.82463 34.1451 4.72402 34.0948 4.74079 34.0278C4.6234 34.0445 4.50601 33.9607 4.47247 33.8433C4.43894 33.8601 4.42219 33.8601 4.38865 33.8601C4.33834 33.8265 4.27128 33.7595 4.30482 33.7091C4.28805 33.7762 4.2042 33.8265 4.13712 33.8098C4.0365 33.8265 3.9862 33.7594 3.9862 33.6756Z" fill="#333333"/>
<path d="M2.13876 33.6898C2.08846 33.7569 2.1723 33.8407 2.23938 33.8407C2.30645 33.8407 2.37354 33.7737 2.40708 33.7066C2.37354 33.7401 2.39033 33.7904 2.42386 33.8072C2.52448 33.7737 2.6083 33.6898 2.65861 33.5892C2.62507 33.5892 2.62507 33.6395 2.65861 33.6563C2.67538 33.6731 2.70889 33.6731 2.74243 33.6563C2.82628 33.6228 2.87661 33.5389 2.87661 33.4551C2.80954 33.4718 2.82632 33.5892 2.8934 33.606C2.96048 33.6228 3.02751 33.5725 3.06105 33.5221C3.07782 33.5054 3.07784 33.4886 3.07784 33.4718C3.0443 33.4886 3.06108 33.5557 3.09462 33.5724C3.12816 33.5892 3.17846 33.5724 3.19523 33.5389C3.212 33.5054 3.22875 33.4718 3.22875 33.4215C3.22875 33.4383 3.24556 33.4718 3.26233 33.4718C3.3294 33.4383 3.34617 33.3545 3.31263 33.2874C3.31263 33.2706 3.29583 33.2706 3.27906 33.2706C3.32937 33.2035 3.34613 33.1029 3.32937 33.0191C3.39644 33.0191 3.46355 32.952 3.46355 32.8849C3.51386 32.8681 3.54739 32.8346 3.56416 32.7843C3.5977 32.8011 3.63123 32.7843 3.66477 32.7675C3.68154 32.734 3.69829 32.7004 3.69829 32.6669C3.69829 32.6501 3.69833 32.6334 3.68156 32.6166C3.66479 32.6166 3.64798 32.6334 3.64798 32.6334C3.71506 32.5831 3.7486 32.4825 3.69829 32.3986C3.68152 32.4154 3.66477 32.4321 3.66477 32.4657C3.71508 32.4321 3.71508 32.3483 3.66477 32.3148C3.61446 32.2812 3.53062 32.298 3.51385 32.3483C3.53062 32.298 3.51386 32.2477 3.46355 32.1974C3.44678 32.1974 3.41323 32.2141 3.39646 32.2141C3.43 32.1638 3.37971 32.0632 3.31263 32.08C3.24555 32.08 3.19522 32.1638 3.22875 32.2309C3.26229 32.1806 3.21201 32.0968 3.14493 32.0968C3.07785 32.0968 3.0443 32.1806 3.07784 32.2309C3.0443 32.1974 2.99398 32.1806 2.96044 32.2141C2.9269 32.2309 2.91017 32.298 2.94371 32.3315C2.91017 32.298 2.85983 32.2644 2.80952 32.2812C2.75922 32.298 2.75922 32.3818 2.80952 32.3986C2.79275 32.3315 2.69216 32.3148 2.62509 32.3651C2.57478 32.4154 2.55798 32.4824 2.54121 32.5495C2.50767 32.516 2.4574 32.516 2.42386 32.5328C2.39033 32.5495 2.37354 32.6166 2.40708 32.6501C2.42385 32.5998 2.37351 32.5663 2.3232 32.5663C2.27289 32.5663 2.25613 32.6334 2.2729 32.6669C2.22259 32.6334 2.15552 32.6501 2.12198 32.6837C2.08844 32.7172 2.07171 32.7843 2.10524 32.8346C2.08848 32.8011 2.03817 32.8011 2.00463 32.8178C1.97109 32.8346 1.93753 32.8681 1.92076 32.8849C1.88722 32.9184 1.85366 32.952 1.85366 33.0023C1.85366 33.0526 1.904 33.0861 1.93754 33.0694C1.88723 33.1029 1.83691 33.1364 1.82014 33.1868C1.82014 33.2371 1.90399 33.3041 1.92076 33.2538C1.85368 33.2874 1.80338 33.3544 1.82014 33.4215C1.83691 33.4886 1.92075 33.5389 1.97106 33.4886C1.92075 33.5221 1.92074 33.606 1.95428 33.6395C2.02135 33.7234 2.08846 33.7401 2.13876 33.6898Z" fill="#333333"/>
<path d="M4.33619 36.3046C4.30265 36.3213 4.25235 36.3381 4.23558 36.3717C4.1685 36.4387 4.18525 36.5393 4.21879 36.6064C4.30264 36.8915 4.36974 37.1598 4.45358 37.4449C4.52066 37.6629 4.58771 37.8809 4.63802 38.0989C4.82248 38.7696 5.02374 39.4404 5.29205 40.0944C5.37589 40.3124 5.47648 40.5137 5.57709 40.7149C5.59386 40.7317 5.59386 40.7652 5.6274 40.7652C5.66094 40.782 5.69447 40.7652 5.72801 40.7652C6.70063 40.5137 7.69004 40.0609 8.32727 39.2895C8.05897 38.887 7.77391 38.4846 7.5056 38.0821C7.27083 37.73 7.03605 37.3778 6.76775 37.0424C6.43236 36.6232 6.06343 36.2375 5.66097 35.8686C5.59389 35.8183 5.45975 35.617 5.35914 35.6338C5.25852 35.6338 5.17464 35.7847 5.10756 35.8518C4.87279 36.0698 4.58773 36.1872 4.33619 36.3046Z" fill="#AA4A4D"/>
<path d="M4.12919 36.6897C4.22981 37.5114 4.3472 38.3331 4.44781 39.1548C4.46458 39.2386 4.46459 39.3225 4.5149 39.3895C4.58198 39.4566 4.66581 39.4901 4.76643 39.5237C5.30305 39.6914 5.85641 39.8423 6.42657 39.7752C6.51041 39.7584 6.61102 39.7417 6.6781 39.6914C6.74517 39.6411 6.79549 39.5237 6.74519 39.4398C6.69488 39.3225 6.54394 39.3225 6.40978 39.3225C6.05763 39.3225 5.7055 39.2554 5.38688 39.138C5.25273 39.0877 5.13532 39.0374 5.05148 38.92C4.96763 38.8026 4.93412 38.6517 4.91735 38.5008C4.86704 37.9977 4.85027 37.4946 4.81674 37.0083C4.79997 36.8238 4.76642 36.6897 4.59873 36.6058C4.4478 36.5052 4.09565 36.4381 4.12919 36.6897Z" fill="#B79A7D"/>
<path d="M3.49571 34.2787C3.54602 34.2955 3.57957 34.329 3.61311 34.3793C3.62988 34.4128 3.62986 34.4799 3.59632 34.5135C3.69694 34.5135 3.78081 34.6308 3.73051 34.7147C3.81435 34.7315 3.84787 34.8321 3.81433 34.8992C3.88141 34.9159 3.91495 35.0165 3.86464 35.0668C3.91495 35.0668 3.96527 35.1171 3.98204 35.1675C3.98204 35.2178 3.9485 35.2848 3.88142 35.2848C3.91496 35.3016 3.96527 35.3016 3.98204 35.3519C3.9988 35.3855 3.99877 35.4525 3.94846 35.4525C4.03231 35.4693 4.08261 35.5532 4.04908 35.6202C4.01554 35.6873 3.91493 35.7041 3.84785 35.6538C3.84785 35.7041 3.79755 35.7376 3.74724 35.7376C3.69693 35.7376 3.64665 35.7041 3.61311 35.6705C3.5628 35.7041 3.5125 35.7208 3.46219 35.7208C3.41189 35.7208 3.34481 35.6705 3.36158 35.6202C3.32804 35.6538 3.26094 35.6538 3.2274 35.6202C3.17709 35.6035 3.16031 35.5364 3.16031 35.5028C3.09323 35.5196 3.02618 35.5028 2.97587 35.4525C2.92556 35.4022 2.94231 35.3184 3.00939 35.2848C2.90878 35.3016 2.80819 35.2345 2.77465 35.1339C2.77465 35.1004 2.77463 35.0668 2.80817 35.0836C2.74109 35.0836 2.674 35.0501 2.64047 34.983C2.60693 34.9327 2.62373 34.8488 2.67404 34.7985C2.60696 34.7985 2.55664 34.7482 2.55664 34.6979C2.55664 34.6308 2.59017 34.5805 2.65725 34.5638C2.62371 34.5302 2.60696 34.4967 2.57343 34.4632C2.55666 34.4464 2.55664 34.4296 2.55664 34.4296C2.55664 34.4128 2.57343 34.4128 2.57343 34.3961C2.60696 34.3793 2.65723 34.3458 2.69077 34.3458C2.65723 34.3122 2.65727 34.2619 2.67404 34.2284C2.69081 34.1948 2.75784 34.1781 2.79138 34.1948C2.84169 34.0272 3.07646 33.9601 3.21061 34.0439C3.26092 33.9265 3.37833 34.0104 3.44541 34.0607C3.47895 34.0942 3.5125 34.1445 3.5125 34.1781C3.54604 34.1781 3.52925 34.2955 3.49571 34.2787Z" fill="#333333"/>
</g>
<defs>
<linearGradient id="paint0_linear_8_2" x1="25.9414" y1="162.859" x2="161.12" y2="162.859" gradientUnits="userSpaceOnUse">
<stop stop-color="#4D4D4D"/>
<stop offset="1"/>
</linearGradient>
<linearGradient id="paint1_linear_8_2" x1="25.9414" y1="162.859" x2="161.12" y2="162.859" gradientUnits="userSpaceOnUse">
<stop/>
<stop offset="1"/>
</linearGradient>
<clipPath id="clip0_8_2">
<rect width="162" height="167" fill="white"/>
</clipPath>
</defs>
</svg>
